<mxfile host="app.diagrams.net" modified="2021-04-24T03:45:20.769Z" agent="5.0 (Macintosh; Intel Mac OS X 10_14_6) AppleWebKit/537.36 (KHTML, like Gecko) Chrome/89.0.4389.128 Safari/537.36" etag="BpR6Y9s12-MptqkOjZaL" version="14.6.6" type="github">
  <diagram name="页-1" id="页-1">
    <mxGraphModel dx="1388" dy="614" grid="1" gridSize="17" guides="1" tooltips="1" connect="1" arrows="1" fold="1" page="1" pageScale="1" pageWidth="827" pageHeight="1169" math="1" shadow="0">
      <root>
        <mxCell id="0" />
        <mxCell id="1" value="容器" parent="0" />
        <mxCell id="4" value="" style="verticalAlign=top;align=center;vsdxID=1;fillColor=none;gradientColor=none;shape=stencil(nZE9DsIwDIVP4xWliRiYS7kAJ4iIIRYhqdxQfk5PWhepdGBoJvu9z7b0AqbuvG0RtOoypys+yGUPZg9aU/TIlEsFpgFTnxPjhdM9OulbW0itRgWdzFQDrZXl05HeOGnVZvfztgLJllvqh+tPYZVYr2lSSX8QNFCcoV9zFfwHXQkuzpdizEeSoxAk3rm/zLNI8hem+QA=);dashed=1;dashPattern=8.00 4.00 1.00 4.00;strokeColor=#404040;spacingTop=-1;spacingBottom=-1;spacingLeft=-1;spacingRight=-1;labelBackgroundColor=none;rounded=1;html=1;whiteSpace=wrap;" parent="1" vertex="1">
          <mxGeometry x="539" y="1523" width="141" height="102" as="geometry" />
        </mxCell>
        <mxCell id="5" value="" style="verticalAlign=top;align=center;vsdxID=2;fillColor=none;gradientColor=none;shape=stencil(nZE9DsIwDIVP4xWliRiYS7kAJ4iIIRYhqdxQfk5PWhepdGBoJvu9z7b0AqbuvG0RtOoypys+yGUPZg9aU/TIlEsFpgFTnxPjhdM9OulbW0itRgWdzFQDrZXl05HeOGnVZvfztgLJllvqh+tPYZVYr2lSSX8QNFCcoV9zFfwHXQkuzpdizEeSoxAk3rm/zLNI8hem+QA=);dashed=1;dashPattern=8.00 4.00 1.00 4.00;strokeColor=#404040;spacingTop=-1;spacingBottom=-1;spacingLeft=-1;spacingRight=-1;labelBackgroundColor=none;rounded=1;html=1;whiteSpace=wrap;" parent="1" vertex="1">
          <mxGeometry x="655" y="584" width="256" height="248" as="geometry" />
        </mxCell>
        <mxCell id="6" value="" style="verticalAlign=top;align=center;vsdxID=3;fillColor=none;gradientColor=none;shape=stencil(nZE9DsIwDIVP4xWliRiYS7kAJ4iIIRYhqdxQfk5PWhepdGBoJvu9z7b0AqbuvG0RtOoypys+yGUPZg9aU/TIlEsFpgFTnxPjhdM9OulbW0itRgWdzFQDrZXl05HeOGnVZvfztgLJllvqh+tPYZVYr2lSSX8QNFCcoV9zFfwHXQkuzpdizEeSoxAk3rm/zLNI8hem+QA=);dashed=1;dashPattern=8.00 4.00 1.00 4.00;strokeColor=#404040;spacingTop=-1;spacingBottom=-1;spacingLeft=-1;spacingRight=-1;labelBackgroundColor=none;rounded=1;html=1;whiteSpace=wrap;" parent="1" vertex="1">
          <mxGeometry x="885" y="918" width="256" height="252" as="geometry" />
        </mxCell>
        <mxCell id="7" value="" style="verticalAlign=top;align=center;vsdxID=4;fillColor=none;gradientColor=none;shape=stencil(nZE9DsIwDIVP4xWliRiYS7kAJ4iIIRYhqdxQfk5PWhepdGBoJvu9z7b0AqbuvG0RtOoypys+yGUPZg9aU/TIlEsFpgFTnxPjhdM9OulbW0itRgWdzFQDrZXl05HeOGnVZvfztgLJllvqh+tPYZVYr2lSSX8QNFCcoV9zFfwHXQkuzpdizEeSoxAk3rm/zLNI8hem+QA=);dashed=1;dashPattern=8.00 4.00 1.00 4.00;strokeColor=#404040;spacingTop=-1;spacingBottom=-1;spacingLeft=-1;spacingRight=-1;labelBackgroundColor=none;rounded=1;html=1;whiteSpace=wrap;" parent="1" vertex="1">
          <mxGeometry x="421" y="918" width="256" height="252" as="geometry" />
        </mxCell>
        <mxCell id="8" value="" style="verticalAlign=top;align=center;vsdxID=5;fillColor=none;gradientColor=none;shape=stencil(nZE9DsIwDIVP4xWliRiYS7kAJ4iIIRYhqdxQfk5PWhepdGBoJvu9z7b0AqbuvG0RtOoypys+yGUPZg9aU/TIlEsFpgFTnxPjhdM9OulbW0itRgWdzFQDrZXl05HeOGnVZvfztgLJllvqh+tPYZVYr2lSSX8QNFCcoV9zFfwHXQkuzpdizEeSoxAk3rm/zLNI8hem+QA=);dashed=1;dashPattern=8.00 4.00 1.00 4.00;strokeColor=#404040;spacingTop=-1;spacingBottom=-1;spacingLeft=-1;spacingRight=-1;labelBackgroundColor=none;rounded=1;html=1;whiteSpace=wrap;" parent="1" vertex="1">
          <mxGeometry x="889" y="1523" width="141" height="102" as="geometry" />
        </mxCell>
        <mxCell id="9" value="" style="verticalAlign=top;align=center;vsdxID=6;fillColor=none;gradientColor=none;shape=stencil(nZE9DsIwDIVP4xWliRiYS7kAJ4iIIRYhqdxQfk5PWhepdGBoJvu9z7b0AqbuvG0RtOoypys+yGUPZg9aU/TIlEsFpgFTnxPjhdM9OulbW0itRgWdzFQDrZXl05HeOGnVZvfztgLJllvqh+tPYZVYr2lSSX8QNFCcoV9zFfwHXQkuzpdizEeSoxAk3rm/zLNI8hem+QA=);dashed=1;dashPattern=8.00 4.00 1.00 4.00;strokeColor=#404040;spacingTop=-1;spacingBottom=-1;spacingLeft=-1;spacingRight=-1;labelBackgroundColor=none;rounded=1;html=1;whiteSpace=wrap;" parent="1" vertex="1">
          <mxGeometry x="709" y="1235" width="141" height="102" as="geometry" />
        </mxCell>
        <mxCell id="10" value="&lt;p style=&quot;margin: 0px; text-indent: 0px; direction: ltr; font-size: 16px;&quot;&gt;&lt;font style=&quot;font-size: 16px; font-family: Calibri; color: rgb(0, 0, 0); direction: ltr; letter-spacing: 0px; line-height: 120%; opacity: 1;&quot;&gt;User 1&lt;br style=&quot;font-size: 16px;&quot;&gt;&lt;/font&gt;&lt;/p&gt;" style="verticalAlign=middle;align=center;vsdxID=7;fillColor=none;gradientColor=none;shape=stencil(nZBLDoAgDERP0z3SIyjew0SURgSD+Lu9kMZoXLhwN9O+tukAlrNpJg1SzDH4QW/URgNYgZTkjA4UkwJUgGXng+6DX1zLfmoymdXo17xh5zmRJ6Q42BWCfc2oJfdAr+Yv+AP9Cb7OJ3H/2JG1HNGz/84klThPVCc=);strokeColor=none;labelBackgroundColor=none;rounded=0;html=1;whiteSpace=wrap;fontSize=16;" parent="1" vertex="1">
          <mxGeometry x="665" y="1143" width="92" height="28" as="geometry" />
        </mxCell>
        <mxCell id="14" value="&lt;p style=&quot;margin: 0px; text-indent: 0px; direction: ltr; font-size: 18px;&quot;&gt;&lt;font style=&quot;font-size: 18px; font-family: Calibri; color: rgb(0, 0, 0); direction: ltr; letter-spacing: 0px; line-height: 120%; opacity: 1;&quot;&gt;(a) Uplink.&lt;br style=&quot;font-size: 18px;&quot;&gt;&lt;/font&gt;&lt;/p&gt;" style="verticalAlign=middle;align=center;vsdxID=14;fillColor=none;gradientColor=none;shape=stencil(nZBLDoAgDERP0z3SIyjew0SURgSD+Lu9kMZoXLhwN9O+tukAlrNpJg1SzDH4QW/URgNYgZTkjA4UkwJUgGXng+6DX1zLfmoymdXo17xh5zmRJ6Q42BWCfc2oJfdAr+Yv+AP9Cb7OJ3H/2JG1HNGz/84klThPVCc=);strokeColor=none;labelBackgroundColor=none;rounded=0;html=1;whiteSpace=wrap;fontSize=18;" parent="1" vertex="1">
          <mxGeometry x="691" y="1191" width="160" height="28" as="geometry" />
        </mxCell>
        <mxCell id="15" style="vsdxID=15;fillColor=none;gradientColor=none;image;aspect=fixed;image=data:image/png,iVBORw0KGgoAAAANSUhEUgAAAkwAAALDCAIAAABo4MiZAAATIElEQVR4nO3da3LbOBCFUXkq+9+y54dSmYwfMiUSQPfFORuwywT6I2A5eXt/f78BQKJ/Vn8DADCKyAEQS+QAiCVyAMQSOQBiiRwAsUQOgFgiB0AskQMglsgBEEvkAIglcgDEEjkAYokcALFEDoBYIgdALJEDIJbIARBL5ACIJXIAxBI5AGKJHACxRA6AWCIHQCyRAyCWyAEQS+QAiCVyAMQSOQBiiRwAsUQOgFgiB0AskQMglsgBEEvkAIglcgDEEjkAYokcALFEDoBYIgdALJEDIJbIARBL5ACIJXIAxBI5AGKJHACxRA6AWCIHQCyRAyCWyAEQS+QAiCVyAMQSOQBiiRwAsUQOgFgiB0AskQMglsgBEEvkAIglcgDEEjkAYokcALFEDoBYIgdALJEDIJbIARBL5ACIJXIAxBI5AGKJHACxRA6AWCIHQCyRAyCWyAEQS+QAiCVyAMQSOQBiiRwAsUQOgFgiB0AskQMglsgBEEvkAIglcgDEEjkAYokcALFEDoBYIgdALJEDIJbIARBL5ACIJXIAxBI5AGKJHACxRA6AWCIHQCyRAyCWyAEQS+QAiCVyAMQSOQBiiRwAsUQOgFgiB0AskQMglsgBEEvkAIglcgDEEjkAYokcALFEDoBYIgdALJEDIJbIARBL5ACIJXIAxBI5AGKJHACxRA6AWCIHQCyRAyCWyAEQS+QAiCVyAMQSOQBiiRwAsUQOgFgiB0AskQMglsgBEEvkAIglcgDEEjkAYokcALFEDoBYIgdALJEDIJbIARBL5ACIJXIAxBI5AGKJHACxRA6AWCIHQKxfq78BKOft7W3yV3x/f5/8FWETb3YXm5uftIPsTThP5NhL2aQdYbfCs0SOZK2TdoT9C4+JHGniw/Ydexk+EzkSbBu279jXcCdyNKZtP7LB2ZzI0YywvcxmZ0MiRw/adiG7nn2IHKVp21C2P/FEjqLkbRpDgGAiRy3atpBpQB6Rowp5K8JMIInIsZi2lWU4EEDkWEbeWjAiaE3kWEDe2jEoaErkmEreWjMuaEfkmETeYhgaNCJyDCdvkYwOWhA5BpK3eAYIxYkcQ8jbVowRyvpn9TdAmre3N4XbjSdOWU5yXMakwzyhGic5rqFw3JzjqcdJjrMMNb5ktlCBkxynKBzfsTaowEmOFxlhHGTIsJCTHK9QOI6zWljISY7nGFi8zLRhPpHjCVsVbtrW8FOFcUSOQ+IHcamNkP3TLvWjJp7I8bO8mdtu2XsE8BqR45GY2Rq2zjOeS9hDoSaR41vdJ+kma9tjggdEjq/1HZ3bLmmPDD4TOT7qOCst4w/aPURPkEFEjv/pNRyt3h95oGxO5PhPl4Fo0b7Aw2VPIsdvLYag5XqSp8xuRI7brfzss0ov54mzCZGj9LyzPofy6IknclsrO+Msy8msBFKJ3L5qzjULciFLgjwit6mC48xSLMLaIIn/NHVHphgPFHwWBVcsXTjJbafavLACy7JUCCByGzGzeEGpZWPN8CyR24VRxRl11o/Fw1NEbgsmFJcospCsIo4TuXwGE9eqsKIsJw7y6UpmMJKSVHiaFUJLC05y4ZbPAgssmNVFfU5yycwghlr+fJevcOpzkou1fP8nLa1rf5hJP5m7tYst7+fJhZzkMi0fOubOVtY+7uXvc1QmcoGWF27hV2cVnaMmkUuzcLc7wG1u7QLQOb4kclHWFm7Vl6YUnaMUkcuxaoc7wPHBwiWhc3wgciEWFm7J16U+naMCkUugcNSkcywncu0pHJXpHGuJXG8KR306x0Ii19iSPexjJrxg1bLROUSuq1WFm/9FiWH9MJ/IcZQJxXnzV5HD3OZErqX5+1bhuIrOMZPI9aNwdKdzTCNyzUzeqz5mwiDzl5bO7UnkOplfuJlfjg3pHKOJHF9TOOaw0hhK5NqY+RJq7jDTzPXmMLcbketB4cimcwwicg0oHDvQOUYQueoUjn3oHJcTudLsQ4AzRI7fHOOowGGOa4lcXS4q2ZPOcSGRK0rh2JnOcRWR253CUZOVySVErqJpr5bmCJVNW58Oc8FErhyFgz90jpNEblMKRxfWKmeIXC1zXidNDXqZs2Id5iKJXCEKB9/ROV4jcntROPqyenmByFXhFRIqsBPDiFwJLirhCJeWPEvkdqFwZLCSeYrIrTfhtdFcIMmE9ewwF0PkFlM4eIHOcZDIARBL5FZyjIOXOcxxhMgto3Bwks7xI5GLpXDswDrnMZFbY/TroZ3PPkavdoe51kQOgFgit4BjHFzLYY7viFwahWNPVj5fErnZvBJCR3ZuUyI3lYtKGMelJZ+JXA6FA7uAD0RuHq+B0J1d3I7IhfACC3f2An8TuUmGvgDa1fC3oTvCYa4XkQMglsjN4BgHkznMcSdyvSkcfMfu4CZyE3jpgzz2dRci15gXVXjMHkHkxhr3umf3whHjdorDXAsiB0AskRvIMQ4qcJjbmcgBEEvkRnGMgzoc5rYlcgDEErkhHOOgGoe5PYkcALFErhPHODjDDtqQyF3P3QXsxq4vS+Ta8BIK59lHuxG5iw16obMz4SqDdpPDXE0iB0AskbuSYxy04DC3D5EDIJbIVecYByPYWZsQucu4qQDMgWpEDoBYIncNHzmBdnz8ZAciB0AskavLMQ5Gs8viidwF3E4AfzMT6hA5YGsOc9lErigbD+A8kTvLvQTwmclQhMhV5BgHM9lxwUQOgFgid8qIGwkvlTDfiH3nxrICkQMglsgB3G4uUUKJXC22GcCFRO51LtyBx0yJ5UQO4DdXKXlErhAbDOBaIvcitxDAEWbFWiIHQCyRq8JdJVRgJ4YRuVe4fwCOMzEWEjkAYolcCW5IoA77MYnIARBL5J7meh14lrmxisit524EqrErY4gcALFEDoBYIreYWxGoyd7MIHLP8dtj4DWmxxIiB0AskQMglsit5NIfKrNDA4jcE1ypA2eYIfOJHACxRA6AWCIHQCyRW8bvtKE++7Q7kTvKb4yB80ySyUQOgFgiB0AskVvDRT90Ybe2JnIAxBI5AGKJ3CE+EAVcxTyZSeQAiCVyC/g9NvRiz/YlcgDEEjkAYokcALFEDoBYIgdALJH7mT9qAa5lqkwjcgDEErnZ/MENdGTnNiVyAMQSOQBiiRwAsUQOgFgiB0AskfuBP2cBRjBb5hA5AGKJ3FT+1Ab6sn87EjkAYokcALFEDoBYIgdALJEDINav1d8AT/CHNRk8x1V8PHJDTnIAxBI5AGKJHACxRA6AWCIHQCyRAyCWyAEQS+QAiCVyAMQSOQBiiRwAsUQOgFgiB0AskXvEvxYP0JrIPeI/5gBoTeQAiCVyAMQSOQBiiRwAsUQOgFgiB0AskQMglsgBEEvkAIglcgDEEjkAYokcALFEDoBYv1Z/AzzB/4qwyrX/6ZLnCNM4yQEQS+QAiCVyAMQSOQBiiRwAsURuqms/pAfMZP92JHIAxBK5H/iTJmAEs2UOkQMglsgBEEvkAIglcgDEEjkAYoncbP7UBjqyc5sSOQBiidzP/DkLcC1TZRqRAyCWyAEQS+QAiCVyAMQSOQBiidwC/uAGerFn+xI5AGKJ3CH+qAW4inkyk8gBEEvkAIglcmv4PTZ0Ybe2JnIAxBI5AGKJ3FE+EAWcZ5JMJnLLuOiH+uzT7kQOgFgiB0AskQMglsg9wW+MgTPMkPlEbiW/04bK7NAAIgdALJEDIJbIPceVOvAa02MJkVvMpT/UZG9mEDkAYokcALFEbj23IlCNXRlD5J7mt8fAs8yNVUQOgFgiV4K7EajDfkwicgDEErlXuF4HjjMxFhK5KtyQQAV2YhiRAyCWyL3I/QNwhFmxlsgV4p4E4FoiB/CbF808Ivc6txDAY6bEciIHQCyRq8VtCaxi90USOQBiidwpIy7cvU7CfCP2nV/IVSByAMQSuYoc5mAmOy6YyJ3lRgL4zGQoQuQAiCVyRbk/gTnstWwidwH3EsDfzIQ6RK4uL5gwml0WT+QAiCVy1xh0O+E1E8YZtL/cVZYicgDEErnLeH0DzIFqRK46N5Ywgp21CZEDuIZjXEEidyUfP4EW7Kl9iBwAsUTuYg5zUJy/HNiKyAEQS+Su5zAHZTnG7UbkOtE5OMMO2pDIARBL5IYYd3fhVRReM27vuKusTOQAiCVyozjMQR2OcdsSOQBiidxADnNQgWPczkQOgFgiN5bDHKzlGLc5kWtM5+AxewSRG87rHuSxr7sQud68qMJ37A5uIjfH0Jc+Oxk+G7ovHOMaETkAYoncJA5zMI1jHH+IXAidgzt7gb+J3DxeAKE7u7gdkcvhBRZcVPKByE01epPoHDuz/vlM5GbzMggd2blNiVwaL7PsycrnSyK3gEtLuNboNe8Y15fIARBL5NZwmIOrOMbxgMjF0jl2YJ3zmMgtM+H10P4n24QV7hjXncitZP9AZXZoAJEL5zBHKmubI0RuMZeW8AIXlRwkcuvpHDxF4ThO5Hahc2SwknmKyJXgtRHqsB+TiFwVLi3hRy4qeZbI7UXn6Mvq5QUiV8icV0iTgo7mrFvHuDwiV4vOwWcKx8tEblM6RxfWKmeIXDnTXifNDuqbtkod41KJXEU6BzeF4woiB0AskSvKYY7NOcZxCZGrS+fYlsJxFZErTefYkMJxIZHjN52jAuuQa4lcdTNfNs0X1pq5Ah3jNiFyDegcO1A4RhC5HnSObArHICLXhs6RSuEYR+T4ms4xh5XGUCLXyeSXUNOH0SavMce4DYlcMzpHDIVjApHrZ37npI5rzV9UCrctkWtp/o7VOa4yfy0p3M5EjqN0jvMUjslErqslW1fnOMP6YT6Ra0znaGTJynGMQ+R6W9U5qeO4VQtG4biJXIBVO1nnOGLVOlE47kQugc5Rk8KxnMiF0DmqUTgqELkcCzsndXygcBQhclEW7nCd427hS4/C8ZnIpdE5Flq4BhSOL4lcoLWdk7o9rX30Csd33iyOVGtjY11txWKjLJFLtvxQZXXFs8YoznVlsuX7f/kEZKjlz3f5Cqc+J7l8yyfRzTCKY1HRhZNcvgqzoMJM5CoVnmaFVU0Lv1Z/A+ziPhnNptYq5O1mFfEM15W7KDKe7qy6duqsH4uHp4jcRurMqTtrr4VSy8aa4Vkit51SM+tmbNVWarVYKrzAB0+2U21SlBqj/FHtH6+ptm7pwkluU6Xm152lWIS1QRKR21fBWXYzzpayJMgjclurOdRu5tp0VgKpRI66A+5mxg3m0RNP5Ljdag+7m3k3gCfOJkSO34pPvTvL9SRPmd2IHP9pMQFvhuBLPFz2JHL8T5dReGf1/sgDZXMix0e9xuKdZfyBhwh3IsfXOk7J2/aD0lODD0SObzWdmH9ssrY9JnhA5Hik+wD9I2ydey5wkMjxs5iRetd0zXsK8AKR45CwCftBwV3gBw6XEDmekD15P5i2NfxUYRyR4zlbTWSuZdown8jxCqnjKeYMq/ifwXmFmcVxVgsLOclxiiMdDxgvLOckxymmGN+xNqhA5DjLLOOD9/d3q4IiXFdyGVeXmCdU4yTHZby/b87TpyAnOYZwqtuKMUJZIsdAUhfPAKE4kWM4qYtkdNCCyDGJ1MUwNGhE5JhK6lozLmhH5FhA6toxKGhK5FhG6lowImhN5FhM6soyHAggclShdkWYCSQROWqRuoVMA/KIHEWp3TSGAMFEjtKkbijbn3giRw9qdyG7nn2IHM2o3ctsdjYkcjQmeD+ywdmcyJFA7T6wr+FO5EizbfDsZfhM5EgWHzz7Fx4TOTYS0DwbFp4icuyubPnsTThP5OCjJdmzE2EEkQMg1j+rvwEAGEXkAIglcgDEEjkAYokcALFEDoBYIgdALJEDIJbIARBL5ACIJXIAxBI5AGKJHACxRA6AWCIHQCyRAyCWyAEQS+QAiCVyAMQSOQBiiRwAsUQOgFgiB0AskQMglsgBEEvkAIglcgDEEjkAYokcALFEDoBYIgdALJEDIJbIARBL5ACIJXIAxBI5AGKJHACxRA6AWCIHQCyRAyCWyAEQS+QAiCVyAMQSOQBiiRwAsUQOgFgiB0AskQMglsgBEEvkAIglcgDEEjkAYokcALFEDoBYIgdALJEDIJbIARBL5ACIJXIAxBI5AGKJHACxRA6AWCIHQCyRAyCWyAEQS+QAiCVyAMQSOQBiiRwAsUQOgFgiB0AskQMglsgBEEvkAIglcgDEEjkAYokcALFEDoBYIgdALJEDIJbIARBL5ACIJXIAxBI5AGKJHACxRA6AWCIHQCyRAyCWyAEQS+QAiCVyAMQSOQBiiRwAsUQOgFgiB0AskQMglsgBEEvkAIglcgDEEjkAYokcALFEDoBYIgdALJEDIJbIARBL5ACIJXIAxBI5AGKJHACxRA6AWCIHQCyRAyCWyAEQS+QAiCVyAMQSOQBiiRwAsUQOgFgiB0AskQMglsgBEEvkAIglcgDEEjkAYokcALFEDoBYIgdALJEDIJbIARBL5ACIJXIAxBI5AGKJHACxRA6AWCIHQCyRAyCWyAEQS+QAiCVyAMQSOQBiiRwAsUQOgFj/AoJuUm6/vquwAAAAAElFTkSuQmCC;strokeColor=none;labelBackgroundColor=none;rounded=0;html=1;whiteSpace=wrap;" parent="1" vertex="1">
          <mxGeometry x="725" y="1002" width="25" height="27" as="geometry" />
        </mxCell>
        <mxCell id="19" value="&lt;p style=&quot;margin: 0px; text-indent: 0px; direction: ltr; font-size: 18px;&quot;&gt;&lt;font style=&quot;font-size: 18px; font-family: Calibri; color: rgb(0, 0, 0); direction: ltr; letter-spacing: 0px; line-height: 120%; opacity: 1;&quot;&gt;(b) Downlink.&lt;br style=&quot;font-size: 18px;&quot;&gt;&lt;/font&gt;&lt;/p&gt;" style="verticalAlign=middle;align=center;vsdxID=22;fillColor=none;gradientColor=none;shape=stencil(nZBLDoAgDERP0z3SIyjew0SURgSD+Lu9kMZoXLhwN9O+tukAlrNpJg1SzDH4QW/URgNYgZTkjA4UkwJUgGXng+6DX1zLfmoymdXo17xh5zmRJ6Q42BWCfc2oJfdAr+Yv+AP9Cb7OJ3H/2JG1HNGz/84klThPVCc=);strokeColor=none;labelBackgroundColor=none;rounded=0;html=1;whiteSpace=wrap;fontSize=18;" parent="1" vertex="1">
          <mxGeometry x="659" y="1697" width="256" height="28" as="geometry" />
        </mxCell>
        <mxCell id="20" value="&lt;font style=&quot;font-size: 25px; font-family: calibri; color: rgb(0, 0, 0); direction: ltr; letter-spacing: 0px; line-height: 120%; opacity: 1;&quot;&gt;  C(&amp;nbsp; &amp;nbsp; &amp;nbsp; ,&amp;nbsp; &amp;nbsp; &amp;nbsp; &amp;nbsp;,&amp;nbsp; &amp;nbsp; &amp;nbsp; &amp;nbsp;) &lt;br style=&quot;font-size: 25px;&quot;&gt;&lt;/font&gt;" style="verticalAlign=middle;align=center;vsdxID=23;fillColor=none;gradientColor=none;shape=stencil(nZBLDoAgDERP0z3SIyjew0SURgSD+Lu9kMZoXLhwN9O+tukAlrNpJg1SzDH4QW/URgNYgZTkjA4UkwJUgGXng+6DX1zLfmoymdXo17xh5zmRJ6Q42BWCfc2oJfdAr+Yv+AP9Cb7OJ3H/2JG1HNGz/84klThPVCc=);strokeColor=none;labelBackgroundColor=none;rounded=0;html=1;whiteSpace=wrap;fontSize=25;" parent="1" vertex="1">
          <mxGeometry x="711" y="1396" width="440" height="36" as="geometry" />
        </mxCell>
        <mxCell id="21" value="&lt;p style=&quot;margin: 0px; text-indent: 0px; direction: ltr; font-size: 16px;&quot;&gt;&lt;font style=&quot;font-size: 16px; font-family: Calibri; color: rgb(0, 0, 0); direction: ltr; letter-spacing: 0px; line-height: 120%; opacity: 1;&quot;&gt;User 3&lt;br style=&quot;font-size: 16px;&quot;&gt;&lt;/font&gt;&lt;/p&gt;" style="verticalAlign=middle;align=center;vsdxID=24;fillColor=none;gradientColor=none;shape=stencil(nZBLDoAgDERP0z3SIyjew0SURgSD+Lu9kMZoXLhwN9O+tukAlrNpJg1SzDH4QW/URgNYgZTkjA4UkwJUgGXng+6DX1zLfmoymdXo17xh5zmRJ6Q42BWCfc2oJfdAr+Yv+AP9Cb7OJ3H/2JG1HNGz/84klThPVCc=);strokeColor=none;labelBackgroundColor=none;rounded=0;html=1;whiteSpace=wrap;fontSize=16;" parent="1" vertex="1">
          <mxGeometry x="805" y="1143" width="92" height="28" as="geometry" />
        </mxCell>
        <mxCell id="34" value="&lt;p style=&quot;margin: 0px; text-indent: 0px; direction: ltr; font-size: 16px;&quot;&gt;&lt;font style=&quot;font-size: 16px; font-family: Calibri; color: rgb(0, 0, 0); direction: ltr; letter-spacing: 0px; line-height: 120%; opacity: 1;&quot;&gt;User 2&lt;br style=&quot;font-size: 16px;&quot;&gt;&lt;/font&gt;&lt;/p&gt;" style="verticalAlign=middle;align=center;vsdxID=37;fillColor=none;gradientColor=none;shape=stencil(nZBLDoAgDERP0z3SIyjew0SURgSD+Lu9kMZoXLhwN9O+tukAlrNpJg1SzDH4QW/URgNYgZTkjA4UkwJUgGXng+6DX1zLfmoymdXo17xh5zmRJ6Q42BWCfc2oJfdAr+Yv+AP9Cb7OJ3H/2JG1HNGz/84klThPVCc=);strokeColor=none;labelBackgroundColor=none;rounded=0;html=1;whiteSpace=wrap;fontSize=16;" parent="1" vertex="1">
          <mxGeometry x="639" y="1313" width="76" height="28" as="geometry" />
        </mxCell>
        <mxCell id="39" value="&lt;p style=&quot;margin: 0px; text-indent: 0px; direction: ltr; font-size: 16px;&quot;&gt;&lt;font style=&quot;font-size: 16px; font-family: Calibri; color: rgb(0, 0, 0); direction: ltr; letter-spacing: 0px; line-height: 120%; opacity: 1;&quot;&gt;User 1&lt;br style=&quot;font-size: 16px;&quot;&gt;&lt;/font&gt;&lt;/p&gt;" style="verticalAlign=middle;align=center;vsdxID=42;fillColor=none;gradientColor=none;shape=stencil(nZBLDoAgDERP0z3SIyjew0SURgSD+Lu9kMZoXLhwN9O+tukAlrNpJg1SzDH4QW/URgNYgZTkjA4UkwJUgGXng+6DX1zLfmoymdXo17xh5zmRJ6Q42BWCfc2oJfdAr+Yv+AP9Cb7OJ3H/2JG1HNGz/84klThPVCc=);strokeColor=none;labelBackgroundColor=none;rounded=0;html=1;whiteSpace=wrap;fontSize=16;" parent="1" vertex="1">
          <mxGeometry x="671" y="1604" width="92" height="28" as="geometry" />
        </mxCell>
        <mxCell id="44" value="&lt;p style=&quot;margin: 0px; text-indent: 0px; direction: ltr; font-size: 15px;&quot;&gt;&lt;font style=&quot;font-size: 15px; font-family: Calibri; color: rgb(0, 0, 0); direction: ltr; letter-spacing: 0px; line-height: 120%; opacity: 1;&quot;&gt;User 3&lt;br style=&quot;font-size: 15px;&quot;&gt;&lt;/font&gt;&lt;/p&gt;" style="verticalAlign=middle;align=center;vsdxID=47;fillColor=none;gradientColor=none;shape=stencil(nZBLDoAgDERP0z3SIyjew0SURgSD+Lu9kMZoXLhwN9O+tukAlrNpJg1SzDH4QW/URgNYgZTkjA4UkwJUgGXng+6DX1zLfmoymdXo17xh5zmRJ6Q42BWCfc2oJfdAr+Yv+AP9Cb7OJ3H/2JG1HNGz/84klThPVCc=);strokeColor=none;labelBackgroundColor=none;rounded=0;html=1;whiteSpace=wrap;fontSize=15;" parent="1" vertex="1">
          <mxGeometry x="812" y="1602" width="92" height="28" as="geometry" />
        </mxCell>
        <mxCell id="45" style="vsdxID=53;fillColor=#85ca39;gradientColor=#92d050;gradientDirection=north;shape=stencil(vVFBDgIhDHwNRxKE+IJ1/Ufjll0iLpuCLv5eSDWKevLgbaYznTatMF2cYEGhVUwUjri6IU3C7ITWbp6QXCpImF6YzgbCkcJ5HpgvUJ0VncKlJmTuU7VDqyuzLdM9O4EORaLcaIpa7yNoo75GqSwhuygpJEguzM1UDzSiLGOk9TDec1iKK+LyUf5lsf+tVcDzzNZ5z1961d/fUkr8UtPfAA==);strokeColor=#404040;shadow=1;labelBackgroundColor=none;rounded=0;html=1;whiteSpace=wrap;" parent="1" vertex="1">
          <mxGeometry x="973" y="1277" width="20" height="20" as="geometry" />
        </mxCell>
        <mxCell id="46" value="&lt;p style=&quot;align:center;margin-left:0;margin-right:0;margin-top:0px;margin-bottom:0px;text-indent:0;valign:middle;direction:ltr;&quot;&gt;&lt;font style=&quot;font-size:14px;font-family:Calibri;color:#000000;direction:ltr;letter-spacing:0px;line-height:120%;opacity:1&quot;&gt;1&lt;br/&gt;&lt;/font&gt;&lt;/p&gt;" style="text;vsdxID=53;fillColor=none;gradientColor=none;gradientDirection=north;strokeColor=none;shadow=1;labelBackgroundColor=none;rounded=0;html=1;whiteSpace=wrap;verticalAlign=middle;align=center;;html=1;" parent="45" vertex="1">
          <mxGeometry x="1.25" y="2.5" width="17.5" height="15" as="geometry" />
        </mxCell>
        <mxCell id="47" style="vsdxID=54;fillColor=#dd9426;gradientColor=#e1a040;gradientDirection=north;shape=stencil(vVFBDgIhDHwNRxKE+IJ1/Ufjll0iLpuCLv5eSDWKevLgbaYznTatMF2cYEGhVUwUjri6IU3C7ITWbp6QXCpImF6YzgbCkcJ5HpgvUJ0VncKlJmTuU7VDqyuzLdM9O4EORaLcaIpa7yNoo75GqSwhuygpJEguzM1UDzSiLGOk9TDec1iKK+LyUf5lsf+tVcDzzNZ5z1961d/fUkr8UtPfAA==);strokeColor=#404040;shadow=1;labelBackgroundColor=none;rounded=0;html=1;whiteSpace=wrap;" parent="1" vertex="1">
          <mxGeometry x="1002" y="1277" width="20" height="20" as="geometry" />
        </mxCell>
        <mxCell id="48" value="&lt;p style=&quot;align:center;margin-left:0;margin-right:0;margin-top:0px;margin-bottom:0px;text-indent:0;valign:middle;direction:ltr;&quot;&gt;&lt;font style=&quot;font-size:14px;font-family:Calibri;color:#000000;direction:ltr;letter-spacing:0px;line-height:120%;opacity:1&quot;&gt;2&lt;br/&gt;&lt;/font&gt;&lt;/p&gt;" style="text;vsdxID=54;fillColor=none;gradientColor=none;gradientDirection=north;strokeColor=none;shadow=1;labelBackgroundColor=none;rounded=0;html=1;whiteSpace=wrap;verticalAlign=middle;align=center;;html=1;" parent="47" vertex="1">
          <mxGeometry x="1.25" y="2.5" width="17.5" height="15" as="geometry" />
        </mxCell>
        <mxCell id="49" style="vsdxID=55;fillColor=#77c1d5;gradientColor=#4bacc6;gradientDirection=north;shape=stencil(vVFBDgIhDHwNRxKE+IJ1/Ufjll0iLpuCLv5eSDWKevLgbaYznTatMF2cYEGhVUwUjri6IU3C7ITWbp6QXCpImF6YzgbCkcJ5HpgvUJ0VncKlJmTuU7VDqyuzLdM9O4EORaLcaIpa7yNoo75GqSwhuygpJEguzM1UDzSiLGOk9TDec1iKK+LyUf5lsf+tVcDzzNZ5z1961d/fUkr8UtPfAA==);strokeColor=#404040;shadow=1;labelBackgroundColor=none;rounded=0;html=1;whiteSpace=wrap;" parent="1" vertex="1">
          <mxGeometry x="1031" y="1277" width="20" height="20" as="geometry" />
        </mxCell>
        <mxCell id="50" value="&lt;font style=&quot;font-size:14px;font-family:Calibri;color:#000000;direction:ltr;letter-spacing:0px;line-height:120%;opacity:1&quot;&gt;3&lt;br/&gt;&lt;/font&gt;" style="text;vsdxID=55;fillColor=none;gradientColor=none;gradientDirection=north;strokeColor=none;shadow=1;labelBackgroundColor=none;rounded=0;html=1;whiteSpace=wrap;verticalAlign=middle;align=center;;html=1;" parent="49" vertex="1">
          <mxGeometry x="1.25" y="2.5" width="17.5" height="15" as="geometry" />
        </mxCell>
        <mxCell id="51" style="vsdxID=56;fillColor=none;gradientColor=none;shape=stencil(vVFBDgIhDHwNRxKE+IJ1/Ufjll0iLpuCLv5eSDWKevLgbaYznTatMF2cYEGhVUwUjri6IU3C7ITWbp6QXCpImF6YzgbCkcJ5HpgvUJ0VncKlJmTuU7VDqyuzLdM9O4EORaLcaIpa7yNoo75GqSwhuygpJEguzM1UDzSiLGOk9TDec1iKK+LyUf5lsf+tVcDzzNZ5z1961d/fUkr8UtPfAA==);strokeColor=#404040;shadow=1;labelBackgroundColor=none;rounded=0;html=1;whiteSpace=wrap;" parent="1" vertex="1">
          <mxGeometry x="553" y="1535" width="76" height="35" as="geometry" />
        </mxCell>
        <mxCell id="52" style="vsdxID=57;fillColor=none;gradientColor=none;shape=stencil(vVFBDgIhDHwNRxKE+IJ1/Ufjll0iLpuCLv5eSDWKevLgbaYznTatMF2cYEGhVUwUjri6IU3C7ITWbp6QXCpImF6YzgbCkcJ5HpgvUJ0VncKlJmTuU7VDqyuzLdM9O4EORaLcaIpa7yNoo75GqSwhuygpJEguzM1UDzSiLGOk9TDec1iKK+LyUf5lsf+tVcDzzNZ5z1961d/fUkr8UtPfAA==);strokeColor=#404040;shadow=1;labelBackgroundColor=none;rounded=0;html=1;whiteSpace=wrap;" parent="1" vertex="1">
          <mxGeometry x="551" y="1578" width="80" height="35" as="geometry" />
        </mxCell>
        <mxCell id="53" value="&lt;p style=&quot;margin: 0px; text-indent: 0px; direction: ltr; font-size: 18px;&quot;&gt;&lt;font style=&quot;font-size: 18px; font-family: Calibri; color: rgb(0, 0, 0); direction: ltr; letter-spacing: 0px; line-height: 120%; opacity: 1;&quot;&gt;Local Training&lt;br style=&quot;font-size: 18px;&quot;&gt;&lt;/font&gt;&lt;/p&gt;" style="verticalAlign=middle;align=center;vsdxID=60;fillColor=none;gradientColor=none;shape=stencil(nZBLDoAgDERP0z3SIyjew0SURgSD+Lu9kMZoXLhwN9O+tukAlrNpJg1SzDH4QW/URgNYgZTkjA4UkwJUgGXng+6DX1zLfmoymdXo17xh5zmRJ6Q42BWCfc2oJfdAr+Yv+AP9Cb7OJ3H/2JG1HNGz/84klThPVCc=);strokeColor=#000000;shadow=1;labelBackgroundColor=none;rounded=0;html=1;whiteSpace=wrap;fontSize=18;" parent="1" vertex="1">
          <mxGeometry x="751" y="638" width="120" height="50" as="geometry" />
        </mxCell>
        <mxCell id="54" value="&lt;font style=&quot;font-size: 18px ; font-family: &amp;#34;calibri&amp;#34; ; color: rgb(0 , 0 , 0) ; direction: ltr ; letter-spacing: 0px ; line-height: 120% ; opacity: 1&quot;&gt;  2&amp;nbsp; &amp;nbsp; &amp;nbsp; &amp;nbsp; &amp;nbsp; 3&lt;br style=&quot;font-size: 18px&quot;&gt;&lt;/font&gt;" style="verticalAlign=middle;align=center;vsdxID=61;fillColor=none;gradientColor=none;shape=stencil(nZBLDoAgDERP0z3SIyjew0SURgSD+Lu9kMZoXLhwN9O+tukAlrNpJg1SzDH4QW/URgNYgZTkjA4UkwJUgGXng+6DX1zLfmoymdXo17xh5zmRJ6Q42BWCfc2oJfdAr+Yv+AP9Cb7OJ3H/2JG1HNGz/84klThPVCc=);strokeColor=none;labelBackgroundColor=none;rounded=0;html=1;whiteSpace=wrap;fontSize=18;" parent="1" vertex="1">
          <mxGeometry x="738" y="601" width="155" height="20" as="geometry" />
        </mxCell>
        <mxCell id="259" style="vsdxID=62;edgeStyle=none;startArrow=open;endArrow=none;startSize=5;endSize=5;strokeColor=#404040;shadow=1;spacingTop=0;spacingBottom=0;spacingLeft=0;spacingRight=0;verticalAlign=middle;html=1;labelBackgroundColor=#FFFFFF;rounded=0;" parent="1" edge="1">
          <mxGeometry relative="1" as="geometry">
            <Array as="points" />
            <mxPoint x="779" y="637" as="sourcePoint" />
            <mxPoint x="780" y="621" as="targetPoint" />
          </mxGeometry>
        </mxCell>
        <mxCell id="55" value="&lt;font style=&quot;font-size: 16px; font-family: Calibri; color: rgb(0, 0, 0); direction: ltr; letter-spacing: 0px; line-height: 120%; opacity: 1;&quot;&gt;Has&lt;br style=&quot;font-size: 16px;&quot;&gt;&lt;/font&gt;" style="verticalAlign=middle;align=center;vsdxID=63;fillColor=none;gradientColor=none;shape=stencil(nZBLDoAgDERP0z3SIyjew0SURgSD+Lu9kMZoXLhwN9O+tukAlrNpJg1SzDH4QW/URgNYgZTkjA4UkwJUgGXng+6DX1zLfmoymdXo17xh5zmRJ6Q42BWCfc2oJfdAr+Yv+AP9Cb7OJ3H/2JG1HNGz/84klThPVCc=);strokeColor=none;labelBackgroundColor=none;rounded=0;html=1;whiteSpace=wrap;fontSize=16;" parent="1" vertex="1">
          <mxGeometry x="683" y="711" width="68" height="28" as="geometry" />
        </mxCell>
        <mxCell id="262" style="vsdxID=67;edgeStyle=none;startArrow=open;endArrow=none;startSize=5;endSize=5;strokeColor=#404040;shadow=1;spacingTop=0;spacingBottom=0;spacingLeft=0;spacingRight=0;verticalAlign=middle;html=1;labelBackgroundColor=#FFFFFF;rounded=0;" parent="1" edge="1">
          <mxGeometry relative="1" as="geometry">
            <Array as="points" />
            <mxPoint x="779" y="703" as="sourcePoint" />
            <mxPoint x="779" y="690" as="targetPoint" />
          </mxGeometry>
        </mxCell>
        <mxCell id="261" style="vsdxID=66;edgeStyle=none;startArrow=open;endArrow=none;startSize=5;endSize=5;strokeColor=#404040;shadow=1;spacingTop=0;spacingBottom=0;spacingLeft=0;spacingRight=0;verticalAlign=middle;html=1;labelBackgroundColor=#FFFFFF;rounded=0;" parent="1" edge="1">
          <mxGeometry relative="1" as="geometry">
            <Array as="points" />
            <mxPoint x="850" y="637" as="sourcePoint" />
            <mxPoint x="851" y="621" as="targetPoint" />
          </mxGeometry>
        </mxCell>
        <mxCell id="264" style="vsdxID=74;edgeStyle=none;startArrow=open;endArrow=none;startSize=5;endSize=5;strokeColor=#404040;shadow=1;spacingTop=0;spacingBottom=0;spacingLeft=0;spacingRight=0;verticalAlign=middle;html=1;labelBackgroundColor=#FFFFFF;rounded=0;" parent="1" edge="1">
          <mxGeometry relative="1" as="geometry">
            <Array as="points" />
            <mxPoint x="843" y="703" as="sourcePoint" />
            <mxPoint x="843" y="690" as="targetPoint" />
          </mxGeometry>
        </mxCell>
        <mxCell id="263" value="" style="vsdxID=71;edgeStyle=none;startArrow=open;endArrow=none;startSize=5;endSize=5;strokeColor=#404040;shadow=1;spacingTop=0;spacingBottom=0;spacingLeft=0;spacingRight=0;verticalAlign=middle;html=1;labelBackgroundColor=#FFFFFF;rounded=0;align=center;" parent="1" edge="1">
          <mxGeometry relative="1" as="geometry">
            <mxPoint as="offset" />
            <Array as="points" />
            <mxPoint x="859" y="695" as="sourcePoint" />
            <mxPoint x="859" y="695" as="targetPoint" />
          </mxGeometry>
        </mxCell>
        <mxCell id="260" value="" style="vsdxID=65;edgeStyle=none;startArrow=open;endArrow=none;startSize=5;endSize=5;strokeColor=#404040;shadow=1;spacingTop=0;spacingBottom=0;spacingLeft=0;spacingRight=0;verticalAlign=middle;html=1;labelBackgroundColor=#FFFFFF;rounded=0;align=center;" parent="1" edge="1">
          <mxGeometry relative="1" as="geometry">
            <mxPoint as="offset" />
            <Array as="points" />
            <mxPoint x="811" y="689" as="sourcePoint" />
            <mxPoint x="811" y="689" as="targetPoint" />
          </mxGeometry>
        </mxCell>
        <mxCell id="56" value="&lt;font style=&quot;font-size: 16px; font-family: Calibri; color: rgb(0, 0, 0); direction: ltr; letter-spacing: 0px; line-height: 120%; opacity: 1;&quot;&gt;Needs&lt;br style=&quot;font-size: 16px;&quot;&gt;&lt;/font&gt;" style="verticalAlign=middle;align=center;vsdxID=64;fillColor=none;gradientColor=none;shape=stencil(nZBLDoAgDERP0z3SIyjew0SURgSD+Lu9kMZoXLhwN9O+tukAlrNpJg1SzDH4QW/URgNYgZTkjA4UkwJUgGXng+6DX1zLfmoymdXo17xh5zmRJ6Q42BWCfc2oJfdAr+Yv+AP9Cb7OJ3H/2JG1HNGz/84klThPVCc=);strokeColor=none;labelBackgroundColor=none;rounded=0;html=1;whiteSpace=wrap;fontSize=16;" parent="1" vertex="1">
          <mxGeometry x="685" y="781" width="68" height="28" as="geometry" />
        </mxCell>
        <mxCell id="58" style="vsdxID=69;fillColor=#85ca39;gradientColor=#92d050;gradientDirection=north;shape=stencil(vVFBDgIhDHwNRxKE+IJ1/Ufjll0iLpuCLv5eSDWKevLgbaYznTatMF2cYEGhVUwUjri6IU3C7ITWbp6QXCpImF6YzgbCkcJ5HpgvUJ0VncKlJmTuU7VDqyuzLdM9O4EORaLcaIpa7yNoo75GqSwhuygpJEguzM1UDzSiLGOk9TDec1iKK+LyUf5lsf+tVcDzzNZ5z1961d/fUkr8UtPfAA==);strokeColor=#404040;shadow=1;labelBackgroundColor=none;rounded=0;html=1;whiteSpace=wrap;" parent="1" vertex="1">
          <mxGeometry x="765" y="784" width="20" height="20" as="geometry" />
        </mxCell>
        <mxCell id="59" value="&lt;font style=&quot;font-size:16px;font-family:Calibri;color:#000000;direction:ltr;letter-spacing:0px;line-height:120%;opacity:1&quot;&gt;1&lt;br/&gt;&lt;/font&gt;" style="text;vsdxID=69;fillColor=none;gradientColor=none;gradientDirection=north;strokeColor=none;shadow=1;labelBackgroundColor=none;rounded=0;html=1;whiteSpace=wrap;verticalAlign=middle;align=center;;html=1;" parent="58" vertex="1">
          <mxGeometry x="1.25" y="2.5" width="17.5" height="15" as="geometry" />
        </mxCell>
        <mxCell id="60" style="vsdxID=70;fillColor=#77c1d5;gradientColor=#4bacc6;gradientDirection=north;shape=stencil(vVFBDgIhDHwNRxKE+IJ1/Ufjll0iLpuCLv5eSDWKevLgbaYznTatMF2cYEGhVUwUjri6IU3C7ITWbp6QXCpImF6YzgbCkcJ5HpgvUJ0VncKlJmTuU7VDqyuzLdM9O4EORaLcaIpa7yNoo75GqSwhuygpJEguzM1UDzSiLGOk9TDec1iKK+LyUf5lsf+tVcDzzNZ5z1961d/fUkr8UtPfAA==);strokeColor=#4bacc6;shadow=1;labelBackgroundColor=none;rounded=0;html=1;whiteSpace=wrap;" parent="1" vertex="1">
          <mxGeometry x="833" y="705" width="20" height="20" as="geometry" />
        </mxCell>
        <mxCell id="61" value="&lt;p style=&quot;align:center;margin-left:0;margin-right:0;margin-top:0px;margin-bottom:0px;text-indent:0;valign:middle;direction:ltr;&quot;&gt;&lt;font style=&quot;font-size:16px;font-family:Calibri;color:#000000;direction:ltr;letter-spacing:0px;line-height:120%;opacity:1&quot;&gt;3&lt;br/&gt;&lt;/font&gt;&lt;/p&gt;" style="text;vsdxID=70;fillColor=none;gradientColor=none;gradientDirection=north;strokeColor=none;shadow=1;labelBackgroundColor=none;rounded=0;html=1;whiteSpace=wrap;verticalAlign=middle;align=center;;html=1;" parent="60" vertex="1">
          <mxGeometry x="1.25" y="2.5" width="17.5" height="15" as="geometry" />
        </mxCell>
        <mxCell id="63" value="" style="verticalAlign=middle;align=center;vsdxID=76;fillColor=#e1a040;gradientColor=none;shape=stencil(tVFBDsIgEHwNRxKE+IJa/0Hstt2I0Cxo298L2SZKvRgTbzM7s+yEEaaJo51AaBUThSvM2KVRmJPQGv0IhCkjYVphmj4QDBTuvmM+2eIs6BYe5YWF91TZ0GpldlDMz2y1dMkaLbWoaHMfN77X97K0C0ZJIdmEwVd3naUBZL4je2eHSoozwPQx/ilZneuPsRz6b/82g1cnPTrHlb7r+w7ziPs37RM=);strokeColor=#1f477d;labelBackgroundColor=#ffffff;rounded=0;html=1;whiteSpace=wrap;" parent="1" vertex="1">
          <mxGeometry x="789" y="737" width="10" height="20" as="geometry" />
        </mxCell>
        <mxCell id="64" value="&lt;font style=&quot;font-size:14px;font-family:Calibri;color:#000000;direction:ltr;letter-spacing:0px;line-height:120%;opacity:1&quot;&gt;2&lt;br/&gt;&lt;/font&gt;" style="verticalAlign=middle;align=center;vsdxID=77;fillColor=none;gradientColor=none;shape=stencil(nZBLDoAgDERP0z3SIyjew0SURgSD+Lu9kMZoXLhwN9O+tukAlrNpJg1SzDH4QW/URgNYgZTkjA4UkwJUgGXng+6DX1zLfmoymdXo17xh5zmRJ6Q42BWCfc2oJfdAr+Yv+AP9Cb7OJ3H/2JG1HNGz/84klThPVCc=);strokeColor=none;labelBackgroundColor=none;rounded=0;html=1;whiteSpace=wrap;" parent="1" vertex="1">
          <mxGeometry x="786" y="735" width="14" height="22" as="geometry" />
        </mxCell>
        <mxCell id="65" style="vsdxID=78;fillColor=#4bacc6;gradientColor=none;shape=stencil(tZLRDsIgDEW/hkcShPgFc/5H47qtEWEpqPPvhbDEMaMPJr7d9p4LDUWYJowwodAqRPZnvFMXR2EOQmtyIzLFpIRphWl6zziwv7qu1BNkMquLv+UT5pLbKZUzWj3q+lhgS+4LXKHAp+TwFuWF3S/1vI6qrSlhpiDZR4jkXYVa4AFlukX2FobKCnfE6a3901yf3uMvoyXx2ktP1pa1rv3tHlOr/AHTPgE=);strokeColor=#1f477d;labelBackgroundColor=#ffffff;rounded=0;html=1;whiteSpace=wrap;" parent="1" vertex="1">
          <mxGeometry x="823" y="737" width="10" height="20" as="geometry" />
        </mxCell>
        <mxCell id="66" style="vsdxID=79;fillColor=#77c1d5;gradientColor=#4bacc6;gradientDirection=north;shape=stencil(tVFBDsIgEHwNRxKE+IJa/0Hstt2I0Cxo298L2SZKvRgTbzM7s+yEEaaJo51AaBUThSvM2KVRmJPQGv0IhCkjYVphmj4QDBTuvmM+2eIs6BYe5YWF91TZ0GpldlDMz2y1dMkaLbWoaHMfN77X97K0C0ZJIdmEwVd3naUBZL4je2eHSoozwPQx/ilZneuPsRz6b/82g1cnPTrHlb7r+w7ziPs37RM=);strokeColor=#404040;labelBackgroundColor=#ffffff;rounded=0;html=1;whiteSpace=wrap;" parent="1" vertex="1">
          <mxGeometry x="854" y="737" width="10" height="20" as="geometry" />
        </mxCell>
        <mxCell id="67" style="vsdxID=80;fillColor=#dd9426;gradientColor=#e1a040;gradientDirection=north;shape=stencil(vVFBDgIhDHwNRxKE+IJ1/Ufjll0iLpuCLv5eSDWKevLgbaYznTatMF2cYEGhVUwUjri6IU3C7ITWbp6QXCpImF6YzgbCkcJ5HpgvUJ0VncKlJmTuU7VDqyuzLdM9O4EORaLcaIpa7yNoo75GqSwhuygpJEguzM1UDzSiLGOk9TDec1iKK+LyUf5lsf+tVcDzzNZ5z1961d/fUkr8UtPfAA==);strokeColor=#404040;shadow=1;labelBackgroundColor=none;rounded=0;html=1;whiteSpace=wrap;" parent="1" vertex="1">
          <mxGeometry x="769" y="704" width="20" height="20" as="geometry" />
        </mxCell>
        <mxCell id="68" value="&lt;p style=&quot;align:center;margin-left:0;margin-right:0;margin-top:0px;margin-bottom:0px;text-indent:0;valign:middle;direction:ltr;&quot;&gt;&lt;font style=&quot;font-size:16px;font-family:Calibri;color:#000000;direction:ltr;letter-spacing:0px;line-height:120%;opacity:1&quot;&gt;2&lt;br/&gt;&lt;/font&gt;&lt;/p&gt;" style="text;vsdxID=80;fillColor=none;gradientColor=none;gradientDirection=north;strokeColor=none;shadow=1;labelBackgroundColor=none;rounded=0;html=1;whiteSpace=wrap;verticalAlign=middle;align=center;;html=1;" parent="67" vertex="1">
          <mxGeometry x="1.25" y="2.5" width="17.5" height="15" as="geometry" />
        </mxCell>
        <mxCell id="69" style="vsdxID=83;fillColor=#dd9426;gradientColor=#e1a040;gradientDirection=north;shape=stencil(tZLRDsIgDEW/hkcShPgFc/5H47qtEWEpqPPvhbDEMaMPJr7d9p4LDUWYJowwodAqRPZnvFMXR2EOQmtyIzLFpIRphWl6zziwv7qu1BNkMquLv+UT5pLbKZUzWj3q+lhgS+4LXKHAp+TwFuWF3S/1vI6qrSlhpiDZR4jkXYVa4AFlukX2FobKCnfE6a3901yf3uMvoyXx2ktP1pa1rv3tHlOr/AHTPgE=);strokeColor=#404040;labelBackgroundColor=#ffffff;rounded=0;html=1;whiteSpace=wrap;" parent="1" vertex="1">
          <mxGeometry x="759" y="737" width="10" height="20" as="geometry" />
        </mxCell>
        <mxCell id="70" value="&lt;font style=&quot;font-size:14px;font-family:Calibri;color:#000000;direction:ltr;letter-spacing:0px;line-height:120%;opacity:1&quot;&gt;2&lt;br/&gt;&lt;/font&gt;" style="verticalAlign=middle;align=center;vsdxID=84;fillColor=none;gradientColor=none;shape=stencil(nZBLDoAgDERP0z3SIyjew0SURgSD+Lu9kMZoXLhwN9O+tukAlrNpJg1SzDH4QW/URgNYgZTkjA4UkwJUgGXng+6DX1zLfmoymdXo17xh5zmRJ6Q42BWCfc2oJfdAr+Yv+AP9Cb7OJ3H/2JG1HNGz/84klThPVCc=);strokeColor=none;labelBackgroundColor=none;rounded=0;html=1;whiteSpace=wrap;" parent="1" vertex="1">
          <mxGeometry x="759" y="742" width="12" height="8" as="geometry" />
        </mxCell>
        <mxCell id="71" value="&lt;font style=&quot;font-size:14px;font-family:Calibri;color:#000000;direction:ltr;letter-spacing:0px;line-height:120%;opacity:1&quot;&gt;3&lt;br/&gt;&lt;/font&gt;" style="verticalAlign=middle;align=center;vsdxID=85;fillColor=none;gradientColor=none;shape=stencil(nZBLDoAgDERP0z3SIyjew0SURgSD+Lu9kMZoXLhwN9O+tukAlrNpJg1SzDH4QW/URgNYgZTkjA4UkwJUgGXng+6DX1zLfmoymdXo17xh5zmRJ6Q42BWCfc2oJfdAr+Yv+AP9Cb7OJ3H/2JG1HNGz/84klThPVCc=);strokeColor=none;labelBackgroundColor=none;rounded=0;html=1;whiteSpace=wrap;" parent="1" vertex="1">
          <mxGeometry x="820" y="739" width="16" height="13" as="geometry" />
        </mxCell>
        <mxCell id="72" value="&lt;font style=&quot;font-size:14px;font-family:Calibri;color:#000000;direction:ltr;letter-spacing:0px;line-height:120%;opacity:1&quot;&gt;3&lt;br/&gt;&lt;/font&gt;" style="verticalAlign=middle;align=center;vsdxID=86;fillColor=none;gradientColor=none;shape=stencil(nZBLDoAgDERP0z3SIyjew0SURgSD+Lu9kMZoXLhwN9O+tukAlrNpJg1SzDH4QW/URgNYgZTkjA4UkwJUgGXng+6DX1zLfmoymdXo17xh5zmRJ6Q42BWCfc2oJfdAr+Yv+AP9Cb7OJ3H/2JG1HNGz/84klThPVCc=);strokeColor=none;labelBackgroundColor=none;rounded=0;html=1;whiteSpace=wrap;" parent="1" vertex="1">
          <mxGeometry x="851" y="739" width="16" height="13" as="geometry" />
        </mxCell>
        <mxCell id="73" style="vsdxID=87;fillColor=#85ca39;gradientColor=#92d050;gradientDirection=north;shape=stencil(tZLRDsIgDEW/hkcShPgFc/5H47qtEWEpqPPvhbDEMaMPJr7d9p4LDUWYJowwodAqRPZnvFMXR2EOQmtyIzLFpIRphWl6zziwv7qu1BNkMquLv+UT5pLbKZUzWj3q+lhgS+4LXKHAp+TwFuWF3S/1vI6qrSlhpiDZR4jkXYVa4AFlukX2FobKCnfE6a3901yf3uMvoyXx2ktP1pa1rv3tHlOr/AHTPgE=);strokeColor=#404040;labelBackgroundColor=#ffffff;rounded=0;html=1;whiteSpace=wrap;" parent="1" vertex="1">
          <mxGeometry x="808" y="785" width="10" height="20" as="geometry" />
        </mxCell>
        <mxCell id="74" value="" style="verticalAlign=middle;align=center;vsdxID=88;fillColor=#85ca39;gradientColor=#92d050;gradientDirection=north;shape=stencil(tVFBDsIgEHwNRxKE+IJa/0Hstt2I0Cxo298L2SZKvRgTbzM7s+yEEaaJo51AaBUThSvM2KVRmJPQGv0IhCkjYVphmj4QDBTuvmM+2eIs6BYe5YWF91TZ0GpldlDMz2y1dMkaLbWoaHMfN77X97K0C0ZJIdmEwVd3naUBZL4je2eHSoozwPQx/ilZneuPsRz6b/82g1cnPTrHlb7r+w7ziPs37RM=);strokeColor=#404040;labelBackgroundColor=#ffffff;rounded=0;html=1;whiteSpace=wrap;" parent="1" vertex="1">
          <mxGeometry x="841" y="785" width="10" height="20" as="geometry" />
        </mxCell>
        <mxCell id="265" style="vsdxID=98;edgeStyle=none;startArrow=open;endArrow=none;startSize=5;endSize=5;strokeColor=#404040;shadow=1;spacingTop=0;spacingBottom=0;spacingLeft=0;spacingRight=0;verticalAlign=middle;html=1;labelBackgroundColor=#FFFFFF;rounded=0;" parent="1" edge="1">
          <mxGeometry relative="1" as="geometry">
            <Array as="points" />
            <mxPoint x="1009" y="975" as="sourcePoint" />
            <mxPoint x="1010" y="959" as="targetPoint" />
          </mxGeometry>
        </mxCell>
        <mxCell id="75" value="&lt;font style=&quot;font-size:14px;font-family:Calibri;color:#000000;direction:ltr;letter-spacing:0px;line-height:120%;opacity:1&quot;&gt;1&lt;br/&gt;&lt;/font&gt;" style="verticalAlign=middle;align=center;vsdxID=89;fillColor=none;gradientColor=none;shape=stencil(nZBLDoAgDERP0z3SIyjew0SURgSD+Lu9kMZoXLhwN9O+tukAlrNpJg1SzDH4QW/URgNYgZTkjA4UkwJUgGXng+6DX1zLfmoymdXo17xh5zmRJ6Q42BWCfc2oJfdAr+Yv+AP9Cb7OJ3H/2JG1HNGz/84klThPVCc=);strokeColor=none;labelBackgroundColor=none;rounded=0;html=1;whiteSpace=wrap;" parent="1" vertex="1">
          <mxGeometry x="805" y="788" width="17" height="11" as="geometry" />
        </mxCell>
        <mxCell id="268" style="vsdxID=103;edgeStyle=none;startArrow=open;endArrow=none;startSize=5;endSize=5;strokeColor=#404040;shadow=1;spacingTop=0;spacingBottom=0;spacingLeft=0;spacingRight=0;verticalAlign=middle;html=1;labelBackgroundColor=#FFFFFF;rounded=0;" parent="1" edge="1">
          <mxGeometry relative="1" as="geometry">
            <Array as="points" />
            <mxPoint x="1009" y="1041" as="sourcePoint" />
            <mxPoint x="1009" y="1027" as="targetPoint" />
          </mxGeometry>
        </mxCell>
        <mxCell id="267" style="vsdxID=102;edgeStyle=none;startArrow=open;endArrow=none;startSize=5;endSize=5;strokeColor=#404040;shadow=1;spacingTop=0;spacingBottom=0;spacingLeft=0;spacingRight=0;verticalAlign=middle;html=1;labelBackgroundColor=#FFFFFF;rounded=0;" parent="1" edge="1">
          <mxGeometry relative="1" as="geometry">
            <Array as="points" />
            <mxPoint x="1080" y="975" as="sourcePoint" />
            <mxPoint x="1081" y="959" as="targetPoint" />
          </mxGeometry>
        </mxCell>
        <mxCell id="270" style="vsdxID=110;edgeStyle=none;startArrow=open;endArrow=none;startSize=5;endSize=5;strokeColor=#404040;shadow=1;spacingTop=0;spacingBottom=0;spacingLeft=0;spacingRight=0;verticalAlign=middle;html=1;labelBackgroundColor=#FFFFFF;rounded=0;" parent="1" edge="1">
          <mxGeometry relative="1" as="geometry">
            <Array as="points" />
            <mxPoint x="1073" y="1041" as="sourcePoint" />
            <mxPoint x="1073" y="1027" as="targetPoint" />
          </mxGeometry>
        </mxCell>
        <mxCell id="269" value="" style="vsdxID=107;edgeStyle=none;startArrow=open;endArrow=none;startSize=5;endSize=5;strokeColor=#404040;shadow=1;spacingTop=0;spacingBottom=0;spacingLeft=0;spacingRight=0;verticalAlign=middle;html=1;labelBackgroundColor=#FFFFFF;rounded=0;align=center;" parent="1" edge="1">
          <mxGeometry relative="1" as="geometry">
            <mxPoint as="offset" />
            <Array as="points" />
            <mxPoint x="1089" y="1033" as="sourcePoint" />
            <mxPoint x="1089" y="1033" as="targetPoint" />
          </mxGeometry>
        </mxCell>
        <mxCell id="266" value="" style="vsdxID=101;edgeStyle=none;startArrow=open;endArrow=none;startSize=5;endSize=5;strokeColor=#404040;shadow=1;spacingTop=0;spacingBottom=0;spacingLeft=0;spacingRight=0;verticalAlign=middle;html=1;labelBackgroundColor=#FFFFFF;rounded=0;align=center;" parent="1" edge="1">
          <mxGeometry relative="1" as="geometry">
            <mxPoint as="offset" />
            <Array as="points" />
            <mxPoint x="1041" y="1026" as="sourcePoint" />
            <mxPoint x="1041" y="1026" as="targetPoint" />
          </mxGeometry>
        </mxCell>
        <mxCell id="76" value="&lt;font style=&quot;font-size:14px;font-family:Calibri;color:#000000;direction:ltr;letter-spacing:0px;line-height:120%;opacity:1&quot;&gt;1&lt;br/&gt;&lt;/font&gt;" style="verticalAlign=middle;align=center;vsdxID=90;fillColor=none;gradientColor=none;shape=stencil(nZBLDoAgDERP0z3SIyjew0SURgSD+Lu9kMZoXLhwN9O+tukAlrNpJg1SzDH4QW/URgNYgZTkjA4UkwJUgGXng+6DX1zLfmoymdXo17xh5zmRJ6Q42BWCfc2oJfdAr+Yv+AP9Cb7OJ3H/2JG1HNGz/84klThPVCc=);strokeColor=none;labelBackgroundColor=none;rounded=0;html=1;whiteSpace=wrap;" parent="1" vertex="1">
          <mxGeometry x="837" y="788" width="17" height="11" as="geometry" />
        </mxCell>
        <mxCell id="81" value="&lt;p style=&quot;margin: 0px; text-indent: 0px; direction: ltr; font-size: 16px;&quot;&gt;&lt;font style=&quot;font-size: 16px; font-family: Calibri; color: rgb(0, 0, 0); direction: ltr; letter-spacing: 0px; line-height: 120%; opacity: 1;&quot;&gt;User 2&lt;br style=&quot;font-size: 16px;&quot;&gt;&lt;/font&gt;&lt;/p&gt;" style="verticalAlign=middle;align=center;vsdxID=95;fillColor=none;gradientColor=none;shape=stencil(nZBLDoAgDERP0z3SIyjew0SURgSD+Lu9kMZoXLhwN9O+tukAlrNpJg1SzDH4QW/URgNYgZTkjA4UkwJUgGXng+6DX1zLfmoymdXo17xh5zmRJ6Q42BWCfc2oJfdAr+Yv+AP9Cb7OJ3H/2JG1HNGz/84klThPVCc=);strokeColor=none;labelBackgroundColor=none;rounded=0;html=1;whiteSpace=wrap;fontSize=16;" parent="1" vertex="1">
          <mxGeometry x="576" y="811" width="92" height="28" as="geometry" />
        </mxCell>
        <mxCell id="82" value="&lt;p style=&quot;margin: 0px; text-indent: 0px; direction: ltr; font-size: 18px;&quot;&gt;&lt;font style=&quot;font-size: 18px; font-family: Calibri; color: rgb(0, 0, 0); direction: ltr; letter-spacing: 0px; line-height: 120%; opacity: 1;&quot;&gt;Local Training&lt;br style=&quot;font-size: 18px;&quot;&gt;&lt;/font&gt;&lt;/p&gt;" style="verticalAlign=middle;align=center;vsdxID=96;fillColor=none;gradientColor=none;shape=stencil(nZBLDoAgDERP0z3SIyjew0SURgSD+Lu9kMZoXLhwN9O+tukAlrNpJg1SzDH4QW/URgNYgZTkjA4UkwJUgGXng+6DX1zLfmoymdXo17xh5zmRJ6Q42BWCfc2oJfdAr+Yv+AP9Cb7OJ3H/2JG1HNGz/84klThPVCc=);strokeColor=#000000;shadow=1;labelBackgroundColor=none;rounded=0;html=1;whiteSpace=wrap;fontSize=18;" parent="1" vertex="1">
          <mxGeometry x="981" y="976" width="120" height="50" as="geometry" />
        </mxCell>
        <mxCell id="83" value="&lt;font style=&quot;font-size: 18px; font-family: calibri; color: rgb(0, 0, 0); direction: ltr; letter-spacing: 0px; line-height: 120%; opacity: 1;&quot;&gt;  3&amp;nbsp; &amp;nbsp; &amp;nbsp; &amp;nbsp; &amp;nbsp; 1&lt;br style=&quot;font-size: 18px;&quot;&gt;&lt;/font&gt;" style="verticalAlign=middle;align=center;vsdxID=97;fillColor=none;gradientColor=none;shape=stencil(nZBLDoAgDERP0z3SIyjew0SURgSD+Lu9kMZoXLhwN9O+tukAlrNpJg1SzDH4QW/URgNYgZTkjA4UkwJUgGXng+6DX1zLfmoymdXo17xh5zmRJ6Q42BWCfc2oJfdAr+Yv+AP9Cb7OJ3H/2JG1HNGz/84klThPVCc=);strokeColor=none;labelBackgroundColor=none;rounded=0;html=1;whiteSpace=wrap;fontSize=18;" parent="1" vertex="1">
          <mxGeometry x="966" y="939" width="155" height="20" as="geometry" />
        </mxCell>
        <mxCell id="84" value="&lt;font style=&quot;font-size: 16px; font-family: Calibri; color: rgb(0, 0, 0); direction: ltr; letter-spacing: 0px; line-height: 120%; opacity: 1;&quot;&gt;Has&lt;br style=&quot;font-size: 16px;&quot;&gt;&lt;/font&gt;" style="verticalAlign=middle;align=center;vsdxID=99;fillColor=none;gradientColor=none;shape=stencil(nZBLDoAgDERP0z3SIyjew0SURgSD+Lu9kMZoXLhwN9O+tukAlrNpJg1SzDH4QW/URgNYgZTkjA4UkwJUgGXng+6DX1zLfmoymdXo17xh5zmRJ6Q42BWCfc2oJfdAr+Yv+AP9Cb7OJ3H/2JG1HNGz/84klThPVCc=);strokeColor=none;labelBackgroundColor=none;rounded=0;html=1;whiteSpace=wrap;fontSize=16;" parent="1" vertex="1">
          <mxGeometry x="913" y="1049" width="68" height="28" as="geometry" />
        </mxCell>
        <mxCell id="85" value="&lt;font style=&quot;font-size: 16px; font-family: Calibri; color: rgb(0, 0, 0); direction: ltr; letter-spacing: 0px; line-height: 120%; opacity: 1;&quot;&gt;Needs&lt;br style=&quot;font-size: 16px;&quot;&gt;&lt;/font&gt;" style="verticalAlign=middle;align=center;vsdxID=100;fillColor=none;gradientColor=none;shape=stencil(nZBLDoAgDERP0z3SIyjew0SURgSD+Lu9kMZoXLhwN9O+tukAlrNpJg1SzDH4QW/URgNYgZTkjA4UkwJUgGXng+6DX1zLfmoymdXo17xh5zmRJ6Q42BWCfc2oJfdAr+Yv+AP9Cb7OJ3H/2JG1HNGz/84klThPVCc=);strokeColor=none;labelBackgroundColor=none;rounded=0;html=1;whiteSpace=wrap;fontSize=16;" parent="1" vertex="1">
          <mxGeometry x="915" y="1118" width="68" height="28" as="geometry" />
        </mxCell>
        <mxCell id="87" style="vsdxID=105;fillColor=#dd9426;gradientColor=#e1a040;gradientDirection=north;shape=stencil(vVFBDgIhDHwNRxKE+IJ1/Ufjll0iLpuCLv5eSDWKevLgbaYznTatMF2cYEGhVUwUjri6IU3C7ITWbp6QXCpImF6YzgbCkcJ5HpgvUJ0VncKlJmTuU7VDqyuzLdM9O4EORaLcaIpa7yNoo75GqSwhuygpJEguzM1UDzSiLGOk9TDec1iKK+LyUf5lsf+tVcDzzNZ5z1961d/fUkr8UtPfAA==);strokeColor=#404040;shadow=1;labelBackgroundColor=none;rounded=0;html=1;whiteSpace=wrap;" parent="1" vertex="1">
          <mxGeometry x="995" y="1122" width="20" height="20" as="geometry" />
        </mxCell>
        <mxCell id="88" value="&lt;font style=&quot;font-size:16px;font-family:Calibri;color:#000000;direction:ltr;letter-spacing:0px;line-height:120%;opacity:1&quot;&gt;2&lt;br/&gt;&lt;/font&gt;" style="text;vsdxID=105;fillColor=none;gradientColor=none;gradientDirection=north;strokeColor=none;shadow=1;labelBackgroundColor=none;rounded=0;html=1;whiteSpace=wrap;verticalAlign=middle;align=center;;html=1;" parent="87" vertex="1">
          <mxGeometry x="1.25" y="2.5" width="17.5" height="15" as="geometry" />
        </mxCell>
        <mxCell id="89" style="vsdxID=106;fillColor=#85ca39;gradientColor=#92d050;gradientDirection=north;shape=stencil(vVFBDgIhDHwNRxKE+IJ1/Ufjll0iLpuCLv5eSDWKevLgbaYznTatMF2cYEGhVUwUjri6IU3C7ITWbp6QXCpImF6YzgbCkcJ5HpgvUJ0VncKlJmTuU7VDqyuzLdM9O4EORaLcaIpa7yNoo75GqSwhuygpJEguzM1UDzSiLGOk9TDec1iKK+LyUf5lsf+tVcDzzNZ5z1961d/fUkr8UtPfAA==);strokeColor=#404040;shadow=1;labelBackgroundColor=none;rounded=0;html=1;whiteSpace=wrap;" parent="1" vertex="1">
          <mxGeometry x="1063" y="1043" width="20" height="20" as="geometry" />
        </mxCell>
        <mxCell id="90" value="&lt;p style=&quot;align:center;margin-left:0;margin-right:0;margin-top:0px;margin-bottom:0px;text-indent:0;valign:middle;direction:ltr;&quot;&gt;&lt;font style=&quot;font-size:16px;font-family:Calibri;color:#000000;direction:ltr;letter-spacing:0px;line-height:120%;opacity:1&quot;&gt;1&lt;br/&gt;&lt;/font&gt;&lt;/p&gt;" style="text;vsdxID=106;fillColor=none;gradientColor=none;gradientDirection=north;strokeColor=none;shadow=1;labelBackgroundColor=none;rounded=0;html=1;whiteSpace=wrap;verticalAlign=middle;align=center;;html=1;" parent="89" vertex="1">
          <mxGeometry x="1.25" y="2.5" width="17.5" height="15" as="geometry" />
        </mxCell>
        <mxCell id="91" value="" style="verticalAlign=middle;align=center;vsdxID=112;fillColor=#77c1d5;gradientColor=#4bacc6;gradientDirection=north;shape=stencil(tVFBDsIgEHwNRxKE+IJa/0Hstt2I0Cxo298L2SZKvRgTbzM7s+yEEaaJo51AaBUThSvM2KVRmJPQGv0IhCkjYVphmj4QDBTuvmM+2eIs6BYe5YWF91TZ0GpldlDMz2y1dMkaLbWoaHMfN77X97K0C0ZJIdmEwVd3naUBZL4je2eHSoozwPQx/ilZneuPsRz6b/82g1cnPTrHlb7r+w7ziPs37RM=);strokeColor=#404040;labelBackgroundColor=#ffffff;rounded=0;html=1;whiteSpace=wrap;" parent="1" vertex="1">
          <mxGeometry x="1020" y="1075" width="10" height="20" as="geometry" />
        </mxCell>
        <mxCell id="92" value="&lt;font style=&quot;font-size:14px;font-family:Calibri;color:#000000;direction:ltr;letter-spacing:0px;line-height:120%;opacity:1&quot;&gt;3&lt;br/&gt;&lt;/font&gt;" style="verticalAlign=middle;align=center;vsdxID=113;fillColor=none;gradientColor=none;shape=stencil(nZBLDoAgDERP0z3SIyjew0SURgSD+Lu9kMZoXLhwN9O+tukAlrNpJg1SzDH4QW/URgNYgZTkjA4UkwJUgGXng+6DX1zLfmoymdXo17xh5zmRJ6Q42BWCfc2oJfdAr+Yv+AP9Cb7OJ3H/2JG1HNGz/84klThPVCc=);strokeColor=none;labelBackgroundColor=none;rounded=0;html=1;whiteSpace=wrap;" parent="1" vertex="1">
          <mxGeometry x="1018" y="1073" width="14" height="22" as="geometry" />
        </mxCell>
        <mxCell id="93" style="vsdxID=114;fillColor=#85ca39;gradientColor=#92d050;gradientDirection=north;shape=stencil(tZLRDsIgDEW/hkcShPgFc/5H47qtEWEpqPPvhbDEMaMPJr7d9p4LDUWYJowwodAqRPZnvFMXR2EOQmtyIzLFpIRphWl6zziwv7qu1BNkMquLv+UT5pLbKZUzWj3q+lhgS+4LXKHAp+TwFuWF3S/1vI6qrSlhpiDZR4jkXYVa4AFlukX2FobKCnfE6a3901yf3uMvoyXx2ktP1pa1rv3tHlOr/AHTPgE=);strokeColor=#404040;labelBackgroundColor=#ffffff;rounded=0;html=1;whiteSpace=wrap;" parent="1" vertex="1">
          <mxGeometry x="1053" y="1075" width="10" height="20" as="geometry" />
        </mxCell>
        <mxCell id="271" style="vsdxID=129;edgeStyle=none;startArrow=open;endArrow=none;startSize=5;endSize=5;strokeColor=#404040;shadow=1;spacingTop=0;spacingBottom=0;spacingLeft=0;spacingRight=0;verticalAlign=middle;html=1;labelBackgroundColor=#FFFFFF;rounded=0;" parent="1" edge="1">
          <mxGeometry relative="1" as="geometry">
            <Array as="points" />
            <mxPoint x="545" y="969" as="sourcePoint" />
            <mxPoint x="546" y="953" as="targetPoint" />
          </mxGeometry>
        </mxCell>
        <mxCell id="94" style="vsdxID=115;fillColor=#85ca39;gradientColor=#92d050;gradientDirection=north;shape=stencil(tVFBDsIgEHwNRxKE+IJa/0Hstt2I0Cxo298L2SZKvRgTbzM7s+yEEaaJo51AaBUThSvM2KVRmJPQGv0IhCkjYVphmj4QDBTuvmM+2eIs6BYe5YWF91TZ0GpldlDMz2y1dMkaLbWoaHMfN77X97K0C0ZJIdmEwVd3naUBZL4je2eHSoozwPQx/ilZneuPsRz6b/82g1cnPTrHlb7r+w7ziPs37RM=);strokeColor=#404040;labelBackgroundColor=#ffffff;rounded=0;html=1;whiteSpace=wrap;" parent="1" vertex="1">
          <mxGeometry x="1084" y="1075" width="10" height="20" as="geometry" />
        </mxCell>
        <mxCell id="274" style="vsdxID=134;edgeStyle=none;startArrow=open;endArrow=none;startSize=5;endSize=5;strokeColor=#404040;shadow=1;spacingTop=0;spacingBottom=0;spacingLeft=0;spacingRight=0;verticalAlign=middle;html=1;labelBackgroundColor=#FFFFFF;rounded=0;" parent="1" edge="1">
          <mxGeometry relative="1" as="geometry">
            <Array as="points" />
            <mxPoint x="545" y="1035" as="sourcePoint" />
            <mxPoint x="545" y="1022" as="targetPoint" />
          </mxGeometry>
        </mxCell>
        <mxCell id="273" style="vsdxID=133;edgeStyle=none;startArrow=open;endArrow=none;startSize=5;endSize=5;strokeColor=#404040;shadow=1;spacingTop=0;spacingBottom=0;spacingLeft=0;spacingRight=0;verticalAlign=middle;html=1;labelBackgroundColor=#FFFFFF;rounded=0;" parent="1" edge="1">
          <mxGeometry relative="1" as="geometry">
            <Array as="points" />
            <mxPoint x="616" y="969" as="sourcePoint" />
            <mxPoint x="617" y="953" as="targetPoint" />
          </mxGeometry>
        </mxCell>
        <mxCell id="276" style="vsdxID=141;edgeStyle=none;startArrow=open;endArrow=none;startSize=5;endSize=5;strokeColor=#404040;shadow=1;spacingTop=0;spacingBottom=0;spacingLeft=0;spacingRight=0;verticalAlign=middle;html=1;labelBackgroundColor=#FFFFFF;rounded=0;" parent="1" edge="1">
          <mxGeometry relative="1" as="geometry">
            <Array as="points" />
            <mxPoint x="609" y="1035" as="sourcePoint" />
            <mxPoint x="609" y="1022" as="targetPoint" />
          </mxGeometry>
        </mxCell>
        <mxCell id="275" value="" style="vsdxID=138;edgeStyle=none;startArrow=open;endArrow=none;startSize=5;endSize=5;strokeColor=#404040;shadow=1;spacingTop=0;spacingBottom=0;spacingLeft=0;spacingRight=0;verticalAlign=middle;html=1;labelBackgroundColor=#FFFFFF;rounded=0;align=center;" parent="1" edge="1">
          <mxGeometry relative="1" as="geometry">
            <mxPoint as="offset" />
            <Array as="points" />
            <mxPoint x="625" y="1027" as="sourcePoint" />
            <mxPoint x="625" y="1027" as="targetPoint" />
          </mxGeometry>
        </mxCell>
        <mxCell id="272" value="" style="vsdxID=132;edgeStyle=none;startArrow=open;endArrow=none;startSize=5;endSize=5;strokeColor=#404040;shadow=1;spacingTop=0;spacingBottom=0;spacingLeft=0;spacingRight=0;verticalAlign=middle;html=1;labelBackgroundColor=#FFFFFF;rounded=0;align=center;" parent="1" edge="1">
          <mxGeometry relative="1" as="geometry">
            <mxPoint as="offset" />
            <Array as="points" />
            <mxPoint x="577" y="1021" as="sourcePoint" />
            <mxPoint x="577" y="1021" as="targetPoint" />
          </mxGeometry>
        </mxCell>
        <mxCell id="95" style="vsdxID=116;fillColor=#77c1d5;gradientColor=#4bacc6;gradientDirection=north;shape=stencil(vVFBDgIhDHwNRxKE+IJ1/Ufjll0iLpuCLv5eSDWKevLgbaYznTatMF2cYEGhVUwUjri6IU3C7ITWbp6QXCpImF6YzgbCkcJ5HpgvUJ0VncKlJmTuU7VDqyuzLdM9O4EORaLcaIpa7yNoo75GqSwhuygpJEguzM1UDzSiLGOk9TDec1iKK+LyUf5lsf+tVcDzzNZ5z1961d/fUkr8UtPfAA==);strokeColor=#404040;shadow=1;labelBackgroundColor=none;rounded=0;html=1;whiteSpace=wrap;" parent="1" vertex="1">
          <mxGeometry x="999" y="1042" width="20" height="20" as="geometry" />
        </mxCell>
        <mxCell id="96" value="&lt;p style=&quot;align:center;margin-left:0;margin-right:0;margin-top:0px;margin-bottom:0px;text-indent:0;valign:middle;direction:ltr;&quot;&gt;&lt;font style=&quot;font-size:16px;font-family:Calibri;color:#000000;direction:ltr;letter-spacing:0px;line-height:120%;opacity:1&quot;&gt;3&lt;br/&gt;&lt;/font&gt;&lt;/p&gt;" style="text;vsdxID=116;fillColor=none;gradientColor=none;gradientDirection=north;strokeColor=none;shadow=1;labelBackgroundColor=none;rounded=0;html=1;whiteSpace=wrap;verticalAlign=middle;align=center;;html=1;" parent="95" vertex="1">
          <mxGeometry x="1.25" y="2.5" width="17.5" height="15" as="geometry" />
        </mxCell>
        <mxCell id="97" style="vsdxID=119;fillColor=#77c1d5;gradientColor=#4bacc6;gradientDirection=north;shape=stencil(tZLRDsIgDEW/hkcShPgFc/5H47qtEWEpqPPvhbDEMaMPJr7d9p4LDUWYJowwodAqRPZnvFMXR2EOQmtyIzLFpIRphWl6zziwv7qu1BNkMquLv+UT5pLbKZUzWj3q+lhgS+4LXKHAp+TwFuWF3S/1vI6qrSlhpiDZR4jkXYVa4AFlukX2FobKCnfE6a3901yf3uMvoyXx2ktP1pa1rv3tHlOr/AHTPgE=);strokeColor=#404040;labelBackgroundColor=#ffffff;rounded=0;html=1;whiteSpace=wrap;" parent="1" vertex="1">
          <mxGeometry x="989" y="1075" width="10" height="20" as="geometry" />
        </mxCell>
        <mxCell id="98" value="&lt;font style=&quot;font-size:14px;font-family:Calibri;color:#000000;direction:ltr;letter-spacing:0px;line-height:120%;opacity:1&quot;&gt;3&lt;br/&gt;&lt;/font&gt;" style="verticalAlign=middle;align=center;vsdxID=120;fillColor=none;gradientColor=none;shape=stencil(nZBLDoAgDERP0z3SIyjew0SURgSD+Lu9kMZoXLhwN9O+tukAlrNpJg1SzDH4QW/URgNYgZTkjA4UkwJUgGXng+6DX1zLfmoymdXo17xh5zmRJ6Q42BWCfc2oJfdAr+Yv+AP9Cb7OJ3H/2JG1HNGz/84klThPVCc=);strokeColor=none;labelBackgroundColor=none;rounded=0;html=1;whiteSpace=wrap;" parent="1" vertex="1">
          <mxGeometry x="988" y="1080" width="12" height="8" as="geometry" />
        </mxCell>
        <mxCell id="99" value="&lt;font style=&quot;font-size:14px;font-family:Calibri;color:#000000;direction:ltr;letter-spacing:0px;line-height:120%;opacity:1&quot;&gt;1&lt;br/&gt;&lt;/font&gt;" style="verticalAlign=middle;align=center;vsdxID=121;fillColor=none;gradientColor=none;shape=stencil(nZBLDoAgDERP0z3SIyjew0SURgSD+Lu9kMZoXLhwN9O+tukAlrNpJg1SzDH4QW/URgNYgZTkjA4UkwJUgGXng+6DX1zLfmoymdXo17xh5zmRJ6Q42BWCfc2oJfdAr+Yv+AP9Cb7OJ3H/2JG1HNGz/84klThPVCc=);strokeColor=none;labelBackgroundColor=none;rounded=0;html=1;whiteSpace=wrap;" parent="1" vertex="1">
          <mxGeometry x="1050" y="1078" width="16" height="13" as="geometry" />
        </mxCell>
        <mxCell id="100" value="&lt;font style=&quot;font-size:14px;font-family:Calibri;color:#000000;direction:ltr;letter-spacing:0px;line-height:120%;opacity:1&quot;&gt;1&lt;br/&gt;&lt;/font&gt;" style="verticalAlign=middle;align=center;vsdxID=122;fillColor=none;gradientColor=none;shape=stencil(nZBLDoAgDERP0z3SIyjew0SURgSD+Lu9kMZoXLhwN9O+tukAlrNpJg1SzDH4QW/URgNYgZTkjA4UkwJUgGXng+6DX1zLfmoymdXo17xh5zmRJ6Q42BWCfc2oJfdAr+Yv+AP9Cb7OJ3H/2JG1HNGz/84klThPVCc=);strokeColor=none;labelBackgroundColor=none;rounded=0;html=1;whiteSpace=wrap;" parent="1" vertex="1">
          <mxGeometry x="1080" y="1078" width="16" height="13" as="geometry" />
        </mxCell>
        <mxCell id="101" value="" style="verticalAlign=middle;align=center;vsdxID=123;fillColor=#dd9426;gradientColor=#e1a040;gradientDirection=north;shape=stencil(tZLRDsIgDEW/hkcShPgFc/5H47qtEWEpqPPvhbDEMaMPJr7d9p4LDUWYJowwodAqRPZnvFMXR2EOQmtyIzLFpIRphWl6zziwv7qu1BNkMquLv+UT5pLbKZUzWj3q+lhgS+4LXKHAp+TwFuWF3S/1vI6qrSlhpiDZR4jkXYVa4AFlukX2FobKCnfE6a3901yf3uMvoyXx2ktP1pa1rv3tHlOr/AHTPgE=);strokeColor=#404040;labelBackgroundColor=#ffffff;rounded=0;html=1;whiteSpace=wrap;" parent="1" vertex="1">
          <mxGeometry x="1038" y="1122" width="10" height="20" as="geometry" />
        </mxCell>
        <mxCell id="102" value="" style="verticalAlign=middle;align=center;vsdxID=124;fillColor=#dd9426;gradientColor=#e1a040;gradientDirection=north;shape=stencil(tVFBDsIgEHwNRxKE+IJa/0Hstt2I0Cxo298L2SZKvRgTbzM7s+yEEaaJo51AaBUThSvM2KVRmJPQGv0IhCkjYVphmj4QDBTuvmM+2eIs6BYe5YWF91TZ0GpldlDMz2y1dMkaLbWoaHMfN77X97K0C0ZJIdmEwVd3naUBZL4je2eHSoozwPQx/ilZneuPsRz6b/82g1cnPTrHlb7r+w7ziPs37RM=);strokeColor=#404040;labelBackgroundColor=#ffffff;rounded=0;html=1;whiteSpace=wrap;" parent="1" vertex="1">
          <mxGeometry x="1072" y="1122" width="10" height="20" as="geometry" />
        </mxCell>
        <mxCell id="103" value="&lt;font style=&quot;font-size:14px;font-family:Calibri;color:#000000;direction:ltr;letter-spacing:0px;line-height:120%;opacity:1&quot;&gt;2&lt;br/&gt;&lt;/font&gt;" style="verticalAlign=middle;align=center;vsdxID=125;fillColor=none;gradientColor=none;shape=stencil(nZBLDoAgDERP0z3SIyjew0SURgSD+Lu9kMZoXLhwN9O+tukAlrNpJg1SzDH4QW/URgNYgZTkjA4UkwJUgGXng+6DX1zLfmoymdXo17xh5zmRJ6Q42BWCfc2oJfdAr+Yv+AP9Cb7OJ3H/2JG1HNGz/84klThPVCc=);strokeColor=none;labelBackgroundColor=none;rounded=0;html=1;whiteSpace=wrap;" parent="1" vertex="1">
          <mxGeometry x="1035" y="1125" width="17" height="11" as="geometry" />
        </mxCell>
        <mxCell id="104" value="&lt;font style=&quot;font-size:14px;font-family:Calibri;color:#000000;direction:ltr;letter-spacing:0px;line-height:120%;opacity:1&quot;&gt;2&lt;br/&gt;&lt;/font&gt;" style="verticalAlign=middle;align=center;vsdxID=126;fillColor=none;gradientColor=none;shape=stencil(nZBLDoAgDERP0z3SIyjew0SURgSD+Lu9kMZoXLhwN9O+tukAlrNpJg1SzDH4QW/URgNYgZTkjA4UkwJUgGXng+6DX1zLfmoymdXo17xh5zmRJ6Q42BWCfc2oJfdAr+Yv+AP9Cb7OJ3H/2JG1HNGz/84klThPVCc=);strokeColor=none;labelBackgroundColor=none;rounded=0;html=1;whiteSpace=wrap;" parent="1" vertex="1">
          <mxGeometry x="1068" y="1125" width="17" height="11" as="geometry" />
        </mxCell>
        <mxCell id="105" value="&lt;p style=&quot;margin: 0px; text-indent: 0px; direction: ltr; font-size: 18px;&quot;&gt;&lt;font style=&quot;font-size: 18px; font-family: Calibri; color: rgb(0, 0, 0); direction: ltr; letter-spacing: 0px; line-height: 120%; opacity: 1;&quot;&gt;Local Training&lt;br style=&quot;font-size: 18px;&quot;&gt;&lt;/font&gt;&lt;/p&gt;" style="verticalAlign=middle;align=center;vsdxID=127;fillColor=none;gradientColor=none;shape=stencil(nZBLDoAgDERP0z3SIyjew0SURgSD+Lu9kMZoXLhwN9O+tukAlrNpJg1SzDH4QW/URgNYgZTkjA4UkwJUgGXng+6DX1zLfmoymdXo17xh5zmRJ6Q42BWCfc2oJfdAr+Yv+AP9Cb7OJ3H/2JG1HNGz/84klThPVCc=);strokeColor=#000000;shadow=1;labelBackgroundColor=none;rounded=0;html=1;whiteSpace=wrap;fontSize=18;" parent="1" vertex="1">
          <mxGeometry x="517" y="970" width="120" height="50" as="geometry" />
        </mxCell>
        <mxCell id="106" value="&lt;font style=&quot;font-size: 18px ; font-family: &amp;#34;calibri&amp;#34; ; color: rgb(0 , 0 , 0) ; direction: ltr ; letter-spacing: 0px ; line-height: 120% ; opacity: 1&quot;&gt;  1&amp;nbsp; &amp;nbsp; &amp;nbsp; &amp;nbsp; &amp;nbsp; &amp;nbsp;2&lt;br style=&quot;font-size: 18px&quot;&gt;&lt;/font&gt;" style="verticalAlign=middle;align=center;vsdxID=128;fillColor=none;gradientColor=none;shape=stencil(nZBLDoAgDERP0z3SIyjew0SURgSD+Lu9kMZoXLhwN9O+tukAlrNpJg1SzDH4QW/URgNYgZTkjA4UkwJUgGXng+6DX1zLfmoymdXo17xh5zmRJ6Q42BWCfc2oJfdAr+Yv+AP9Cb7OJ3H/2JG1HNGz/84klThPVCc=);strokeColor=none;labelBackgroundColor=none;rounded=0;html=1;whiteSpace=wrap;fontSize=18;" parent="1" vertex="1">
          <mxGeometry x="505" y="933" width="155" height="20" as="geometry" />
        </mxCell>
        <mxCell id="107" value="&lt;font style=&quot;font-size: 16px; font-family: Calibri; color: rgb(0, 0, 0); direction: ltr; letter-spacing: 0px; line-height: 120%; opacity: 1;&quot;&gt;Has&lt;br style=&quot;font-size: 16px;&quot;&gt;&lt;/font&gt;" style="verticalAlign=middle;align=center;vsdxID=130;fillColor=none;gradientColor=none;shape=stencil(nZBLDoAgDERP0z3SIyjew0SURgSD+Lu9kMZoXLhwN9O+tukAlrNpJg1SzDH4QW/URgNYgZTkjA4UkwJUgGXng+6DX1zLfmoymdXo17xh5zmRJ6Q42BWCfc2oJfdAr+Yv+AP9Cb7OJ3H/2JG1HNGz/84klThPVCc=);strokeColor=none;labelBackgroundColor=none;rounded=0;html=1;whiteSpace=wrap;fontSize=16;" parent="1" vertex="1">
          <mxGeometry x="449" y="1043" width="68" height="28" as="geometry" />
        </mxCell>
        <mxCell id="108" value="&lt;font style=&quot;font-size: 16px; font-family: Calibri; color: rgb(0, 0, 0); direction: ltr; letter-spacing: 0px; line-height: 120%; opacity: 1;&quot;&gt;Needs&lt;br style=&quot;font-size: 16px;&quot;&gt;&lt;/font&gt;" style="verticalAlign=middle;align=center;vsdxID=131;fillColor=none;gradientColor=none;shape=stencil(nZBLDoAgDERP0z3SIyjew0SURgSD+Lu9kMZoXLhwN9O+tukAlrNpJg1SzDH4QW/URgNYgZTkjA4UkwJUgGXng+6DX1zLfmoymdXo17xh5zmRJ6Q42BWCfc2oJfdAr+Yv+AP9Cb7OJ3H/2JG1HNGz/84klThPVCc=);strokeColor=none;labelBackgroundColor=none;rounded=0;html=1;whiteSpace=wrap;fontSize=16;" parent="1" vertex="1">
          <mxGeometry x="451" y="1113" width="68" height="28" as="geometry" />
        </mxCell>
        <mxCell id="110" style="vsdxID=136;fillColor=#77c1d5;gradientColor=#4bacc6;gradientDirection=north;shape=stencil(vVFBDgIhDHwNRxKE+IJ1/Ufjll0iLpuCLv5eSDWKevLgbaYznTatMF2cYEGhVUwUjri6IU3C7ITWbp6QXCpImF6YzgbCkcJ5HpgvUJ0VncKlJmTuU7VDqyuzLdM9O4EORaLcaIpa7yNoo75GqSwhuygpJEguzM1UDzSiLGOk9TDec1iKK+LyUf5lsf+tVcDzzNZ5z1961d/fUkr8UtPfAA==);strokeColor=#404040;shadow=1;labelBackgroundColor=none;rounded=0;html=1;whiteSpace=wrap;" parent="1" vertex="1">
          <mxGeometry x="531" y="1117" width="20" height="20" as="geometry" />
        </mxCell>
        <mxCell id="111" value="&lt;font style=&quot;font-size:16px;font-family:Calibri;color:#000000;direction:ltr;letter-spacing:0px;line-height:120%;opacity:1&quot;&gt;3&lt;br/&gt;&lt;/font&gt;" style="text;vsdxID=136;fillColor=none;gradientColor=none;gradientDirection=north;strokeColor=none;shadow=1;labelBackgroundColor=none;rounded=0;html=1;whiteSpace=wrap;verticalAlign=middle;align=center;;html=1;" parent="110" vertex="1">
          <mxGeometry x="1.25" y="2.5" width="17.5" height="15" as="geometry" />
        </mxCell>
        <mxCell id="112" style="vsdxID=137;fillColor=#dd9426;gradientColor=#e1a040;gradientDirection=north;shape=stencil(vVFBDgIhDHwNRxKE+IJ1/Ufjll0iLpuCLv5eSDWKevLgbaYznTatMF2cYEGhVUwUjri6IU3C7ITWbp6QXCpImF6YzgbCkcJ5HpgvUJ0VncKlJmTuU7VDqyuzLdM9O4EORaLcaIpa7yNoo75GqSwhuygpJEguzM1UDzSiLGOk9TDec1iKK+LyUf5lsf+tVcDzzNZ5z1961d/fUkr8UtPfAA==);strokeColor=#404040;shadow=1;labelBackgroundColor=none;rounded=0;html=1;whiteSpace=wrap;" parent="1" vertex="1">
          <mxGeometry x="599" y="1037" width="20" height="20" as="geometry" />
        </mxCell>
        <mxCell id="113" value="&lt;p style=&quot;align:center;margin-left:0;margin-right:0;margin-top:0px;margin-bottom:0px;text-indent:0;valign:middle;direction:ltr;&quot;&gt;&lt;font style=&quot;font-size:16px;font-family:Calibri;color:#000000;direction:ltr;letter-spacing:0px;line-height:120%;opacity:1&quot;&gt;2&lt;br/&gt;&lt;/font&gt;&lt;/p&gt;" style="text;vsdxID=137;fillColor=none;gradientColor=none;gradientDirection=north;strokeColor=none;shadow=1;labelBackgroundColor=none;rounded=0;html=1;whiteSpace=wrap;verticalAlign=middle;align=center;;html=1;" parent="112" vertex="1">
          <mxGeometry x="1.25" y="2.5" width="17.5" height="15" as="geometry" />
        </mxCell>
        <mxCell id="114" value="" style="verticalAlign=middle;align=center;vsdxID=143;fillColor=#85ca39;gradientColor=#92d050;gradientDirection=north;shape=stencil(tVFBDsIgEHwNRxKE+IJa/0Hstt2I0Cxo298L2SZKvRgTbzM7s+yEEaaJo51AaBUThSvM2KVRmJPQGv0IhCkjYVphmj4QDBTuvmM+2eIs6BYe5YWF91TZ0GpldlDMz2y1dMkaLbWoaHMfN77X97K0C0ZJIdmEwVd3naUBZL4je2eHSoozwPQx/ilZneuPsRz6b/82g1cnPTrHlb7r+w7ziPs37RM=);strokeColor=#404040;labelBackgroundColor=#ffffff;rounded=0;html=1;whiteSpace=wrap;" parent="1" vertex="1">
          <mxGeometry x="556" y="1069" width="10" height="20" as="geometry" />
        </mxCell>
        <mxCell id="115" value="&lt;font style=&quot;font-size:14px;font-family:Calibri;color:#000000;direction:ltr;letter-spacing:0px;line-height:120%;opacity:1&quot;&gt;1&lt;br/&gt;&lt;/font&gt;" style="verticalAlign=middle;align=center;vsdxID=144;fillColor=none;gradientColor=none;shape=stencil(nZBLDoAgDERP0z3SIyjew0SURgSD+Lu9kMZoXLhwN9O+tukAlrNpJg1SzDH4QW/URgNYgZTkjA4UkwJUgGXng+6DX1zLfmoymdXo17xh5zmRJ6Q42BWCfc2oJfdAr+Yv+AP9Cb7OJ3H/2JG1HNGz/84klThPVCc=);strokeColor=none;labelBackgroundColor=none;rounded=0;html=1;whiteSpace=wrap;" parent="1" vertex="1">
          <mxGeometry x="553" y="1067" width="14" height="22" as="geometry" />
        </mxCell>
        <mxCell id="116" style="vsdxID=145;fillColor=#dd9426;gradientColor=#e1a040;gradientDirection=north;shape=stencil(tZLRDsIgDEW/hkcShPgFc/5H47qtEWEpqPPvhbDEMaMPJr7d9p4LDUWYJowwodAqRPZnvFMXR2EOQmtyIzLFpIRphWl6zziwv7qu1BNkMquLv+UT5pLbKZUzWj3q+lhgS+4LXKHAp+TwFuWF3S/1vI6qrSlhpiDZR4jkXYVa4AFlukX2FobKCnfE6a3901yf3uMvoyXx2ktP1pa1rv3tHlOr/AHTPgE=);strokeColor=#404040;labelBackgroundColor=#ffffff;rounded=0;html=1;whiteSpace=wrap;" parent="1" vertex="1">
          <mxGeometry x="589" y="1069" width="10" height="20" as="geometry" />
        </mxCell>
        <mxCell id="117" style="vsdxID=146;fillColor=#dd9426;gradientColor=#e1a040;gradientDirection=north;shape=stencil(tVFBDsIgEHwNRxKE+IJa/0Hstt2I0Cxo298L2SZKvRgTbzM7s+yEEaaJo51AaBUThSvM2KVRmJPQGv0IhCkjYVphmj4QDBTuvmM+2eIs6BYe5YWF91TZ0GpldlDMz2y1dMkaLbWoaHMfN77X97K0C0ZJIdmEwVd3naUBZL4je2eHSoozwPQx/ilZneuPsRz6b/82g1cnPTrHlb7r+w7ziPs37RM=);strokeColor=#404040;labelBackgroundColor=#ffffff;rounded=0;html=1;whiteSpace=wrap;" parent="1" vertex="1">
          <mxGeometry x="620" y="1069" width="10" height="20" as="geometry" />
        </mxCell>
        <mxCell id="118" style="vsdxID=147;fillColor=#85ca39;gradientColor=#92d050;gradientDirection=north;shape=stencil(vVFBDgIhDHwNRxKE+IJ1/Ufjll0iLpuCLv5eSDWKevLgbaYznTatMF2cYEGhVUwUjri6IU3C7ITWbp6QXCpImF6YzgbCkcJ5HpgvUJ0VncKlJmTuU7VDqyuzLdM9O4EORaLcaIpa7yNoo75GqSwhuygpJEguzM1UDzSiLGOk9TDec1iKK+LyUf5lsf+tVcDzzNZ5z1961d/fUkr8UtPfAA==);strokeColor=#404040;shadow=1;labelBackgroundColor=none;rounded=0;html=1;whiteSpace=wrap;" parent="1" vertex="1">
          <mxGeometry x="535" y="1037" width="20" height="20" as="geometry" />
        </mxCell>
        <mxCell id="119" value="&lt;p style=&quot;align:center;margin-left:0;margin-right:0;margin-top:0px;margin-bottom:0px;text-indent:0;valign:middle;direction:ltr;&quot;&gt;&lt;font style=&quot;font-size:16px;font-family:Calibri;color:#000000;direction:ltr;letter-spacing:0px;line-height:120%;opacity:1&quot;&gt;1&lt;br/&gt;&lt;/font&gt;&lt;/p&gt;" style="text;vsdxID=147;fillColor=none;gradientColor=none;gradientDirection=north;strokeColor=none;shadow=1;labelBackgroundColor=none;rounded=0;html=1;whiteSpace=wrap;verticalAlign=middle;align=center;;html=1;" parent="118" vertex="1">
          <mxGeometry x="1.25" y="2.5" width="17.5" height="15" as="geometry" />
        </mxCell>
        <mxCell id="120" style="vsdxID=150;fillColor=#85ca39;gradientColor=#92d050;gradientDirection=north;shape=stencil(tZLRDsIgDEW/hkcShPgFc/5H47qtEWEpqPPvhbDEMaMPJr7d9p4LDUWYJowwodAqRPZnvFMXR2EOQmtyIzLFpIRphWl6zziwv7qu1BNkMquLv+UT5pLbKZUzWj3q+lhgS+4LXKHAp+TwFuWF3S/1vI6qrSlhpiDZR4jkXYVa4AFlukX2FobKCnfE6a3901yf3uMvoyXx2ktP1pa1rv3tHlOr/AHTPgE=);strokeColor=#404040;labelBackgroundColor=#ffffff;rounded=0;html=1;whiteSpace=wrap;" parent="1" vertex="1">
          <mxGeometry x="525" y="1069" width="10" height="20" as="geometry" />
        </mxCell>
        <mxCell id="121" value="&lt;font style=&quot;font-size:14px;font-family:Calibri;color:#000000;direction:ltr;letter-spacing:0px;line-height:120%;opacity:1&quot;&gt;1&lt;br/&gt;&lt;/font&gt;" style="verticalAlign=middle;align=center;vsdxID=151;fillColor=none;gradientColor=none;shape=stencil(nZBLDoAgDERP0z3SIyjew0SURgSD+Lu9kMZoXLhwN9O+tukAlrNpJg1SzDH4QW/URgNYgZTkjA4UkwJUgGXng+6DX1zLfmoymdXo17xh5zmRJ6Q42BWCfc2oJfdAr+Yv+AP9Cb7OJ3H/2JG1HNGz/84klThPVCc=);strokeColor=none;labelBackgroundColor=none;rounded=0;html=1;whiteSpace=wrap;" parent="1" vertex="1">
          <mxGeometry x="524" y="1074" width="12" height="8" as="geometry" />
        </mxCell>
        <mxCell id="122" value="&lt;font style=&quot;font-size:14px;font-family:Calibri;color:#000000;direction:ltr;letter-spacing:0px;line-height:120%;opacity:1&quot;&gt;2&lt;br/&gt;&lt;/font&gt;" style="verticalAlign=middle;align=center;vsdxID=152;fillColor=none;gradientColor=none;shape=stencil(nZBLDoAgDERP0z3SIyjew0SURgSD+Lu9kMZoXLhwN9O+tukAlrNpJg1SzDH4QW/URgNYgZTkjA4UkwJUgGXng+6DX1zLfmoymdXo17xh5zmRJ6Q42BWCfc2oJfdAr+Yv+AP9Cb7OJ3H/2JG1HNGz/84klThPVCc=);strokeColor=none;labelBackgroundColor=none;rounded=0;html=1;whiteSpace=wrap;" parent="1" vertex="1">
          <mxGeometry x="587" y="1071" width="16" height="13" as="geometry" />
        </mxCell>
        <mxCell id="123" value="&lt;font style=&quot;font-size:14px;font-family:Calibri;color:#000000;direction:ltr;letter-spacing:0px;line-height:120%;opacity:1&quot;&gt;2&lt;br/&gt;&lt;/font&gt;" style="verticalAlign=middle;align=center;vsdxID=153;fillColor=none;gradientColor=none;shape=stencil(nZBLDoAgDERP0z3SIyjew0SURgSD+Lu9kMZoXLhwN9O+tukAlrNpJg1SzDH4QW/URgNYgZTkjA4UkwJUgGXng+6DX1zLfmoymdXo17xh5zmRJ6Q42BWCfc2oJfdAr+Yv+AP9Cb7OJ3H/2JG1HNGz/84klThPVCc=);strokeColor=none;labelBackgroundColor=none;rounded=0;html=1;whiteSpace=wrap;" parent="1" vertex="1">
          <mxGeometry x="616" y="1071" width="16" height="13" as="geometry" />
        </mxCell>
        <mxCell id="124" style="vsdxID=154;fillColor=#77c1d5;gradientColor=#4bacc6;gradientDirection=north;shape=stencil(tZLRDsIgDEW/hkcShPgFc/5H47qtEWEpqPPvhbDEMaMPJr7d9p4LDUWYJowwodAqRPZnvFMXR2EOQmtyIzLFpIRphWl6zziwv7qu1BNkMquLv+UT5pLbKZUzWj3q+lhgS+4LXKHAp+TwFuWF3S/1vI6qrSlhpiDZR4jkXYVa4AFlukX2FobKCnfE6a3901yf3uMvoyXx2ktP1pa1rv3tHlOr/AHTPgE=);strokeColor=#404040;labelBackgroundColor=#ffffff;rounded=0;html=1;whiteSpace=wrap;" parent="1" vertex="1">
          <mxGeometry x="574" y="1117" width="10" height="20" as="geometry" />
        </mxCell>
        <mxCell id="125" value="" style="verticalAlign=middle;align=center;vsdxID=155;fillColor=#77c1d5;gradientColor=#4bacc6;gradientDirection=north;shape=stencil(tVFBDsIgEHwNRxKE+IJa/0Hstt2I0Cxo298L2SZKvRgTbzM7s+yEEaaJo51AaBUThSvM2KVRmJPQGv0IhCkjYVphmj4QDBTuvmM+2eIs6BYe5YWF91TZ0GpldlDMz2y1dMkaLbWoaHMfN77X97K0C0ZJIdmEwVd3naUBZL4je2eHSoozwPQx/ilZneuPsRz6b/82g1cnPTrHlb7r+w7ziPs37RM=);strokeColor=#404040;labelBackgroundColor=#ffffff;rounded=0;html=1;whiteSpace=wrap;" parent="1" vertex="1">
          <mxGeometry x="608" y="1117" width="10" height="20" as="geometry" />
        </mxCell>
        <mxCell id="126" value="&lt;font style=&quot;font-size:14px;font-family:Calibri;color:#000000;direction:ltr;letter-spacing:0px;line-height:120%;opacity:1&quot;&gt;3&lt;br/&gt;&lt;/font&gt;" style="verticalAlign=middle;align=center;vsdxID=156;fillColor=none;gradientColor=none;shape=stencil(nZBLDoAgDERP0z3SIyjew0SURgSD+Lu9kMZoXLhwN9O+tukAlrNpJg1SzDH4QW/URgNYgZTkjA4UkwJUgGXng+6DX1zLfmoymdXo17xh5zmRJ6Q42BWCfc2oJfdAr+Yv+AP9Cb7OJ3H/2JG1HNGz/84klThPVCc=);strokeColor=none;labelBackgroundColor=none;rounded=0;html=1;whiteSpace=wrap;" parent="1" vertex="1">
          <mxGeometry x="571" y="1120" width="17" height="11" as="geometry" />
        </mxCell>
        <mxCell id="127" value="&lt;font style=&quot;font-size:14px;font-family:Calibri;color:#000000;direction:ltr;letter-spacing:0px;line-height:120%;opacity:1&quot;&gt;3&lt;br/&gt;&lt;/font&gt;" style="verticalAlign=middle;align=center;vsdxID=157;fillColor=none;gradientColor=none;shape=stencil(nZBLDoAgDERP0z3SIyjew0SURgSD+Lu9kMZoXLhwN9O+tukAlrNpJg1SzDH4QW/URgNYgZTkjA4UkwJUgGXng+6DX1zLfmoymdXo17xh5zmRJ6Q42BWCfc2oJfdAr+Yv+AP9Cb7OJ3H/2JG1HNGz/84klThPVCc=);strokeColor=none;labelBackgroundColor=none;rounded=0;html=1;whiteSpace=wrap;" parent="1" vertex="1">
          <mxGeometry x="604" y="1120" width="17" height="11" as="geometry" />
        </mxCell>
        <mxCell id="128" style="vsdxID=158;fillColor=#85ca39;gradientColor=#92d050;gradientDirection=north;shape=stencil(tZLRDsIgDEW/hkcShPgFc/5H47qtEWEpqPPvhbDEMaMPJr7d9p4LDUWYJowwodAqRPZnvFMXR2EOQmtyIzLFpIRphWl6zziwv7qu1BNkMquLv+UT5pLbKZUzWj3q+lhgS+4LXKHAp+TwFuWF3S/1vI6qrSlhpiDZR4jkXYVa4AFlukX2FobKCnfE6a3901yf3uMvoyXx2ktP1pa1rv3tHlOr/AHTPgE=);strokeColor=#404040;labelBackgroundColor=#ffffff;rounded=0;html=1;whiteSpace=wrap;" parent="1" vertex="1">
          <mxGeometry x="572" y="1543" width="10" height="20" as="geometry" />
        </mxCell>
        <mxCell id="129" value="&lt;font style=&quot;font-size:14px;font-family:Calibri;color:#000000;direction:ltr;letter-spacing:0px;line-height:120%;opacity:1&quot;&gt;1&lt;br/&gt;&lt;/font&gt;" style="verticalAlign=middle;align=center;vsdxID=159;fillColor=none;gradientColor=none;shape=stencil(nZBLDoAgDERP0z3SIyjew0SURgSD+Lu9kMZoXLhwN9O+tukAlrNpJg1SzDH4QW/URgNYgZTkjA4UkwJUgGXng+6DX1zLfmoymdXo17xh5zmRJ6Q42BWCfc2oJfdAr+Yv+AP9Cb7OJ3H/2JG1HNGz/84klThPVCc=);strokeColor=none;labelBackgroundColor=none;rounded=0;html=1;whiteSpace=wrap;" parent="1" vertex="1">
          <mxGeometry x="571" y="1542" width="14" height="22" as="geometry" />
        </mxCell>
        <mxCell id="130" value="" style="verticalAlign=middle;align=center;vsdxID=160;fillColor=#85ca39;gradientColor=#92d050;gradientDirection=north;shape=stencil(tVFBDsIgEHwNRxKE+IJa/0Hstt2I0Cxo298L2SZKvRgTbzM7s+yEEaaJo51AaBUThSvM2KVRmJPQGv0IhCkjYVphmj4QDBTuvmM+2eIs6BYe5YWF91TZ0GpldlDMz2y1dMkaLbWoaHMfN77X97K0C0ZJIdmEwVd3naUBZL4je2eHSoozwPQx/ilZneuPsRz6b/82g1cnPTrHlb7r+w7ziPs37RM=);strokeColor=#404040;labelBackgroundColor=#ffffff;rounded=0;html=1;whiteSpace=wrap;" parent="1" vertex="1">
          <mxGeometry x="601" y="1543" width="10" height="20" as="geometry" />
        </mxCell>
        <mxCell id="131" value="&lt;font style=&quot;font-size:14px;font-family:Calibri;color:#000000;direction:ltr;letter-spacing:0px;line-height:120%;opacity:1&quot;&gt;1&lt;br/&gt;&lt;/font&gt;" style="verticalAlign=middle;align=center;vsdxID=161;fillColor=none;gradientColor=none;shape=stencil(nZBLDoAgDERP0z3SIyjew0SURgSD+Lu9kMZoXLhwN9O+tukAlrNpJg1SzDH4QW/URgNYgZTkjA4UkwJUgGXng+6DX1zLfmoymdXo17xh5zmRJ6Q42BWCfc2oJfdAr+Yv+AP9Cb7OJ3H/2JG1HNGz/84klThPVCc=);strokeColor=none;labelBackgroundColor=none;rounded=0;html=1;whiteSpace=wrap;" parent="1" vertex="1">
          <mxGeometry x="598" y="1542" width="14" height="22" as="geometry" />
        </mxCell>
        <mxCell id="132" style="vsdxID=162;fillColor=#85ca39;gradientColor=#92d050;gradientDirection=north;shape=stencil(tZLRDsIgDEW/hkcShPgFc/5H47qtEWEpqPPvhbDEMaMPJr7d9p4LDUWYJowwodAqRPZnvFMXR2EOQmtyIzLFpIRphWl6zziwv7qu1BNkMquLv+UT5pLbKZUzWj3q+lhgS+4LXKHAp+TwFuWF3S/1vI6qrSlhpiDZR4jkXYVa4AFlukX2FobKCnfE6a3901yf3uMvoyXx2ktP1pa1rv3tHlOr/AHTPgE=);strokeColor=#404040;labelBackgroundColor=#ffffff;rounded=0;html=1;whiteSpace=wrap;" parent="1" vertex="1">
          <mxGeometry x="713" y="1005" width="10" height="20" as="geometry" />
        </mxCell>
        <mxCell id="133" value="&lt;font style=&quot;font-size:14px;font-family:Calibri;color:#000000;direction:ltr;letter-spacing:0px;line-height:120%;opacity:1&quot;&gt;1&lt;br/&gt;&lt;/font&gt;" style="verticalAlign=middle;align=center;vsdxID=163;fillColor=none;gradientColor=none;shape=stencil(nZBLDoAgDERP0z3SIyjew0SURgSD+Lu9kMZoXLhwN9O+tukAlrNpJg1SzDH4QW/URgNYgZTkjA4UkwJUgGXng+6DX1zLfmoymdXo17xh5zmRJ6Q42BWCfc2oJfdAr+Yv+AP9Cb7OJ3H/2JG1HNGz/84klThPVCc=);strokeColor=none;labelBackgroundColor=none;rounded=0;html=1;whiteSpace=wrap;" parent="1" vertex="1">
          <mxGeometry x="712" y="1010" width="12" height="8" as="geometry" />
        </mxCell>
        <mxCell id="134" style="vsdxID=164;fillColor=#dd9426;gradientColor=#e1a040;gradientDirection=north;shape=stencil(tVFBDsIgEHwNRxKE+IJa/0Hstt2I0Cxo298L2SZKvRgTbzM7s+yEEaaJo51AaBUThSvM2KVRmJPQGv0IhCkjYVphmj4QDBTuvmM+2eIs6BYe5YWF91TZ0GpldlDMz2y1dMkaLbWoaHMfN77X97K0C0ZJIdmEwVd3naUBZL4je2eHSoozwPQx/ilZneuPsRz6b/82g1cnPTrHlb7r+w7ziPs37RM=);strokeColor=#404040;labelBackgroundColor=#ffffff;rounded=0;html=1;whiteSpace=wrap;" parent="1" vertex="1">
          <mxGeometry x="750" y="1005" width="10" height="20" as="geometry" />
        </mxCell>
        <mxCell id="135" value="&lt;font style=&quot;font-size:14px;font-family:Calibri;color:#000000;direction:ltr;letter-spacing:0px;line-height:120%;opacity:1&quot;&gt;2&lt;br/&gt;&lt;/font&gt;" style="verticalAlign=middle;align=center;vsdxID=165;fillColor=none;gradientColor=none;shape=stencil(nZBLDoAgDERP0z3SIyjew0SURgSD+Lu9kMZoXLhwN9O+tukAlrNpJg1SzDH4QW/URgNYgZTkjA4UkwJUgGXng+6DX1zLfmoymdXo17xh5zmRJ6Q42BWCfc2oJfdAr+Yv+AP9Cb7OJ3H/2JG1HNGz/84klThPVCc=);strokeColor=none;labelBackgroundColor=none;rounded=0;html=1;whiteSpace=wrap;" parent="1" vertex="1">
          <mxGeometry x="746" y="1007" width="16" height="13" as="geometry" />
        </mxCell>
        <mxCell id="136" style="vsdxID=166;fillColor=none;gradientColor=none;image;aspect=fixed;image=data:image/png,iVBORw0KGgoAAAANSUhEUgAAAkwAAALDCAIAAABo4MiZAAATIElEQVR4nO3da3LbOBCFUXkq+9+y54dSmYwfMiUSQPfFORuwywT6I2A5eXt/f78BQKJ/Vn8DADCKyAEQS+QAiCVyAMQSOQBiiRwAsUQOgFgiB0AskQMglsgBEEvkAIglcgDEEjkAYokcALFEDoBYIgdALJEDIJbIARBL5ACIJXIAxBI5AGKJHACxRA6AWCIHQCyRAyCWyAEQS+QAiCVyAMQSOQBiiRwAsUQOgFgiB0AskQMglsgBEEvkAIglcgDEEjkAYokcALFEDoBYIgdALJEDIJbIARBL5ACIJXIAxBI5AGKJHACxRA6AWCIHQCyRAyCWyAEQS+QAiCVyAMQSOQBiiRwAsUQOgFgiB0AskQMglsgBEEvkAIglcgDEEjkAYokcALFEDoBYIgdALJEDIJbIARBL5ACIJXIAxBI5AGKJHACxRA6AWCIHQCyRAyCWyAEQS+QAiCVyAMQSOQBiiRwAsUQOgFgiB0AskQMglsgBEEvkAIglcgDEEjkAYokcALFEDoBYIgdALJEDIJbIARBL5ACIJXIAxBI5AGKJHACxRA6AWCIHQCyRAyCWyAEQS+QAiCVyAMQSOQBiiRwAsUQOgFgiB0AskQMglsgBEEvkAIglcgDEEjkAYokcALFEDoBYIgdALJEDIJbIARBL5ACIJXIAxBI5AGKJHACxRA6AWCIHQCyRAyCWyAEQS+QAiCVyAMQSOQBiiRwAsUQOgFgiB0AskQMglsgBEEvkAIglcgDEEjkAYokcALFEDoBYIgdALJEDIJbIARBL5ACIJXIAxBI5AGKJHACxRA6AWCIHQKxfq78BKOft7W3yV3x/f5/8FWETb3YXm5uftIPsTThP5NhL2aQdYbfCs0SOZK2TdoT9C4+JHGniw/Ydexk+EzkSbBu279jXcCdyNKZtP7LB2ZzI0YywvcxmZ0MiRw/adiG7nn2IHKVp21C2P/FEjqLkbRpDgGAiRy3atpBpQB6Rowp5K8JMIInIsZi2lWU4EEDkWEbeWjAiaE3kWEDe2jEoaErkmEreWjMuaEfkmETeYhgaNCJyDCdvkYwOWhA5BpK3eAYIxYkcQ8jbVowRyvpn9TdAmre3N4XbjSdOWU5yXMakwzyhGic5rqFw3JzjqcdJjrMMNb5ktlCBkxynKBzfsTaowEmOFxlhHGTIsJCTHK9QOI6zWljISY7nGFi8zLRhPpHjCVsVbtrW8FOFcUSOQ+IHcamNkP3TLvWjJp7I8bO8mdtu2XsE8BqR45GY2Rq2zjOeS9hDoSaR41vdJ+kma9tjggdEjq/1HZ3bLmmPDD4TOT7qOCst4w/aPURPkEFEjv/pNRyt3h95oGxO5PhPl4Fo0b7Aw2VPIsdvLYag5XqSp8xuRI7brfzss0ov54mzCZGj9LyzPofy6IknclsrO+Msy8msBFKJ3L5qzjULciFLgjwit6mC48xSLMLaIIn/NHVHphgPFHwWBVcsXTjJbafavLACy7JUCCByGzGzeEGpZWPN8CyR24VRxRl11o/Fw1NEbgsmFJcospCsIo4TuXwGE9eqsKIsJw7y6UpmMJKSVHiaFUJLC05y4ZbPAgssmNVFfU5yycwghlr+fJevcOpzkou1fP8nLa1rf5hJP5m7tYst7+fJhZzkMi0fOubOVtY+7uXvc1QmcoGWF27hV2cVnaMmkUuzcLc7wG1u7QLQOb4kclHWFm7Vl6YUnaMUkcuxaoc7wPHBwiWhc3wgciEWFm7J16U+naMCkUugcNSkcywncu0pHJXpHGuJXG8KR306x0Ii19iSPexjJrxg1bLROUSuq1WFm/9FiWH9MJ/IcZQJxXnzV5HD3OZErqX5+1bhuIrOMZPI9aNwdKdzTCNyzUzeqz5mwiDzl5bO7UnkOplfuJlfjg3pHKOJHF9TOOaw0hhK5NqY+RJq7jDTzPXmMLcbketB4cimcwwicg0oHDvQOUYQueoUjn3oHJcTudLsQ4AzRI7fHOOowGGOa4lcXS4q2ZPOcSGRK0rh2JnOcRWR253CUZOVySVErqJpr5bmCJVNW58Oc8FErhyFgz90jpNEblMKRxfWKmeIXC1zXidNDXqZs2Id5iKJXCEKB9/ROV4jcntROPqyenmByFXhFRIqsBPDiFwJLirhCJeWPEvkdqFwZLCSeYrIrTfhtdFcIMmE9ewwF0PkFlM4eIHOcZDIARBL5FZyjIOXOcxxhMgto3Bwks7xI5GLpXDswDrnMZFbY/TroZ3PPkavdoe51kQOgFgit4BjHFzLYY7viFwahWNPVj5fErnZvBJCR3ZuUyI3lYtKGMelJZ+JXA6FA7uAD0RuHq+B0J1d3I7IhfACC3f2An8TuUmGvgDa1fC3oTvCYa4XkQMglsjN4BgHkznMcSdyvSkcfMfu4CZyE3jpgzz2dRci15gXVXjMHkHkxhr3umf3whHjdorDXAsiB0AskRvIMQ4qcJjbmcgBEEvkRnGMgzoc5rYlcgDEErkhHOOgGoe5PYkcALFErhPHODjDDtqQyF3P3QXsxq4vS+Ta8BIK59lHuxG5iw16obMz4SqDdpPDXE0iB0AskbuSYxy04DC3D5EDIJbIVecYByPYWZsQucu4qQDMgWpEDoBYIncNHzmBdnz8ZAciB0AskavLMQ5Gs8viidwF3E4AfzMT6hA5YGsOc9lErigbD+A8kTvLvQTwmclQhMhV5BgHM9lxwUQOgFgid8qIGwkvlTDfiH3nxrICkQMglsgB3G4uUUKJXC22GcCFRO51LtyBx0yJ5UQO4DdXKXlErhAbDOBaIvcitxDAEWbFWiIHQCyRq8JdJVRgJ4YRuVe4fwCOMzEWEjkAYolcCW5IoA77MYnIARBL5J7meh14lrmxisit524EqrErY4gcALFEDoBYIreYWxGoyd7MIHLP8dtj4DWmxxIiB0AskQMglsit5NIfKrNDA4jcE1ypA2eYIfOJHACxRA6AWCIHQCyRW8bvtKE++7Q7kTvKb4yB80ySyUQOgFgiB0AskVvDRT90Ybe2JnIAxBI5AGKJ3CE+EAVcxTyZSeQAiCVyC/g9NvRiz/YlcgDEEjkAYokcALFEDoBYIgdALJH7mT9qAa5lqkwjcgDEErnZ/MENdGTnNiVyAMQSOQBiiRwAsUQOgFgiB0AskfuBP2cBRjBb5hA5AGKJ3FT+1Ab6sn87EjkAYokcALFEDoBYIgdALJEDINav1d8AT/CHNRk8x1V8PHJDTnIAxBI5AGKJHACxRA6AWCIHQCyRAyCWyAEQS+QAiCVyAMQSOQBiiRwAsUQOgFgiB0AskXvEvxYP0JrIPeI/5gBoTeQAiCVyAMQSOQBiiRwAsUQOgFgiB0AskQMglsgBEEvkAIglcgDEEjkAYokcALFEDoBYv1Z/AzzB/4qwyrX/6ZLnCNM4yQEQS+QAiCVyAMQSOQBiiRwAsURuqms/pAfMZP92JHIAxBK5H/iTJmAEs2UOkQMglsgBEEvkAIglcgDEEjkAYoncbP7UBjqyc5sSOQBiidzP/DkLcC1TZRqRAyCWyAEQS+QAiCVyAMQSOQBiidwC/uAGerFn+xI5AGKJ3CH+qAW4inkyk8gBEEvkAIglcmv4PTZ0Ybe2JnIAxBI5AGKJ3FE+EAWcZ5JMJnLLuOiH+uzT7kQOgFgiB0AskQMglsg9wW+MgTPMkPlEbiW/04bK7NAAIgdALJEDIJbIPceVOvAa02MJkVvMpT/UZG9mEDkAYokcALFEbj23IlCNXRlD5J7mt8fAs8yNVUQOgFgiV4K7EajDfkwicgDEErlXuF4HjjMxFhK5KtyQQAV2YhiRAyCWyL3I/QNwhFmxlsgV4p4E4FoiB/CbF808Ivc6txDAY6bEciIHQCyRq8VtCaxi90USOQBiidwpIy7cvU7CfCP2nV/IVSByAMQSuYoc5mAmOy6YyJ3lRgL4zGQoQuQAiCVyRbk/gTnstWwidwH3EsDfzIQ6RK4uL5gwml0WT+QAiCVy1xh0O+E1E8YZtL/cVZYicgDEErnLeH0DzIFqRK46N5Ywgp21CZEDuIZjXEEidyUfP4EW7Kl9iBwAsUTuYg5zUJy/HNiKyAEQS+Su5zAHZTnG7UbkOtE5OMMO2pDIARBL5IYYd3fhVRReM27vuKusTOQAiCVyozjMQR2OcdsSOQBiidxADnNQgWPczkQOgFgiN5bDHKzlGLc5kWtM5+AxewSRG87rHuSxr7sQud68qMJ37A5uIjfH0Jc+Oxk+G7ovHOMaETkAYoncJA5zMI1jHH+IXAidgzt7gb+J3DxeAKE7u7gdkcvhBRZcVPKByE01epPoHDuz/vlM5GbzMggd2blNiVwaL7PsycrnSyK3gEtLuNboNe8Y15fIARBL5NZwmIOrOMbxgMjF0jl2YJ3zmMgtM+H10P4n24QV7hjXncitZP9AZXZoAJEL5zBHKmubI0RuMZeW8AIXlRwkcuvpHDxF4ThO5Hahc2SwknmKyJXgtRHqsB+TiFwVLi3hRy4qeZbI7UXn6Mvq5QUiV8icV0iTgo7mrFvHuDwiV4vOwWcKx8tEblM6RxfWKmeIXDnTXifNDuqbtkod41KJXEU6BzeF4woiB0AskSvKYY7NOcZxCZGrS+fYlsJxFZErTefYkMJxIZHjN52jAuuQa4lcdTNfNs0X1pq5Ah3jNiFyDegcO1A4RhC5HnSObArHICLXhs6RSuEYR+T4ms4xh5XGUCLXyeSXUNOH0SavMce4DYlcMzpHDIVjApHrZ37npI5rzV9UCrctkWtp/o7VOa4yfy0p3M5EjqN0jvMUjslErqslW1fnOMP6YT6Ra0znaGTJynGMQ+R6W9U5qeO4VQtG4biJXIBVO1nnOGLVOlE47kQugc5Rk8KxnMiF0DmqUTgqELkcCzsndXygcBQhclEW7nCd427hS4/C8ZnIpdE5Flq4BhSOL4lcoLWdk7o9rX30Csd33iyOVGtjY11txWKjLJFLtvxQZXXFs8YoznVlsuX7f/kEZKjlz3f5Cqc+J7l8yyfRzTCKY1HRhZNcvgqzoMJM5CoVnmaFVU0Lv1Z/A+ziPhnNptYq5O1mFfEM15W7KDKe7qy6duqsH4uHp4jcRurMqTtrr4VSy8aa4Vkit51SM+tmbNVWarVYKrzAB0+2U21SlBqj/FHtH6+ptm7pwkluU6Xm152lWIS1QRKR21fBWXYzzpayJMgjclurOdRu5tp0VgKpRI66A+5mxg3m0RNP5Ljdag+7m3k3gCfOJkSO34pPvTvL9SRPmd2IHP9pMQFvhuBLPFz2JHL8T5dReGf1/sgDZXMix0e9xuKdZfyBhwh3IsfXOk7J2/aD0lODD0SObzWdmH9ssrY9JnhA5Hik+wD9I2ydey5wkMjxs5iRetd0zXsK8AKR45CwCftBwV3gBw6XEDmekD15P5i2NfxUYRyR4zlbTWSuZdown8jxCqnjKeYMq/ifwXmFmcVxVgsLOclxiiMdDxgvLOckxymmGN+xNqhA5DjLLOOD9/d3q4IiXFdyGVeXmCdU4yTHZby/b87TpyAnOYZwqtuKMUJZIsdAUhfPAKE4kWM4qYtkdNCCyDGJ1MUwNGhE5JhK6lozLmhH5FhA6toxKGhK5FhG6lowImhN5FhM6soyHAggclShdkWYCSQROWqRuoVMA/KIHEWp3TSGAMFEjtKkbijbn3giRw9qdyG7nn2IHM2o3ctsdjYkcjQmeD+ywdmcyJFA7T6wr+FO5EizbfDsZfhM5EgWHzz7Fx4TOTYS0DwbFp4icuyubPnsTThP5OCjJdmzE2EEkQMg1j+rvwEAGEXkAIglcgDEEjkAYokcALFEDoBYIgdALJEDIJbIARBL5ACIJXIAxBI5AGKJHACxRA6AWCIHQCyRAyCWyAEQS+QAiCVyAMQSOQBiiRwAsUQOgFgiB0AskQMglsgBEEvkAIglcgDEEjkAYokcALFEDoBYIgdALJEDIJbIARBL5ACIJXIAxBI5AGKJHACxRA6AWCIHQCyRAyCWyAEQS+QAiCVyAMQSOQBiiRwAsUQOgFgiB0AskQMglsgBEEvkAIglcgDEEjkAYokcALFEDoBYIgdALJEDIJbIARBL5ACIJXIAxBI5AGKJHACxRA6AWCIHQCyRAyCWyAEQS+QAiCVyAMQSOQBiiRwAsUQOgFgiB0AskQMglsgBEEvkAIglcgDEEjkAYokcALFEDoBYIgdALJEDIJbIARBL5ACIJXIAxBI5AGKJHACxRA6AWCIHQCyRAyCWyAEQS+QAiCVyAMQSOQBiiRwAsUQOgFgiB0AskQMglsgBEEvkAIglcgDEEjkAYokcALFEDoBYIgdALJEDIJbIARBL5ACIJXIAxBI5AGKJHACxRA6AWCIHQCyRAyCWyAEQS+QAiCVyAMQSOQBiiRwAsUQOgFgiB0AskQMglsgBEEvkAIglcgDEEjkAYokcALFEDoBYIgdALJEDIJbIARBL5ACIJXIAxBI5AGKJHACxRA6AWCIHQCyRAyCWyAEQS+QAiCVyAMQSOQBiiRwAsUQOgFj/AoJuUm6/vquwAAAAAElFTkSuQmCC;strokeColor=none;labelBackgroundColor=none;rounded=0;html=1;whiteSpace=wrap;" parent="1" vertex="1">
          <mxGeometry x="812" y="1001" width="25" height="27" as="geometry" />
        </mxCell>
        <mxCell id="137" style="vsdxID=167;fillColor=#77c1d5;gradientColor=#4bacc6;gradientDirection=north;shape=stencil(tZLRDsIgDEW/hkcShPgFc/5H47qtEWEpqPPvhbDEMaMPJr7d9p4LDUWYJowwodAqRPZnvFMXR2EOQmtyIzLFpIRphWl6zziwv7qu1BNkMquLv+UT5pLbKZUzWj3q+lhgS+4LXKHAp+TwFuWF3S/1vI6qrSlhpiDZR4jkXYVa4AFlukX2FobKCnfE6a3901yf3uMvoyXx2ktP1pa1rv3tHlOr/AHTPgE=);strokeColor=#404040;labelBackgroundColor=#ffffff;rounded=0;html=1;whiteSpace=wrap;" parent="1" vertex="1">
          <mxGeometry x="801" y="1004" width="10" height="20" as="geometry" />
        </mxCell>
        <mxCell id="138" value="&lt;font style=&quot;font-size:14px;font-family:Calibri;color:#000000;direction:ltr;letter-spacing:0px;line-height:120%;opacity:1&quot;&gt;3&lt;br/&gt;&lt;/font&gt;" style="verticalAlign=middle;align=center;vsdxID=168;fillColor=none;gradientColor=none;shape=stencil(nZBLDoAgDERP0z3SIyjew0SURgSD+Lu9kMZoXLhwN9O+tukAlrNpJg1SzDH4QW/URgNYgZTkjA4UkwJUgGXng+6DX1zLfmoymdXo17xh5zmRJ6Q42BWCfc2oJfdAr+Yv+AP9Cb7OJ3H/2JG1HNGz/84klThPVCc=);strokeColor=none;labelBackgroundColor=none;rounded=0;html=1;whiteSpace=wrap;" parent="1" vertex="1">
          <mxGeometry x="800" y="1009" width="12" height="8" as="geometry" />
        </mxCell>
        <mxCell id="139" style="vsdxID=169;fillColor=#85ca39;gradientColor=#92d050;gradientDirection=north;shape=stencil(tVFBDsIgEHwNRxKE+IJa/0Hstt2I0Cxo298L2SZKvRgTbzM7s+yEEaaJo51AaBUThSvM2KVRmJPQGv0IhCkjYVphmj4QDBTuvmM+2eIs6BYe5YWF91TZ0GpldlDMz2y1dMkaLbWoaHMfN77X97K0C0ZJIdmEwVd3naUBZL4je2eHSoozwPQx/ilZneuPsRz6b/82g1cnPTrHlb7r+w7ziPs37RM=);strokeColor=#404040;labelBackgroundColor=#ffffff;rounded=0;html=1;whiteSpace=wrap;" parent="1" vertex="1">
          <mxGeometry x="839" y="1004" width="10" height="20" as="geometry" />
        </mxCell>
        <mxCell id="140" value="&lt;font style=&quot;font-size:14px;font-family:Calibri;color:#000000;direction:ltr;letter-spacing:0px;line-height:120%;opacity:1&quot;&gt;1&lt;br/&gt;&lt;/font&gt;" style="verticalAlign=middle;align=center;vsdxID=170;fillColor=none;gradientColor=none;shape=stencil(nZBLDoAgDERP0z3SIyjew0SURgSD+Lu9kMZoXLhwN9O+tukAlrNpJg1SzDH4QW/URgNYgZTkjA4UkwJUgGXng+6DX1zLfmoymdXo17xh5zmRJ6Q42BWCfc2oJfdAr+Yv+AP9Cb7OJ3H/2JG1HNGz/84klThPVCc=);strokeColor=none;labelBackgroundColor=none;rounded=0;html=1;whiteSpace=wrap;" parent="1" vertex="1">
          <mxGeometry x="835" y="1006" width="16" height="13" as="geometry" />
        </mxCell>
        <mxCell id="141" style="vsdxID=171;fillColor=none;gradientColor=none;image;aspect=fixed;image=data:image/png,iVBORw0KGgoAAAANSUhEUgAAAkwAAALDCAIAAABo4MiZAAATIElEQVR4nO3da3LbOBCFUXkq+9+y54dSmYwfMiUSQPfFORuwywT6I2A5eXt/f78BQKJ/Vn8DADCKyAEQS+QAiCVyAMQSOQBiiRwAsUQOgFgiB0AskQMglsgBEEvkAIglcgDEEjkAYokcALFEDoBYIgdALJEDIJbIARBL5ACIJXIAxBI5AGKJHACxRA6AWCIHQCyRAyCWyAEQS+QAiCVyAMQSOQBiiRwAsUQOgFgiB0AskQMglsgBEEvkAIglcgDEEjkAYokcALFEDoBYIgdALJEDIJbIARBL5ACIJXIAxBI5AGKJHACxRA6AWCIHQCyRAyCWyAEQS+QAiCVyAMQSOQBiiRwAsUQOgFgiB0AskQMglsgBEEvkAIglcgDEEjkAYokcALFEDoBYIgdALJEDIJbIARBL5ACIJXIAxBI5AGKJHACxRA6AWCIHQCyRAyCWyAEQS+QAiCVyAMQSOQBiiRwAsUQOgFgiB0AskQMglsgBEEvkAIglcgDEEjkAYokcALFEDoBYIgdALJEDIJbIARBL5ACIJXIAxBI5AGKJHACxRA6AWCIHQCyRAyCWyAEQS+QAiCVyAMQSOQBiiRwAsUQOgFgiB0AskQMglsgBEEvkAIglcgDEEjkAYokcALFEDoBYIgdALJEDIJbIARBL5ACIJXIAxBI5AGKJHACxRA6AWCIHQCyRAyCWyAEQS+QAiCVyAMQSOQBiiRwAsUQOgFgiB0AskQMglsgBEEvkAIglcgDEEjkAYokcALFEDoBYIgdALJEDIJbIARBL5ACIJXIAxBI5AGKJHACxRA6AWCIHQKxfq78BKOft7W3yV3x/f5/8FWETb3YXm5uftIPsTThP5NhL2aQdYbfCs0SOZK2TdoT9C4+JHGniw/Ydexk+EzkSbBu279jXcCdyNKZtP7LB2ZzI0YywvcxmZ0MiRw/adiG7nn2IHKVp21C2P/FEjqLkbRpDgGAiRy3atpBpQB6Rowp5K8JMIInIsZi2lWU4EEDkWEbeWjAiaE3kWEDe2jEoaErkmEreWjMuaEfkmETeYhgaNCJyDCdvkYwOWhA5BpK3eAYIxYkcQ8jbVowRyvpn9TdAmre3N4XbjSdOWU5yXMakwzyhGic5rqFw3JzjqcdJjrMMNb5ktlCBkxynKBzfsTaowEmOFxlhHGTIsJCTHK9QOI6zWljISY7nGFi8zLRhPpHjCVsVbtrW8FOFcUSOQ+IHcamNkP3TLvWjJp7I8bO8mdtu2XsE8BqR45GY2Rq2zjOeS9hDoSaR41vdJ+kma9tjggdEjq/1HZ3bLmmPDD4TOT7qOCst4w/aPURPkEFEjv/pNRyt3h95oGxO5PhPl4Fo0b7Aw2VPIsdvLYag5XqSp8xuRI7brfzss0ov54mzCZGj9LyzPofy6IknclsrO+Msy8msBFKJ3L5qzjULciFLgjwit6mC48xSLMLaIIn/NHVHphgPFHwWBVcsXTjJbafavLACy7JUCCByGzGzeEGpZWPN8CyR24VRxRl11o/Fw1NEbgsmFJcospCsIo4TuXwGE9eqsKIsJw7y6UpmMJKSVHiaFUJLC05y4ZbPAgssmNVFfU5yycwghlr+fJevcOpzkou1fP8nLa1rf5hJP5m7tYst7+fJhZzkMi0fOubOVtY+7uXvc1QmcoGWF27hV2cVnaMmkUuzcLc7wG1u7QLQOb4kclHWFm7Vl6YUnaMUkcuxaoc7wPHBwiWhc3wgciEWFm7J16U+naMCkUugcNSkcywncu0pHJXpHGuJXG8KR306x0Ii19iSPexjJrxg1bLROUSuq1WFm/9FiWH9MJ/IcZQJxXnzV5HD3OZErqX5+1bhuIrOMZPI9aNwdKdzTCNyzUzeqz5mwiDzl5bO7UnkOplfuJlfjg3pHKOJHF9TOOaw0hhK5NqY+RJq7jDTzPXmMLcbketB4cimcwwicg0oHDvQOUYQueoUjn3oHJcTudLsQ4AzRI7fHOOowGGOa4lcXS4q2ZPOcSGRK0rh2JnOcRWR253CUZOVySVErqJpr5bmCJVNW58Oc8FErhyFgz90jpNEblMKRxfWKmeIXC1zXidNDXqZs2Id5iKJXCEKB9/ROV4jcntROPqyenmByFXhFRIqsBPDiFwJLirhCJeWPEvkdqFwZLCSeYrIrTfhtdFcIMmE9ewwF0PkFlM4eIHOcZDIARBL5FZyjIOXOcxxhMgto3Bwks7xI5GLpXDswDrnMZFbY/TroZ3PPkavdoe51kQOgFgit4BjHFzLYY7viFwahWNPVj5fErnZvBJCR3ZuUyI3lYtKGMelJZ+JXA6FA7uAD0RuHq+B0J1d3I7IhfACC3f2An8TuUmGvgDa1fC3oTvCYa4XkQMglsjN4BgHkznMcSdyvSkcfMfu4CZyE3jpgzz2dRci15gXVXjMHkHkxhr3umf3whHjdorDXAsiB0AskRvIMQ4qcJjbmcgBEEvkRnGMgzoc5rYlcgDEErkhHOOgGoe5PYkcALFErhPHODjDDtqQyF3P3QXsxq4vS+Ta8BIK59lHuxG5iw16obMz4SqDdpPDXE0iB0AskbuSYxy04DC3D5EDIJbIVecYByPYWZsQucu4qQDMgWpEDoBYIncNHzmBdnz8ZAciB0AskavLMQ5Gs8viidwF3E4AfzMT6hA5YGsOc9lErigbD+A8kTvLvQTwmclQhMhV5BgHM9lxwUQOgFgid8qIGwkvlTDfiH3nxrICkQMglsgB3G4uUUKJXC22GcCFRO51LtyBx0yJ5UQO4DdXKXlErhAbDOBaIvcitxDAEWbFWiIHQCyRq8JdJVRgJ4YRuVe4fwCOMzEWEjkAYolcCW5IoA77MYnIARBL5J7meh14lrmxisit524EqrErY4gcALFEDoBYIreYWxGoyd7MIHLP8dtj4DWmxxIiB0AskQMglsit5NIfKrNDA4jcE1ypA2eYIfOJHACxRA6AWCIHQCyRW8bvtKE++7Q7kTvKb4yB80ySyUQOgFgiB0AskVvDRT90Ybe2JnIAxBI5AGKJ3CE+EAVcxTyZSeQAiCVyC/g9NvRiz/YlcgDEEjkAYokcALFEDoBYIgdALJH7mT9qAa5lqkwjcgDEErnZ/MENdGTnNiVyAMQSOQBiiRwAsUQOgFgiB0AskfuBP2cBRjBb5hA5AGKJ3FT+1Ab6sn87EjkAYokcALFEDoBYIgdALJEDINav1d8AT/CHNRk8x1V8PHJDTnIAxBI5AGKJHACxRA6AWCIHQCyRAyCWyAEQS+QAiCVyAMQSOQBiiRwAsUQOgFgiB0AskXvEvxYP0JrIPeI/5gBoTeQAiCVyAMQSOQBiiRwAsUQOgFgiB0AskQMglsgBEEvkAIglcgDEEjkAYokcALFEDoBYv1Z/AzzB/4qwyrX/6ZLnCNM4yQEQS+QAiCVyAMQSOQBiiRwAsURuqms/pAfMZP92JHIAxBK5H/iTJmAEs2UOkQMglsgBEEvkAIglcgDEEjkAYoncbP7UBjqyc5sSOQBiidzP/DkLcC1TZRqRAyCWyAEQS+QAiCVyAMQSOQBiidwC/uAGerFn+xI5AGKJ3CH+qAW4inkyk8gBEEvkAIglcmv4PTZ0Ybe2JnIAxBI5AGKJ3FE+EAWcZ5JMJnLLuOiH+uzT7kQOgFgiB0AskQMglsg9wW+MgTPMkPlEbiW/04bK7NAAIgdALJEDIJbIPceVOvAa02MJkVvMpT/UZG9mEDkAYokcALFEbj23IlCNXRlD5J7mt8fAs8yNVUQOgFgiV4K7EajDfkwicgDEErlXuF4HjjMxFhK5KtyQQAV2YhiRAyCWyL3I/QNwhFmxlsgV4p4E4FoiB/CbF808Ivc6txDAY6bEciIHQCyRq8VtCaxi90USOQBiidwpIy7cvU7CfCP2nV/IVSByAMQSuYoc5mAmOy6YyJ3lRgL4zGQoQuQAiCVyRbk/gTnstWwidwH3EsDfzIQ6RK4uL5gwml0WT+QAiCVy1xh0O+E1E8YZtL/cVZYicgDEErnLeH0DzIFqRK46N5Ywgp21CZEDuIZjXEEidyUfP4EW7Kl9iBwAsUTuYg5zUJy/HNiKyAEQS+Su5zAHZTnG7UbkOtE5OMMO2pDIARBL5IYYd3fhVRReM27vuKusTOQAiCVyozjMQR2OcdsSOQBiidxADnNQgWPczkQOgFgiN5bDHKzlGLc5kWtM5+AxewSRG87rHuSxr7sQud68qMJ37A5uIjfH0Jc+Oxk+G7ovHOMaETkAYoncJA5zMI1jHH+IXAidgzt7gb+J3DxeAKE7u7gdkcvhBRZcVPKByE01epPoHDuz/vlM5GbzMggd2blNiVwaL7PsycrnSyK3gEtLuNboNe8Y15fIARBL5NZwmIOrOMbxgMjF0jl2YJ3zmMgtM+H10P4n24QV7hjXncitZP9AZXZoAJEL5zBHKmubI0RuMZeW8AIXlRwkcuvpHDxF4ThO5Hahc2SwknmKyJXgtRHqsB+TiFwVLi3hRy4qeZbI7UXn6Mvq5QUiV8icV0iTgo7mrFvHuDwiV4vOwWcKx8tEblM6RxfWKmeIXDnTXifNDuqbtkod41KJXEU6BzeF4woiB0AskSvKYY7NOcZxCZGrS+fYlsJxFZErTefYkMJxIZHjN52jAuuQa4lcdTNfNs0X1pq5Ah3jNiFyDegcO1A4RhC5HnSObArHICLXhs6RSuEYR+T4ms4xh5XGUCLXyeSXUNOH0SavMce4DYlcMzpHDIVjApHrZ37npI5rzV9UCrctkWtp/o7VOa4yfy0p3M5EjqN0jvMUjslErqslW1fnOMP6YT6Ra0znaGTJynGMQ+R6W9U5qeO4VQtG4biJXIBVO1nnOGLVOlE47kQugc5Rk8KxnMiF0DmqUTgqELkcCzsndXygcBQhclEW7nCd427hS4/C8ZnIpdE5Flq4BhSOL4lcoLWdk7o9rX30Csd33iyOVGtjY11txWKjLJFLtvxQZXXFs8YoznVlsuX7f/kEZKjlz3f5Cqc+J7l8yyfRzTCKY1HRhZNcvgqzoMJM5CoVnmaFVU0Lv1Z/A+ziPhnNptYq5O1mFfEM15W7KDKe7qy6duqsH4uHp4jcRurMqTtrr4VSy8aa4Vkit51SM+tmbNVWarVYKrzAB0+2U21SlBqj/FHtH6+ptm7pwkluU6Xm152lWIS1QRKR21fBWXYzzpayJMgjclurOdRu5tp0VgKpRI66A+5mxg3m0RNP5Ljdag+7m3k3gCfOJkSO34pPvTvL9SRPmd2IHP9pMQFvhuBLPFz2JHL8T5dReGf1/sgDZXMix0e9xuKdZfyBhwh3IsfXOk7J2/aD0lODD0SObzWdmH9ssrY9JnhA5Hik+wD9I2ydey5wkMjxs5iRetd0zXsK8AKR45CwCftBwV3gBw6XEDmekD15P5i2NfxUYRyR4zlbTWSuZdown8jxCqnjKeYMq/ifwXmFmcVxVgsLOclxiiMdDxgvLOckxymmGN+xNqhA5DjLLOOD9/d3q4IiXFdyGVeXmCdU4yTHZby/b87TpyAnOYZwqtuKMUJZIsdAUhfPAKE4kWM4qYtkdNCCyDGJ1MUwNGhE5JhK6lozLmhH5FhA6toxKGhK5FhG6lowImhN5FhM6soyHAggclShdkWYCSQROWqRuoVMA/KIHEWp3TSGAMFEjtKkbijbn3giRw9qdyG7nn2IHM2o3ctsdjYkcjQmeD+ywdmcyJFA7T6wr+FO5EizbfDsZfhM5EgWHzz7Fx4TOTYS0DwbFp4icuyubPnsTThP5OCjJdmzE2EEkQMg1j+rvwEAGEXkAIglcgDEEjkAYokcALFEDoBYIgdALJEDIJbIARBL5ACIJXIAxBI5AGKJHACxRA6AWCIHQCyRAyCWyAEQS+QAiCVyAMQSOQBiiRwAsUQOgFgiB0AskQMglsgBEEvkAIglcgDEEjkAYokcALFEDoBYIgdALJEDIJbIARBL5ACIJXIAxBI5AGKJHACxRA6AWCIHQCyRAyCWyAEQS+QAiCVyAMQSOQBiiRwAsUQOgFgiB0AskQMglsgBEEvkAIglcgDEEjkAYokcALFEDoBYIgdALJEDIJbIARBL5ACIJXIAxBI5AGKJHACxRA6AWCIHQCyRAyCWyAEQS+QAiCVyAMQSOQBiiRwAsUQOgFgiB0AskQMglsgBEEvkAIglcgDEEjkAYokcALFEDoBYIgdALJEDIJbIARBL5ACIJXIAxBI5AGKJHACxRA6AWCIHQCyRAyCWyAEQS+QAiCVyAMQSOQBiiRwAsUQOgFgiB0AskQMglsgBEEvkAIglcgDEEjkAYokcALFEDoBYIgdALJEDIJbIARBL5ACIJXIAxBI5AGKJHACxRA6AWCIHQCyRAyCWyAEQS+QAiCVyAMQSOQBiiRwAsUQOgFgiB0AskQMglsgBEEvkAIglcgDEEjkAYokcALFEDoBYIgdALJEDIJbIARBL5ACIJXIAxBI5AGKJHACxRA6AWCIHQCyRAyCWyAEQS+QAiCVyAMQSOQBiiRwAsUQOgFj/AoJuUm6/vquwAAAAAElFTkSuQmCC;strokeColor=none;labelBackgroundColor=none;rounded=0;html=1;whiteSpace=wrap;" parent="1" vertex="1">
          <mxGeometry x="856" y="1400" width="25" height="27" as="geometry" />
        </mxCell>
        <mxCell id="142" style="vsdxID=172;fillColor=#85ca39;gradientColor=#92d050;gradientDirection=north;shape=stencil(tZLRDsIgDEW/hkcShPgFc/5H47qtEWEpqPPvhbDEMaMPJr7d9p4LDUWYJowwodAqRPZnvFMXR2EOQmtyIzLFpIRphWl6zziwv7qu1BNkMquLv+UT5pLbKZUzWj3q+lhgS+4LXKHAp+TwFuWF3S/1vI6qrSlhpiDZR4jkXYVa4AFlukX2FobKCnfE6a3901yf3uMvoyXx2ktP1pa1rv3tHlOr/AHTPgE=);strokeColor=#404040;labelBackgroundColor=#ffffff;rounded=0;html=1;whiteSpace=wrap;" parent="1" vertex="1">
          <mxGeometry x="845" y="1403" width="10" height="20" as="geometry" />
        </mxCell>
        <mxCell id="143" value="&lt;font style=&quot;font-size:14px;font-family:Calibri;color:#000000;direction:ltr;letter-spacing:0px;line-height:120%;opacity:1&quot;&gt;1&lt;br/&gt;&lt;/font&gt;" style="verticalAlign=middle;align=center;vsdxID=173;fillColor=none;gradientColor=none;shape=stencil(nZBLDoAgDERP0z3SIyjew0SURgSD+Lu9kMZoXLhwN9O+tukAlrNpJg1SzDH4QW/URgNYgZTkjA4UkwJUgGXng+6DX1zLfmoymdXo17xh5zmRJ6Q42BWCfc2oJfdAr+Yv+AP9Cb7OJ3H/2JG1HNGz/84klThPVCc=);strokeColor=none;labelBackgroundColor=none;rounded=0;html=1;whiteSpace=wrap;" parent="1" vertex="1">
          <mxGeometry x="844" y="1409" width="12" height="8" as="geometry" />
        </mxCell>
        <mxCell id="144" style="vsdxID=174;fillColor=#dd9426;gradientColor=#e1a040;gradientDirection=north;shape=stencil(tVFBDsIgEHwNRxKE+IJa/0Hstt2I0Cxo298L2SZKvRgTbzM7s+yEEaaJo51AaBUThSvM2KVRmJPQGv0IhCkjYVphmj4QDBTuvmM+2eIs6BYe5YWF91TZ0GpldlDMz2y1dMkaLbWoaHMfN77X97K0C0ZJIdmEwVd3naUBZL4je2eHSoozwPQx/ilZneuPsRz6b/82g1cnPTrHlb7r+w7ziPs37RM=);strokeColor=#404040;labelBackgroundColor=#ffffff;rounded=0;html=1;whiteSpace=wrap;" parent="1" vertex="1">
          <mxGeometry x="883" y="1403" width="10" height="20" as="geometry" />
        </mxCell>
        <mxCell id="145" value="&lt;font style=&quot;font-size:14px;font-family:Calibri;color:#000000;direction:ltr;letter-spacing:0px;line-height:120%;opacity:1&quot;&gt;2&lt;br/&gt;&lt;/font&gt;" style="verticalAlign=middle;align=center;vsdxID=175;fillColor=none;gradientColor=none;shape=stencil(nZBLDoAgDERP0z3SIyjew0SURgSD+Lu9kMZoXLhwN9O+tukAlrNpJg1SzDH4QW/URgNYgZTkjA4UkwJUgGXng+6DX1zLfmoymdXo17xh5zmRJ6Q42BWCfc2oJfdAr+Yv+AP9Cb7OJ3H/2JG1HNGz/84klThPVCc=);strokeColor=none;labelBackgroundColor=none;rounded=0;html=1;whiteSpace=wrap;" parent="1" vertex="1">
          <mxGeometry x="879" y="1405" width="16" height="13" as="geometry" />
        </mxCell>
        <mxCell id="146" style="vsdxID=176;fillColor=none;gradientColor=none;image;aspect=fixed;image=data:image/png,iVBORw0KGgoAAAANSUhEUgAAAkwAAALDCAIAAABo4MiZAAATIElEQVR4nO3da3LbOBCFUXkq+9+y54dSmYwfMiUSQPfFORuwywT6I2A5eXt/f78BQKJ/Vn8DADCKyAEQS+QAiCVyAMQSOQBiiRwAsUQOgFgiB0AskQMglsgBEEvkAIglcgDEEjkAYokcALFEDoBYIgdALJEDIJbIARBL5ACIJXIAxBI5AGKJHACxRA6AWCIHQCyRAyCWyAEQS+QAiCVyAMQSOQBiiRwAsUQOgFgiB0AskQMglsgBEEvkAIglcgDEEjkAYokcALFEDoBYIgdALJEDIJbIARBL5ACIJXIAxBI5AGKJHACxRA6AWCIHQCyRAyCWyAEQS+QAiCVyAMQSOQBiiRwAsUQOgFgiB0AskQMglsgBEEvkAIglcgDEEjkAYokcALFEDoBYIgdALJEDIJbIARBL5ACIJXIAxBI5AGKJHACxRA6AWCIHQCyRAyCWyAEQS+QAiCVyAMQSOQBiiRwAsUQOgFgiB0AskQMglsgBEEvkAIglcgDEEjkAYokcALFEDoBYIgdALJEDIJbIARBL5ACIJXIAxBI5AGKJHACxRA6AWCIHQCyRAyCWyAEQS+QAiCVyAMQSOQBiiRwAsUQOgFgiB0AskQMglsgBEEvkAIglcgDEEjkAYokcALFEDoBYIgdALJEDIJbIARBL5ACIJXIAxBI5AGKJHACxRA6AWCIHQCyRAyCWyAEQS+QAiCVyAMQSOQBiiRwAsUQOgFgiB0AskQMglsgBEEvkAIglcgDEEjkAYokcALFEDoBYIgdALJEDIJbIARBL5ACIJXIAxBI5AGKJHACxRA6AWCIHQKxfq78BKOft7W3yV3x/f5/8FWETb3YXm5uftIPsTThP5NhL2aQdYbfCs0SOZK2TdoT9C4+JHGniw/Ydexk+EzkSbBu279jXcCdyNKZtP7LB2ZzI0YywvcxmZ0MiRw/adiG7nn2IHKVp21C2P/FEjqLkbRpDgGAiRy3atpBpQB6Rowp5K8JMIInIsZi2lWU4EEDkWEbeWjAiaE3kWEDe2jEoaErkmEreWjMuaEfkmETeYhgaNCJyDCdvkYwOWhA5BpK3eAYIxYkcQ8jbVowRyvpn9TdAmre3N4XbjSdOWU5yXMakwzyhGic5rqFw3JzjqcdJjrMMNb5ktlCBkxynKBzfsTaowEmOFxlhHGTIsJCTHK9QOI6zWljISY7nGFi8zLRhPpHjCVsVbtrW8FOFcUSOQ+IHcamNkP3TLvWjJp7I8bO8mdtu2XsE8BqR45GY2Rq2zjOeS9hDoSaR41vdJ+kma9tjggdEjq/1HZ3bLmmPDD4TOT7qOCst4w/aPURPkEFEjv/pNRyt3h95oGxO5PhPl4Fo0b7Aw2VPIsdvLYag5XqSp8xuRI7brfzss0ov54mzCZGj9LyzPofy6IknclsrO+Msy8msBFKJ3L5qzjULciFLgjwit6mC48xSLMLaIIn/NHVHphgPFHwWBVcsXTjJbafavLACy7JUCCByGzGzeEGpZWPN8CyR24VRxRl11o/Fw1NEbgsmFJcospCsIo4TuXwGE9eqsKIsJw7y6UpmMJKSVHiaFUJLC05y4ZbPAgssmNVFfU5yycwghlr+fJevcOpzkou1fP8nLa1rf5hJP5m7tYst7+fJhZzkMi0fOubOVtY+7uXvc1QmcoGWF27hV2cVnaMmkUuzcLc7wG1u7QLQOb4kclHWFm7Vl6YUnaMUkcuxaoc7wPHBwiWhc3wgciEWFm7J16U+naMCkUugcNSkcywncu0pHJXpHGuJXG8KR306x0Ii19iSPexjJrxg1bLROUSuq1WFm/9FiWH9MJ/IcZQJxXnzV5HD3OZErqX5+1bhuIrOMZPI9aNwdKdzTCNyzUzeqz5mwiDzl5bO7UnkOplfuJlfjg3pHKOJHF9TOOaw0hhK5NqY+RJq7jDTzPXmMLcbketB4cimcwwicg0oHDvQOUYQueoUjn3oHJcTudLsQ4AzRI7fHOOowGGOa4lcXS4q2ZPOcSGRK0rh2JnOcRWR253CUZOVySVErqJpr5bmCJVNW58Oc8FErhyFgz90jpNEblMKRxfWKmeIXC1zXidNDXqZs2Id5iKJXCEKB9/ROV4jcntROPqyenmByFXhFRIqsBPDiFwJLirhCJeWPEvkdqFwZLCSeYrIrTfhtdFcIMmE9ewwF0PkFlM4eIHOcZDIARBL5FZyjIOXOcxxhMgto3Bwks7xI5GLpXDswDrnMZFbY/TroZ3PPkavdoe51kQOgFgit4BjHFzLYY7viFwahWNPVj5fErnZvBJCR3ZuUyI3lYtKGMelJZ+JXA6FA7uAD0RuHq+B0J1d3I7IhfACC3f2An8TuUmGvgDa1fC3oTvCYa4XkQMglsjN4BgHkznMcSdyvSkcfMfu4CZyE3jpgzz2dRci15gXVXjMHkHkxhr3umf3whHjdorDXAsiB0AskRvIMQ4qcJjbmcgBEEvkRnGMgzoc5rYlcgDEErkhHOOgGoe5PYkcALFErhPHODjDDtqQyF3P3QXsxq4vS+Ta8BIK59lHuxG5iw16obMz4SqDdpPDXE0iB0AskbuSYxy04DC3D5EDIJbIVecYByPYWZsQucu4qQDMgWpEDoBYIncNHzmBdnz8ZAciB0AskavLMQ5Gs8viidwF3E4AfzMT6hA5YGsOc9lErigbD+A8kTvLvQTwmclQhMhV5BgHM9lxwUQOgFgid8qIGwkvlTDfiH3nxrICkQMglsgB3G4uUUKJXC22GcCFRO51LtyBx0yJ5UQO4DdXKXlErhAbDOBaIvcitxDAEWbFWiIHQCyRq8JdJVRgJ4YRuVe4fwCOMzEWEjkAYolcCW5IoA77MYnIARBL5J7meh14lrmxisit524EqrErY4gcALFEDoBYIreYWxGoyd7MIHLP8dtj4DWmxxIiB0AskQMglsit5NIfKrNDA4jcE1ypA2eYIfOJHACxRA6AWCIHQCyRW8bvtKE++7Q7kTvKb4yB80ySyUQOgFgiB0AskVvDRT90Ybe2JnIAxBI5AGKJ3CE+EAVcxTyZSeQAiCVyC/g9NvRiz/YlcgDEEjkAYokcALFEDoBYIgdALJH7mT9qAa5lqkwjcgDEErnZ/MENdGTnNiVyAMQSOQBiiRwAsUQOgFgiB0AskfuBP2cBRjBb5hA5AGKJ3FT+1Ab6sn87EjkAYokcALFEDoBYIgdALJEDINav1d8AT/CHNRk8x1V8PHJDTnIAxBI5AGKJHACxRA6AWCIHQCyRAyCWyAEQS+QAiCVyAMQSOQBiiRwAsUQOgFgiB0AskXvEvxYP0JrIPeI/5gBoTeQAiCVyAMQSOQBiiRwAsUQOgFgiB0AskQMglsgBEEvkAIglcgDEEjkAYokcALFEDoBYv1Z/AzzB/4qwyrX/6ZLnCNM4yQEQS+QAiCVyAMQSOQBiiRwAsURuqms/pAfMZP92JHIAxBK5H/iTJmAEs2UOkQMglsgBEEvkAIglcgDEEjkAYoncbP7UBjqyc5sSOQBiidzP/DkLcC1TZRqRAyCWyAEQS+QAiCVyAMQSOQBiidwC/uAGerFn+xI5AGKJ3CH+qAW4inkyk8gBEEvkAIglcmv4PTZ0Ybe2JnIAxBI5AGKJ3FE+EAWcZ5JMJnLLuOiH+uzT7kQOgFgiB0AskQMglsg9wW+MgTPMkPlEbiW/04bK7NAAIgdALJEDIJbIPceVOvAa02MJkVvMpT/UZG9mEDkAYokcALFEbj23IlCNXRlD5J7mt8fAs8yNVUQOgFgiV4K7EajDfkwicgDEErlXuF4HjjMxFhK5KtyQQAV2YhiRAyCWyL3I/QNwhFmxlsgV4p4E4FoiB/CbF808Ivc6txDAY6bEciIHQCyRq8VtCaxi90USOQBiidwpIy7cvU7CfCP2nV/IVSByAMQSuYoc5mAmOy6YyJ3lRgL4zGQoQuQAiCVyRbk/gTnstWwidwH3EsDfzIQ6RK4uL5gwml0WT+QAiCVy1xh0O+E1E8YZtL/cVZYicgDEErnLeH0DzIFqRK46N5Ywgp21CZEDuIZjXEEidyUfP4EW7Kl9iBwAsUTuYg5zUJy/HNiKyAEQS+Su5zAHZTnG7UbkOtE5OMMO2pDIARBL5IYYd3fhVRReM27vuKusTOQAiCVyozjMQR2OcdsSOQBiidxADnNQgWPczkQOgFgiN5bDHKzlGLc5kWtM5+AxewSRG87rHuSxr7sQud68qMJ37A5uIjfH0Jc+Oxk+G7ovHOMaETkAYoncJA5zMI1jHH+IXAidgzt7gb+J3DxeAKE7u7gdkcvhBRZcVPKByE01epPoHDuz/vlM5GbzMggd2blNiVwaL7PsycrnSyK3gEtLuNboNe8Y15fIARBL5NZwmIOrOMbxgMjF0jl2YJ3zmMgtM+H10P4n24QV7hjXncitZP9AZXZoAJEL5zBHKmubI0RuMZeW8AIXlRwkcuvpHDxF4ThO5Hahc2SwknmKyJXgtRHqsB+TiFwVLi3hRy4qeZbI7UXn6Mvq5QUiV8icV0iTgo7mrFvHuDwiV4vOwWcKx8tEblM6RxfWKmeIXDnTXifNDuqbtkod41KJXEU6BzeF4woiB0AskSvKYY7NOcZxCZGrS+fYlsJxFZErTefYkMJxIZHjN52jAuuQa4lcdTNfNs0X1pq5Ah3jNiFyDegcO1A4RhC5HnSObArHICLXhs6RSuEYR+T4ms4xh5XGUCLXyeSXUNOH0SavMce4DYlcMzpHDIVjApHrZ37npI5rzV9UCrctkWtp/o7VOa4yfy0p3M5EjqN0jvMUjslErqslW1fnOMP6YT6Ra0znaGTJynGMQ+R6W9U5qeO4VQtG4biJXIBVO1nnOGLVOlE47kQugc5Rk8KxnMiF0DmqUTgqELkcCzsndXygcBQhclEW7nCd427hS4/C8ZnIpdE5Flq4BhSOL4lcoLWdk7o9rX30Csd33iyOVGtjY11txWKjLJFLtvxQZXXFs8YoznVlsuX7f/kEZKjlz3f5Cqc+J7l8yyfRzTCKY1HRhZNcvgqzoMJM5CoVnmaFVU0Lv1Z/A+ziPhnNptYq5O1mFfEM15W7KDKe7qy6duqsH4uHp4jcRurMqTtrr4VSy8aa4Vkit51SM+tmbNVWarVYKrzAB0+2U21SlBqj/FHtH6+ptm7pwkluU6Xm152lWIS1QRKR21fBWXYzzpayJMgjclurOdRu5tp0VgKpRI66A+5mxg3m0RNP5Ljdag+7m3k3gCfOJkSO34pPvTvL9SRPmd2IHP9pMQFvhuBLPFz2JHL8T5dReGf1/sgDZXMix0e9xuKdZfyBhwh3IsfXOk7J2/aD0lODD0SObzWdmH9ssrY9JnhA5Hik+wD9I2ydey5wkMjxs5iRetd0zXsK8AKR45CwCftBwV3gBw6XEDmekD15P5i2NfxUYRyR4zlbTWSuZdown8jxCqnjKeYMq/ifwXmFmcVxVgsLOclxiiMdDxgvLOckxymmGN+xNqhA5DjLLOOD9/d3q4IiXFdyGVeXmCdU4yTHZby/b87TpyAnOYZwqtuKMUJZIsdAUhfPAKE4kWM4qYtkdNCCyDGJ1MUwNGhE5JhK6lozLmhH5FhA6toxKGhK5FhG6lowImhN5FhM6soyHAggclShdkWYCSQROWqRuoVMA/KIHEWp3TSGAMFEjtKkbijbn3giRw9qdyG7nn2IHM2o3ctsdjYkcjQmeD+ywdmcyJFA7T6wr+FO5EizbfDsZfhM5EgWHzz7Fx4TOTYS0DwbFp4icuyubPnsTThP5OCjJdmzE2EEkQMg1j+rvwEAGEXkAIglcgDEEjkAYokcALFEDoBYIgdALJEDIJbIARBL5ACIJXIAxBI5AGKJHACxRA6AWCIHQCyRAyCWyAEQS+QAiCVyAMQSOQBiiRwAsUQOgFgiB0AskQMglsgBEEvkAIglcgDEEjkAYokcALFEDoBYIgdALJEDIJbIARBL5ACIJXIAxBI5AGKJHACxRA6AWCIHQCyRAyCWyAEQS+QAiCVyAMQSOQBiiRwAsUQOgFgiB0AskQMglsgBEEvkAIglcgDEEjkAYokcALFEDoBYIgdALJEDIJbIARBL5ACIJXIAxBI5AGKJHACxRA6AWCIHQCyRAyCWyAEQS+QAiCVyAMQSOQBiiRwAsUQOgFgiB0AskQMglsgBEEvkAIglcgDEEjkAYokcALFEDoBYIgdALJEDIJbIARBL5ACIJXIAxBI5AGKJHACxRA6AWCIHQCyRAyCWyAEQS+QAiCVyAMQSOQBiiRwAsUQOgFgiB0AskQMglsgBEEvkAIglcgDEEjkAYokcALFEDoBYIgdALJEDIJbIARBL5ACIJXIAxBI5AGKJHACxRA6AWCIHQCyRAyCWyAEQS+QAiCVyAMQSOQBiiRwAsUQOgFgiB0AskQMglsgBEEvkAIglcgDEEjkAYokcALFEDoBYIgdALJEDIJbIARBL5ACIJXIAxBI5AGKJHACxRA6AWCIHQCyRAyCWyAEQS+QAiCVyAMQSOQBiiRwAsUQOgFj/AoJuUm6/vquwAAAAAElFTkSuQmCC;strokeColor=none;labelBackgroundColor=none;rounded=0;html=1;whiteSpace=wrap;" parent="1" vertex="1">
          <mxGeometry x="923" y="1399" width="25" height="27" as="geometry" />
        </mxCell>
        <mxCell id="147" style="vsdxID=177;fillColor=#dd9426;gradientColor=#e1a040;gradientDirection=north;shape=stencil(tZLRDsIgDEW/hkcShPgFc/5H47qtEWEpqPPvhbDEMaMPJr7d9p4LDUWYJowwodAqRPZnvFMXR2EOQmtyIzLFpIRphWl6zziwv7qu1BNkMquLv+UT5pLbKZUzWj3q+lhgS+4LXKHAp+TwFuWF3S/1vI6qrSlhpiDZR4jkXYVa4AFlukX2FobKCnfE6a3901yf3uMvoyXx2ktP1pa1rv3tHlOr/AHTPgE=);strokeColor=#404040;labelBackgroundColor=#ffffff;rounded=0;html=1;whiteSpace=wrap;" parent="1" vertex="1">
          <mxGeometry x="912" y="1403" width="10" height="20" as="geometry" />
        </mxCell>
        <mxCell id="148" value="&lt;font style=&quot;font-size:14px;font-family:Calibri;color:#000000;direction:ltr;letter-spacing:0px;line-height:120%;opacity:1&quot;&gt;2&lt;br/&gt;&lt;/font&gt;" style="verticalAlign=middle;align=center;vsdxID=178;fillColor=none;gradientColor=none;shape=stencil(nZBLDoAgDERP0z3SIyjew0SURgSD+Lu9kMZoXLhwN9O+tukAlrNpJg1SzDH4QW/URgNYgZTkjA4UkwJUgGXng+6DX1zLfmoymdXo17xh5zmRJ6Q42BWCfc2oJfdAr+Yv+AP9Cb7OJ3H/2JG1HNGz/84klThPVCc=);strokeColor=none;labelBackgroundColor=none;rounded=0;html=1;whiteSpace=wrap;" parent="1" vertex="1">
          <mxGeometry x="912" y="1408" width="12" height="8" as="geometry" />
        </mxCell>
        <mxCell id="149" style="vsdxID=179;fillColor=#77c1d5;gradientColor=#4bacc6;gradientDirection=north;shape=stencil(tVFBDsIgEHwNRxKE+IJa/0Hstt2I0Cxo298L2SZKvRgTbzM7s+yEEaaJo51AaBUThSvM2KVRmJPQGv0IhCkjYVphmj4QDBTuvmM+2eIs6BYe5YWF91TZ0GpldlDMz2y1dMkaLbWoaHMfN77X97K0C0ZJIdmEwVd3naUBZL4je2eHSoozwPQx/ilZneuPsRz6b/82g1cnPTrHlb7r+w7ziPs37RM=);strokeColor=#404040;labelBackgroundColor=#ffffff;rounded=0;html=1;whiteSpace=wrap;" parent="1" vertex="1">
          <mxGeometry x="949" y="1403" width="10" height="20" as="geometry" />
        </mxCell>
        <mxCell id="150" value="&lt;font style=&quot;font-size:14px;font-family:Calibri;color:#000000;direction:ltr;letter-spacing:0px;line-height:120%;opacity:1&quot;&gt;3&lt;br/&gt;&lt;/font&gt;" style="verticalAlign=middle;align=center;vsdxID=180;fillColor=none;gradientColor=none;shape=stencil(nZBLDoAgDERP0z3SIyjew0SURgSD+Lu9kMZoXLhwN9O+tukAlrNpJg1SzDH4QW/URgNYgZTkjA4UkwJUgGXng+6DX1zLfmoymdXo17xh5zmRJ6Q42BWCfc2oJfdAr+Yv+AP9Cb7OJ3H/2JG1HNGz/84klThPVCc=);strokeColor=none;labelBackgroundColor=none;rounded=0;html=1;whiteSpace=wrap;" parent="1" vertex="1">
          <mxGeometry x="946" y="1405" width="16" height="13" as="geometry" />
        </mxCell>
        <mxCell id="151" style="vsdxID=181;fillColor=none;gradientColor=none;image;aspect=fixed;image=data:image/png,iVBORw0KGgoAAAANSUhEUgAAAkwAAALDCAIAAABo4MiZAAATIElEQVR4nO3da3LbOBCFUXkq+9+y54dSmYwfMiUSQPfFORuwywT6I2A5eXt/f78BQKJ/Vn8DADCKyAEQS+QAiCVyAMQSOQBiiRwAsUQOgFgiB0AskQMglsgBEEvkAIglcgDEEjkAYokcALFEDoBYIgdALJEDIJbIARBL5ACIJXIAxBI5AGKJHACxRA6AWCIHQCyRAyCWyAEQS+QAiCVyAMQSOQBiiRwAsUQOgFgiB0AskQMglsgBEEvkAIglcgDEEjkAYokcALFEDoBYIgdALJEDIJbIARBL5ACIJXIAxBI5AGKJHACxRA6AWCIHQCyRAyCWyAEQS+QAiCVyAMQSOQBiiRwAsUQOgFgiB0AskQMglsgBEEvkAIglcgDEEjkAYokcALFEDoBYIgdALJEDIJbIARBL5ACIJXIAxBI5AGKJHACxRA6AWCIHQCyRAyCWyAEQS+QAiCVyAMQSOQBiiRwAsUQOgFgiB0AskQMglsgBEEvkAIglcgDEEjkAYokcALFEDoBYIgdALJEDIJbIARBL5ACIJXIAxBI5AGKJHACxRA6AWCIHQCyRAyCWyAEQS+QAiCVyAMQSOQBiiRwAsUQOgFgiB0AskQMglsgBEEvkAIglcgDEEjkAYokcALFEDoBYIgdALJEDIJbIARBL5ACIJXIAxBI5AGKJHACxRA6AWCIHQCyRAyCWyAEQS+QAiCVyAMQSOQBiiRwAsUQOgFgiB0AskQMglsgBEEvkAIglcgDEEjkAYokcALFEDoBYIgdALJEDIJbIARBL5ACIJXIAxBI5AGKJHACxRA6AWCIHQKxfq78BKOft7W3yV3x/f5/8FWETb3YXm5uftIPsTThP5NhL2aQdYbfCs0SOZK2TdoT9C4+JHGniw/Ydexk+EzkSbBu279jXcCdyNKZtP7LB2ZzI0YywvcxmZ0MiRw/adiG7nn2IHKVp21C2P/FEjqLkbRpDgGAiRy3atpBpQB6Rowp5K8JMIInIsZi2lWU4EEDkWEbeWjAiaE3kWEDe2jEoaErkmEreWjMuaEfkmETeYhgaNCJyDCdvkYwOWhA5BpK3eAYIxYkcQ8jbVowRyvpn9TdAmre3N4XbjSdOWU5yXMakwzyhGic5rqFw3JzjqcdJjrMMNb5ktlCBkxynKBzfsTaowEmOFxlhHGTIsJCTHK9QOI6zWljISY7nGFi8zLRhPpHjCVsVbtrW8FOFcUSOQ+IHcamNkP3TLvWjJp7I8bO8mdtu2XsE8BqR45GY2Rq2zjOeS9hDoSaR41vdJ+kma9tjggdEjq/1HZ3bLmmPDD4TOT7qOCst4w/aPURPkEFEjv/pNRyt3h95oGxO5PhPl4Fo0b7Aw2VPIsdvLYag5XqSp8xuRI7brfzss0ov54mzCZGj9LyzPofy6IknclsrO+Msy8msBFKJ3L5qzjULciFLgjwit6mC48xSLMLaIIn/NHVHphgPFHwWBVcsXTjJbafavLACy7JUCCByGzGzeEGpZWPN8CyR24VRxRl11o/Fw1NEbgsmFJcospCsIo4TuXwGE9eqsKIsJw7y6UpmMJKSVHiaFUJLC05y4ZbPAgssmNVFfU5yycwghlr+fJevcOpzkou1fP8nLa1rf5hJP5m7tYst7+fJhZzkMi0fOubOVtY+7uXvc1QmcoGWF27hV2cVnaMmkUuzcLc7wG1u7QLQOb4kclHWFm7Vl6YUnaMUkcuxaoc7wPHBwiWhc3wgciEWFm7J16U+naMCkUugcNSkcywncu0pHJXpHGuJXG8KR306x0Ii19iSPexjJrxg1bLROUSuq1WFm/9FiWH9MJ/IcZQJxXnzV5HD3OZErqX5+1bhuIrOMZPI9aNwdKdzTCNyzUzeqz5mwiDzl5bO7UnkOplfuJlfjg3pHKOJHF9TOOaw0hhK5NqY+RJq7jDTzPXmMLcbketB4cimcwwicg0oHDvQOUYQueoUjn3oHJcTudLsQ4AzRI7fHOOowGGOa4lcXS4q2ZPOcSGRK0rh2JnOcRWR253CUZOVySVErqJpr5bmCJVNW58Oc8FErhyFgz90jpNEblMKRxfWKmeIXC1zXidNDXqZs2Id5iKJXCEKB9/ROV4jcntROPqyenmByFXhFRIqsBPDiFwJLirhCJeWPEvkdqFwZLCSeYrIrTfhtdFcIMmE9ewwF0PkFlM4eIHOcZDIARBL5FZyjIOXOcxxhMgto3Bwks7xI5GLpXDswDrnMZFbY/TroZ3PPkavdoe51kQOgFgit4BjHFzLYY7viFwahWNPVj5fErnZvBJCR3ZuUyI3lYtKGMelJZ+JXA6FA7uAD0RuHq+B0J1d3I7IhfACC3f2An8TuUmGvgDa1fC3oTvCYa4XkQMglsjN4BgHkznMcSdyvSkcfMfu4CZyE3jpgzz2dRci15gXVXjMHkHkxhr3umf3whHjdorDXAsiB0AskRvIMQ4qcJjbmcgBEEvkRnGMgzoc5rYlcgDEErkhHOOgGoe5PYkcALFErhPHODjDDtqQyF3P3QXsxq4vS+Ta8BIK59lHuxG5iw16obMz4SqDdpPDXE0iB0AskbuSYxy04DC3D5EDIJbIVecYByPYWZsQucu4qQDMgWpEDoBYIncNHzmBdnz8ZAciB0AskavLMQ5Gs8viidwF3E4AfzMT6hA5YGsOc9lErigbD+A8kTvLvQTwmclQhMhV5BgHM9lxwUQOgFgid8qIGwkvlTDfiH3nxrICkQMglsgB3G4uUUKJXC22GcCFRO51LtyBx0yJ5UQO4DdXKXlErhAbDOBaIvcitxDAEWbFWiIHQCyRq8JdJVRgJ4YRuVe4fwCOMzEWEjkAYolcCW5IoA77MYnIARBL5J7meh14lrmxisit524EqrErY4gcALFEDoBYIreYWxGoyd7MIHLP8dtj4DWmxxIiB0AskQMglsit5NIfKrNDA4jcE1ypA2eYIfOJHACxRA6AWCIHQCyRW8bvtKE++7Q7kTvKb4yB80ySyUQOgFgiB0AskVvDRT90Ybe2JnIAxBI5AGKJ3CE+EAVcxTyZSeQAiCVyC/g9NvRiz/YlcgDEEjkAYokcALFEDoBYIgdALJH7mT9qAa5lqkwjcgDEErnZ/MENdGTnNiVyAMQSOQBiiRwAsUQOgFgiB0AskfuBP2cBRjBb5hA5AGKJ3FT+1Ab6sn87EjkAYokcALFEDoBYIgdALJEDINav1d8AT/CHNRk8x1V8PHJDTnIAxBI5AGKJHACxRA6AWCIHQCyRAyCWyAEQS+QAiCVyAMQSOQBiiRwAsUQOgFgiB0AskXvEvxYP0JrIPeI/5gBoTeQAiCVyAMQSOQBiiRwAsUQOgFgiB0AskQMglsgBEEvkAIglcgDEEjkAYokcALFEDoBYv1Z/AzzB/4qwyrX/6ZLnCNM4yQEQS+QAiCVyAMQSOQBiiRwAsURuqms/pAfMZP92JHIAxBK5H/iTJmAEs2UOkQMglsgBEEvkAIglcgDEEjkAYoncbP7UBjqyc5sSOQBiidzP/DkLcC1TZRqRAyCWyAEQS+QAiCVyAMQSOQBiidwC/uAGerFn+xI5AGKJ3CH+qAW4inkyk8gBEEvkAIglcmv4PTZ0Ybe2JnIAxBI5AGKJ3FE+EAWcZ5JMJnLLuOiH+uzT7kQOgFgiB0AskQMglsg9wW+MgTPMkPlEbiW/04bK7NAAIgdALJEDIJbIPceVOvAa02MJkVvMpT/UZG9mEDkAYokcALFEbj23IlCNXRlD5J7mt8fAs8yNVUQOgFgiV4K7EajDfkwicgDEErlXuF4HjjMxFhK5KtyQQAV2YhiRAyCWyL3I/QNwhFmxlsgV4p4E4FoiB/CbF808Ivc6txDAY6bEciIHQCyRq8VtCaxi90USOQBiidwpIy7cvU7CfCP2nV/IVSByAMQSuYoc5mAmOy6YyJ3lRgL4zGQoQuQAiCVyRbk/gTnstWwidwH3EsDfzIQ6RK4uL5gwml0WT+QAiCVy1xh0O+E1E8YZtL/cVZYicgDEErnLeH0DzIFqRK46N5Ywgp21CZEDuIZjXEEidyUfP4EW7Kl9iBwAsUTuYg5zUJy/HNiKyAEQS+Su5zAHZTnG7UbkOtE5OMMO2pDIARBL5IYYd3fhVRReM27vuKusTOQAiCVyozjMQR2OcdsSOQBiidxADnNQgWPczkQOgFgiN5bDHKzlGLc5kWtM5+AxewSRG87rHuSxr7sQud68qMJ37A5uIjfH0Jc+Oxk+G7ovHOMaETkAYoncJA5zMI1jHH+IXAidgzt7gb+J3DxeAKE7u7gdkcvhBRZcVPKByE01epPoHDuz/vlM5GbzMggd2blNiVwaL7PsycrnSyK3gEtLuNboNe8Y15fIARBL5NZwmIOrOMbxgMjF0jl2YJ3zmMgtM+H10P4n24QV7hjXncitZP9AZXZoAJEL5zBHKmubI0RuMZeW8AIXlRwkcuvpHDxF4ThO5Hahc2SwknmKyJXgtRHqsB+TiFwVLi3hRy4qeZbI7UXn6Mvq5QUiV8icV0iTgo7mrFvHuDwiV4vOwWcKx8tEblM6RxfWKmeIXDnTXifNDuqbtkod41KJXEU6BzeF4woiB0AskSvKYY7NOcZxCZGrS+fYlsJxFZErTefYkMJxIZHjN52jAuuQa4lcdTNfNs0X1pq5Ah3jNiFyDegcO1A4RhC5HnSObArHICLXhs6RSuEYR+T4ms4xh5XGUCLXyeSXUNOH0SavMce4DYlcMzpHDIVjApHrZ37npI5rzV9UCrctkWtp/o7VOa4yfy0p3M5EjqN0jvMUjslErqslW1fnOMP6YT6Ra0znaGTJynGMQ+R6W9U5qeO4VQtG4biJXIBVO1nnOGLVOlE47kQugc5Rk8KxnMiF0DmqUTgqELkcCzsndXygcBQhclEW7nCd427hS4/C8ZnIpdE5Flq4BhSOL4lcoLWdk7o9rX30Csd33iyOVGtjY11txWKjLJFLtvxQZXXFs8YoznVlsuX7f/kEZKjlz3f5Cqc+J7l8yyfRzTCKY1HRhZNcvgqzoMJM5CoVnmaFVU0Lv1Z/A+ziPhnNptYq5O1mFfEM15W7KDKe7qy6duqsH4uHp4jcRurMqTtrr4VSy8aa4Vkit51SM+tmbNVWarVYKrzAB0+2U21SlBqj/FHtH6+ptm7pwkluU6Xm152lWIS1QRKR21fBWXYzzpayJMgjclurOdRu5tp0VgKpRI66A+5mxg3m0RNP5Ljdag+7m3k3gCfOJkSO34pPvTvL9SRPmd2IHP9pMQFvhuBLPFz2JHL8T5dReGf1/sgDZXMix0e9xuKdZfyBhwh3IsfXOk7J2/aD0lODD0SObzWdmH9ssrY9JnhA5Hik+wD9I2ydey5wkMjxs5iRetd0zXsK8AKR45CwCftBwV3gBw6XEDmekD15P5i2NfxUYRyR4zlbTWSuZdown8jxCqnjKeYMq/ifwXmFmcVxVgsLOclxiiMdDxgvLOckxymmGN+xNqhA5DjLLOOD9/d3q4IiXFdyGVeXmCdU4yTHZby/b87TpyAnOYZwqtuKMUJZIsdAUhfPAKE4kWM4qYtkdNCCyDGJ1MUwNGhE5JhK6lozLmhH5FhA6toxKGhK5FhG6lowImhN5FhM6soyHAggclShdkWYCSQROWqRuoVMA/KIHEWp3TSGAMFEjtKkbijbn3giRw9qdyG7nn2IHM2o3ctsdjYkcjQmeD+ywdmcyJFA7T6wr+FO5EizbfDsZfhM5EgWHzz7Fx4TOTYS0DwbFp4icuyubPnsTThP5OCjJdmzE2EEkQMg1j+rvwEAGEXkAIglcgDEEjkAYokcALFEDoBYIgdALJEDIJbIARBL5ACIJXIAxBI5AGKJHACxRA6AWCIHQCyRAyCWyAEQS+QAiCVyAMQSOQBiiRwAsUQOgFgiB0AskQMglsgBEEvkAIglcgDEEjkAYokcALFEDoBYIgdALJEDIJbIARBL5ACIJXIAxBI5AGKJHACxRA6AWCIHQCyRAyCWyAEQS+QAiCVyAMQSOQBiiRwAsUQOgFgiB0AskQMglsgBEEvkAIglcgDEEjkAYokcALFEDoBYIgdALJEDIJbIARBL5ACIJXIAxBI5AGKJHACxRA6AWCIHQCyRAyCWyAEQS+QAiCVyAMQSOQBiiRwAsUQOgFgiB0AskQMglsgBEEvkAIglcgDEEjkAYokcALFEDoBYIgdALJEDIJbIARBL5ACIJXIAxBI5AGKJHACxRA6AWCIHQCyRAyCWyAEQS+QAiCVyAMQSOQBiiRwAsUQOgFgiB0AskQMglsgBEEvkAIglcgDEEjkAYokcALFEDoBYIgdALJEDIJbIARBL5ACIJXIAxBI5AGKJHACxRA6AWCIHQCyRAyCWyAEQS+QAiCVyAMQSOQBiiRwAsUQOgFgiB0AskQMglsgBEEvkAIglcgDEEjkAYokcALFEDoBYIgdALJEDIJbIARBL5ACIJXIAxBI5AGKJHACxRA6AWCIHQCyRAyCWyAEQS+QAiCVyAMQSOQBiiRwAsUQOgFj/AoJuUm6/vquwAAAAAElFTkSuQmCC;strokeColor=none;labelBackgroundColor=none;rounded=0;html=1;whiteSpace=wrap;" parent="1" vertex="1">
          <mxGeometry x="988" y="1400" width="25" height="27" as="geometry" />
        </mxCell>
        <mxCell id="152" style="vsdxID=182;fillColor=#77c1d5;gradientColor=#4bacc6;gradientDirection=north;shape=stencil(tZLRDsIgDEW/hkcShPgFc/5H47qtEWEpqPPvhbDEMaMPJr7d9p4LDUWYJowwodAqRPZnvFMXR2EOQmtyIzLFpIRphWl6zziwv7qu1BNkMquLv+UT5pLbKZUzWj3q+lhgS+4LXKHAp+TwFuWF3S/1vI6qrSlhpiDZR4jkXYVa4AFlukX2FobKCnfE6a3901yf3uMvoyXx2ktP1pa1rv3tHlOr/AHTPgE=);strokeColor=#404040;labelBackgroundColor=#ffffff;rounded=0;html=1;whiteSpace=wrap;" parent="1" vertex="1">
          <mxGeometry x="977" y="1403" width="10" height="20" as="geometry" />
        </mxCell>
        <mxCell id="153" value="&lt;font style=&quot;font-size:14px;font-family:Calibri;color:#000000;direction:ltr;letter-spacing:0px;line-height:120%;opacity:1&quot;&gt;3&lt;br/&gt;&lt;/font&gt;" style="verticalAlign=middle;align=center;vsdxID=183;fillColor=none;gradientColor=none;shape=stencil(nZBLDoAgDERP0z3SIyjew0SURgSD+Lu9kMZoXLhwN9O+tukAlrNpJg1SzDH4QW/URgNYgZTkjA4UkwJUgGXng+6DX1zLfmoymdXo17xh5zmRJ6Q42BWCfc2oJfdAr+Yv+AP9Cb7OJ3H/2JG1HNGz/84klThPVCc=);strokeColor=none;labelBackgroundColor=none;rounded=0;html=1;whiteSpace=wrap;" parent="1" vertex="1">
          <mxGeometry x="976" y="1408" width="12" height="8" as="geometry" />
        </mxCell>
        <mxCell id="154" style="vsdxID=184;fillColor=#85ca39;gradientColor=#92d050;gradientDirection=north;shape=stencil(tVFBDsIgEHwNRxKE+IJa/0Hstt2I0Cxo298L2SZKvRgTbzM7s+yEEaaJo51AaBUThSvM2KVRmJPQGv0IhCkjYVphmj4QDBTuvmM+2eIs6BYe5YWF91TZ0GpldlDMz2y1dMkaLbWoaHMfN77X97K0C0ZJIdmEwVd3naUBZL4je2eHSoozwPQx/ilZneuPsRz6b/82g1cnPTrHlb7r+w7ziPs37RM=);strokeColor=#404040;labelBackgroundColor=#ffffff;rounded=0;html=1;whiteSpace=wrap;" parent="1" vertex="1">
          <mxGeometry x="1015" y="1403" width="10" height="20" as="geometry" />
        </mxCell>
        <mxCell id="155" value="&lt;font style=&quot;font-size:14px;font-family:Calibri;color:#000000;direction:ltr;letter-spacing:0px;line-height:120%;opacity:1&quot;&gt;1&lt;br/&gt;&lt;/font&gt;" style="verticalAlign=middle;align=center;vsdxID=185;fillColor=none;gradientColor=none;shape=stencil(nZBLDoAgDERP0z3SIyjew0SURgSD+Lu9kMZoXLhwN9O+tukAlrNpJg1SzDH4QW/URgNYgZTkjA4UkwJUgGXng+6DX1zLfmoymdXo17xh5zmRJ6Q42BWCfc2oJfdAr+Yv+AP9Cb7OJ3H/2JG1HNGz/84klThPVCc=);strokeColor=none;labelBackgroundColor=none;rounded=0;html=1;whiteSpace=wrap;" parent="1" vertex="1">
          <mxGeometry x="1011" y="1406" width="16" height="13" as="geometry" />
        </mxCell>
        <mxCell id="156" style="vsdxID=186;fillColor=#dd9426;gradientColor=#e1a040;gradientDirection=north;shape=stencil(tZLRDsIgDEW/hkcShPgFc/5H47qtEWEpqPPvhbDEMaMPJr7d9p4LDUWYJowwodAqRPZnvFMXR2EOQmtyIzLFpIRphWl6zziwv7qu1BNkMquLv+UT5pLbKZUzWj3q+lhgS+4LXKHAp+TwFuWF3S/1vI6qrSlhpiDZR4jkXYVa4AFlukX2FobKCnfE6a3901yf3uMvoyXx2ktP1pa1rv3tHlOr/AHTPgE=);strokeColor=#404040;labelBackgroundColor=#ffffff;rounded=0;html=1;whiteSpace=wrap;" parent="1" vertex="1">
          <mxGeometry x="572" y="1585" width="10" height="20" as="geometry" />
        </mxCell>
        <mxCell id="157" value="&lt;font style=&quot;font-size:14px;font-family:Calibri;color:#000000;direction:ltr;letter-spacing:0px;line-height:120%;opacity:1&quot;&gt;2&lt;br/&gt;&lt;/font&gt;" style="verticalAlign=middle;align=center;vsdxID=187;fillColor=none;gradientColor=none;shape=stencil(nZBLDoAgDERP0z3SIyjew0SURgSD+Lu9kMZoXLhwN9O+tukAlrNpJg1SzDH4QW/URgNYgZTkjA4UkwJUgGXng+6DX1zLfmoymdXo17xh5zmRJ6Q42BWCfc2oJfdAr+Yv+AP9Cb7OJ3H/2JG1HNGz/84klThPVCc=);strokeColor=none;labelBackgroundColor=none;rounded=0;html=1;whiteSpace=wrap;" parent="1" vertex="1">
          <mxGeometry x="571" y="1583" width="14" height="22" as="geometry" />
        </mxCell>
        <mxCell id="158" value="" style="verticalAlign=middle;align=center;vsdxID=188;fillColor=#dd9426;gradientColor=#e1a040;gradientDirection=north;shape=stencil(tVFBDsIgEHwNRxKE+IJa/0Hstt2I0Cxo298L2SZKvRgTbzM7s+yEEaaJo51AaBUThSvM2KVRmJPQGv0IhCkjYVphmj4QDBTuvmM+2eIs6BYe5YWF91TZ0GpldlDMz2y1dMkaLbWoaHMfN77X97K0C0ZJIdmEwVd3naUBZL4je2eHSoozwPQx/ilZneuPsRz6b/82g1cnPTrHlb7r+w7ziPs37RM=);strokeColor=#404040;labelBackgroundColor=#ffffff;rounded=0;html=1;whiteSpace=wrap;" parent="1" vertex="1">
          <mxGeometry x="601" y="1585" width="10" height="20" as="geometry" />
        </mxCell>
        <mxCell id="159" value="&lt;font style=&quot;font-size:14px;font-family:Calibri;color:#000000;direction:ltr;letter-spacing:0px;line-height:120%;opacity:1&quot;&gt;2&lt;br/&gt;&lt;/font&gt;" style="verticalAlign=middle;align=center;vsdxID=189;fillColor=none;gradientColor=none;shape=stencil(nZBLDoAgDERP0z3SIyjew0SURgSD+Lu9kMZoXLhwN9O+tukAlrNpJg1SzDH4QW/URgNYgZTkjA4UkwJUgGXng+6DX1zLfmoymdXo17xh5zmRJ6Q42BWCfc2oJfdAr+Yv+AP9Cb7OJ3H/2JG1HNGz/84klThPVCc=);strokeColor=none;labelBackgroundColor=none;rounded=0;html=1;whiteSpace=wrap;" parent="1" vertex="1">
          <mxGeometry x="598" y="1583" width="14" height="22" as="geometry" />
        </mxCell>
        <mxCell id="160" style="vsdxID=190;fillColor=none;gradientColor=none;image;aspect=fixed;image=data:image/png,iVBORw0KGgoAAAANSUhEUgAAAkwAAALDCAIAAABo4MiZAAATIElEQVR4nO3da3LbOBCFUXkq+9+y54dSmYwfMiUSQPfFORuwywT6I2A5eXt/f78BQKJ/Vn8DADCKyAEQS+QAiCVyAMQSOQBiiRwAsUQOgFgiB0AskQMglsgBEEvkAIglcgDEEjkAYokcALFEDoBYIgdALJEDIJbIARBL5ACIJXIAxBI5AGKJHACxRA6AWCIHQCyRAyCWyAEQS+QAiCVyAMQSOQBiiRwAsUQOgFgiB0AskQMglsgBEEvkAIglcgDEEjkAYokcALFEDoBYIgdALJEDIJbIARBL5ACIJXIAxBI5AGKJHACxRA6AWCIHQCyRAyCWyAEQS+QAiCVyAMQSOQBiiRwAsUQOgFgiB0AskQMglsgBEEvkAIglcgDEEjkAYokcALFEDoBYIgdALJEDIJbIARBL5ACIJXIAxBI5AGKJHACxRA6AWCIHQCyRAyCWyAEQS+QAiCVyAMQSOQBiiRwAsUQOgFgiB0AskQMglsgBEEvkAIglcgDEEjkAYokcALFEDoBYIgdALJEDIJbIARBL5ACIJXIAxBI5AGKJHACxRA6AWCIHQCyRAyCWyAEQS+QAiCVyAMQSOQBiiRwAsUQOgFgiB0AskQMglsgBEEvkAIglcgDEEjkAYokcALFEDoBYIgdALJEDIJbIARBL5ACIJXIAxBI5AGKJHACxRA6AWCIHQCyRAyCWyAEQS+QAiCVyAMQSOQBiiRwAsUQOgFgiB0AskQMglsgBEEvkAIglcgDEEjkAYokcALFEDoBYIgdALJEDIJbIARBL5ACIJXIAxBI5AGKJHACxRA6AWCIHQKxfq78BKOft7W3yV3x/f5/8FWETb3YXm5uftIPsTThP5NhL2aQdYbfCs0SOZK2TdoT9C4+JHGniw/Ydexk+EzkSbBu279jXcCdyNKZtP7LB2ZzI0YywvcxmZ0MiRw/adiG7nn2IHKVp21C2P/FEjqLkbRpDgGAiRy3atpBpQB6Rowp5K8JMIInIsZi2lWU4EEDkWEbeWjAiaE3kWEDe2jEoaErkmEreWjMuaEfkmETeYhgaNCJyDCdvkYwOWhA5BpK3eAYIxYkcQ8jbVowRyvpn9TdAmre3N4XbjSdOWU5yXMakwzyhGic5rqFw3JzjqcdJjrMMNb5ktlCBkxynKBzfsTaowEmOFxlhHGTIsJCTHK9QOI6zWljISY7nGFi8zLRhPpHjCVsVbtrW8FOFcUSOQ+IHcamNkP3TLvWjJp7I8bO8mdtu2XsE8BqR45GY2Rq2zjOeS9hDoSaR41vdJ+kma9tjggdEjq/1HZ3bLmmPDD4TOT7qOCst4w/aPURPkEFEjv/pNRyt3h95oGxO5PhPl4Fo0b7Aw2VPIsdvLYag5XqSp8xuRI7brfzss0ov54mzCZGj9LyzPofy6IknclsrO+Msy8msBFKJ3L5qzjULciFLgjwit6mC48xSLMLaIIn/NHVHphgPFHwWBVcsXTjJbafavLACy7JUCCByGzGzeEGpZWPN8CyR24VRxRl11o/Fw1NEbgsmFJcospCsIo4TuXwGE9eqsKIsJw7y6UpmMJKSVHiaFUJLC05y4ZbPAgssmNVFfU5yycwghlr+fJevcOpzkou1fP8nLa1rf5hJP5m7tYst7+fJhZzkMi0fOubOVtY+7uXvc1QmcoGWF27hV2cVnaMmkUuzcLc7wG1u7QLQOb4kclHWFm7Vl6YUnaMUkcuxaoc7wPHBwiWhc3wgciEWFm7J16U+naMCkUugcNSkcywncu0pHJXpHGuJXG8KR306x0Ii19iSPexjJrxg1bLROUSuq1WFm/9FiWH9MJ/IcZQJxXnzV5HD3OZErqX5+1bhuIrOMZPI9aNwdKdzTCNyzUzeqz5mwiDzl5bO7UnkOplfuJlfjg3pHKOJHF9TOOaw0hhK5NqY+RJq7jDTzPXmMLcbketB4cimcwwicg0oHDvQOUYQueoUjn3oHJcTudLsQ4AzRI7fHOOowGGOa4lcXS4q2ZPOcSGRK0rh2JnOcRWR253CUZOVySVErqJpr5bmCJVNW58Oc8FErhyFgz90jpNEblMKRxfWKmeIXC1zXidNDXqZs2Id5iKJXCEKB9/ROV4jcntROPqyenmByFXhFRIqsBPDiFwJLirhCJeWPEvkdqFwZLCSeYrIrTfhtdFcIMmE9ewwF0PkFlM4eIHOcZDIARBL5FZyjIOXOcxxhMgto3Bwks7xI5GLpXDswDrnMZFbY/TroZ3PPkavdoe51kQOgFgit4BjHFzLYY7viFwahWNPVj5fErnZvBJCR3ZuUyI3lYtKGMelJZ+JXA6FA7uAD0RuHq+B0J1d3I7IhfACC3f2An8TuUmGvgDa1fC3oTvCYa4XkQMglsjN4BgHkznMcSdyvSkcfMfu4CZyE3jpgzz2dRci15gXVXjMHkHkxhr3umf3whHjdorDXAsiB0AskRvIMQ4qcJjbmcgBEEvkRnGMgzoc5rYlcgDEErkhHOOgGoe5PYkcALFErhPHODjDDtqQyF3P3QXsxq4vS+Ta8BIK59lHuxG5iw16obMz4SqDdpPDXE0iB0AskbuSYxy04DC3D5EDIJbIVecYByPYWZsQucu4qQDMgWpEDoBYIncNHzmBdnz8ZAciB0AskavLMQ5Gs8viidwF3E4AfzMT6hA5YGsOc9lErigbD+A8kTvLvQTwmclQhMhV5BgHM9lxwUQOgFgid8qIGwkvlTDfiH3nxrICkQMglsgB3G4uUUKJXC22GcCFRO51LtyBx0yJ5UQO4DdXKXlErhAbDOBaIvcitxDAEWbFWiIHQCyRq8JdJVRgJ4YRuVe4fwCOMzEWEjkAYolcCW5IoA77MYnIARBL5J7meh14lrmxisit524EqrErY4gcALFEDoBYIreYWxGoyd7MIHLP8dtj4DWmxxIiB0AskQMglsit5NIfKrNDA4jcE1ypA2eYIfOJHACxRA6AWCIHQCyRW8bvtKE++7Q7kTvKb4yB80ySyUQOgFgiB0AskVvDRT90Ybe2JnIAxBI5AGKJ3CE+EAVcxTyZSeQAiCVyC/g9NvRiz/YlcgDEEjkAYokcALFEDoBYIgdALJH7mT9qAa5lqkwjcgDEErnZ/MENdGTnNiVyAMQSOQBiiRwAsUQOgFgiB0AskfuBP2cBRjBb5hA5AGKJ3FT+1Ab6sn87EjkAYokcALFEDoBYIgdALJEDINav1d8AT/CHNRk8x1V8PHJDTnIAxBI5AGKJHACxRA6AWCIHQCyRAyCWyAEQS+QAiCVyAMQSOQBiiRwAsUQOgFgiB0AskXvEvxYP0JrIPeI/5gBoTeQAiCVyAMQSOQBiiRwAsUQOgFgiB0AskQMglsgBEEvkAIglcgDEEjkAYokcALFEDoBYv1Z/AzzB/4qwyrX/6ZLnCNM4yQEQS+QAiCVyAMQSOQBiiRwAsURuqms/pAfMZP92JHIAxBK5H/iTJmAEs2UOkQMglsgBEEvkAIglcgDEEjkAYoncbP7UBjqyc5sSOQBiidzP/DkLcC1TZRqRAyCWyAEQS+QAiCVyAMQSOQBiidwC/uAGerFn+xI5AGKJ3CH+qAW4inkyk8gBEEvkAIglcmv4PTZ0Ybe2JnIAxBI5AGKJ3FE+EAWcZ5JMJnLLuOiH+uzT7kQOgFgiB0AskQMglsg9wW+MgTPMkPlEbiW/04bK7NAAIgdALJEDIJbIPceVOvAa02MJkVvMpT/UZG9mEDkAYokcALFEbj23IlCNXRlD5J7mt8fAs8yNVUQOgFgiV4K7EajDfkwicgDEErlXuF4HjjMxFhK5KtyQQAV2YhiRAyCWyL3I/QNwhFmxlsgV4p4E4FoiB/CbF808Ivc6txDAY6bEciIHQCyRq8VtCaxi90USOQBiidwpIy7cvU7CfCP2nV/IVSByAMQSuYoc5mAmOy6YyJ3lRgL4zGQoQuQAiCVyRbk/gTnstWwidwH3EsDfzIQ6RK4uL5gwml0WT+QAiCVy1xh0O+E1E8YZtL/cVZYicgDEErnLeH0DzIFqRK46N5Ywgp21CZEDuIZjXEEidyUfP4EW7Kl9iBwAsUTuYg5zUJy/HNiKyAEQS+Su5zAHZTnG7UbkOtE5OMMO2pDIARBL5IYYd3fhVRReM27vuKusTOQAiCVyozjMQR2OcdsSOQBiidxADnNQgWPczkQOgFgiN5bDHKzlGLc5kWtM5+AxewSRG87rHuSxr7sQud68qMJ37A5uIjfH0Jc+Oxk+G7ovHOMaETkAYoncJA5zMI1jHH+IXAidgzt7gb+J3DxeAKE7u7gdkcvhBRZcVPKByE01epPoHDuz/vlM5GbzMggd2blNiVwaL7PsycrnSyK3gEtLuNboNe8Y15fIARBL5NZwmIOrOMbxgMjF0jl2YJ3zmMgtM+H10P4n24QV7hjXncitZP9AZXZoAJEL5zBHKmubI0RuMZeW8AIXlRwkcuvpHDxF4ThO5Hahc2SwknmKyJXgtRHqsB+TiFwVLi3hRy4qeZbI7UXn6Mvq5QUiV8icV0iTgo7mrFvHuDwiV4vOwWcKx8tEblM6RxfWKmeIXDnTXifNDuqbtkod41KJXEU6BzeF4woiB0AskSvKYY7NOcZxCZGrS+fYlsJxFZErTefYkMJxIZHjN52jAuuQa4lcdTNfNs0X1pq5Ah3jNiFyDegcO1A4RhC5HnSObArHICLXhs6RSuEYR+T4ms4xh5XGUCLXyeSXUNOH0SavMce4DYlcMzpHDIVjApHrZ37npI5rzV9UCrctkWtp/o7VOa4yfy0p3M5EjqN0jvMUjslErqslW1fnOMP6YT6Ra0znaGTJynGMQ+R6W9U5qeO4VQtG4biJXIBVO1nnOGLVOlE47kQugc5Rk8KxnMiF0DmqUTgqELkcCzsndXygcBQhclEW7nCd427hS4/C8ZnIpdE5Flq4BhSOL4lcoLWdk7o9rX30Csd33iyOVGtjY11txWKjLJFLtvxQZXXFs8YoznVlsuX7f/kEZKjlz3f5Cqc+J7l8yyfRzTCKY1HRhZNcvgqzoMJM5CoVnmaFVU0Lv1Z/A+ziPhnNptYq5O1mFfEM15W7KDKe7qy6duqsH4uHp4jcRurMqTtrr4VSy8aa4Vkit51SM+tmbNVWarVYKrzAB0+2U21SlBqj/FHtH6+ptm7pwkluU6Xm152lWIS1QRKR21fBWXYzzpayJMgjclurOdRu5tp0VgKpRI66A+5mxg3m0RNP5Ljdag+7m3k3gCfOJkSO34pPvTvL9SRPmd2IHP9pMQFvhuBLPFz2JHL8T5dReGf1/sgDZXMix0e9xuKdZfyBhwh3IsfXOk7J2/aD0lODD0SObzWdmH9ssrY9JnhA5Hik+wD9I2ydey5wkMjxs5iRetd0zXsK8AKR45CwCftBwV3gBw6XEDmekD15P5i2NfxUYRyR4zlbTWSuZdown8jxCqnjKeYMq/ifwXmFmcVxVgsLOclxiiMdDxgvLOckxymmGN+xNqhA5DjLLOOD9/d3q4IiXFdyGVeXmCdU4yTHZby/b87TpyAnOYZwqtuKMUJZIsdAUhfPAKE4kWM4qYtkdNCCyDGJ1MUwNGhE5JhK6lozLmhH5FhA6toxKGhK5FhG6lowImhN5FhM6soyHAggclShdkWYCSQROWqRuoVMA/KIHEWp3TSGAMFEjtKkbijbn3giRw9qdyG7nn2IHM2o3ctsdjYkcjQmeD+ywdmcyJFA7T6wr+FO5EizbfDsZfhM5EgWHzz7Fx4TOTYS0DwbFp4icuyubPnsTThP5OCjJdmzE2EEkQMg1j+rvwEAGEXkAIglcgDEEjkAYokcALFEDoBYIgdALJEDIJbIARBL5ACIJXIAxBI5AGKJHACxRA6AWCIHQCyRAyCWyAEQS+QAiCVyAMQSOQBiiRwAsUQOgFgiB0AskQMglsgBEEvkAIglcgDEEjkAYokcALFEDoBYIgdALJEDIJbIARBL5ACIJXIAxBI5AGKJHACxRA6AWCIHQCyRAyCWyAEQS+QAiCVyAMQSOQBiiRwAsUQOgFgiB0AskQMglsgBEEvkAIglcgDEEjkAYokcALFEDoBYIgdALJEDIJbIARBL5ACIJXIAxBI5AGKJHACxRA6AWCIHQCyRAyCWyAEQS+QAiCVyAMQSOQBiiRwAsUQOgFgiB0AskQMglsgBEEvkAIglcgDEEjkAYokcALFEDoBYIgdALJEDIJbIARBL5ACIJXIAxBI5AGKJHACxRA6AWCIHQCyRAyCWyAEQS+QAiCVyAMQSOQBiiRwAsUQOgFgiB0AskQMglsgBEEvkAIglcgDEEjkAYokcALFEDoBYIgdALJEDIJbIARBL5ACIJXIAxBI5AGKJHACxRA6AWCIHQCyRAyCWyAEQS+QAiCVyAMQSOQBiiRwAsUQOgFgiB0AskQMglsgBEEvkAIglcgDEEjkAYokcALFEDoBYIgdALJEDIJbIARBL5ACIJXIAxBI5AGKJHACxRA6AWCIHQCyRAyCWyAEQS+QAiCVyAMQSOQBiiRwAsUQOgFj/AoJuUm6/vquwAAAAAElFTkSuQmCC;strokeColor=none;labelBackgroundColor=none;rounded=0;html=1;whiteSpace=wrap;" parent="1" vertex="1">
          <mxGeometry x="801" y="846" width="25" height="27" as="geometry" />
        </mxCell>
        <mxCell id="161" style="vsdxID=191;fillColor=#dd9426;gradientColor=#e1a040;gradientDirection=north;shape=stencil(tZLRDsIgDEW/hkcShPgFc/5H47qtEWEpqPPvhbDEMaMPJr7d9p4LDUWYJowwodAqRPZnvFMXR2EOQmtyIzLFpIRphWl6zziwv7qu1BNkMquLv+UT5pLbKZUzWj3q+lhgS+4LXKHAp+TwFuWF3S/1vI6qrSlhpiDZR4jkXYVa4AFlukX2FobKCnfE6a3901yf3uMvoyXx2ktP1pa1rv3tHlOr/AHTPgE=);strokeColor=#404040;labelBackgroundColor=#ffffff;rounded=0;html=1;whiteSpace=wrap;" parent="1" vertex="1">
          <mxGeometry x="790" y="849" width="10" height="20" as="geometry" />
        </mxCell>
        <mxCell id="162" value="&lt;font style=&quot;font-size:14px;font-family:Calibri;color:#000000;direction:ltr;letter-spacing:0px;line-height:120%;opacity:1&quot;&gt;2&lt;br/&gt;&lt;/font&gt;" style="verticalAlign=middle;align=center;vsdxID=192;fillColor=none;gradientColor=none;shape=stencil(nZBLDoAgDERP0z3SIyjew0SURgSD+Lu9kMZoXLhwN9O+tukAlrNpJg1SzDH4QW/URgNYgZTkjA4UkwJUgGXng+6DX1zLfmoymdXo17xh5zmRJ6Q42BWCfc2oJfdAr+Yv+AP9Cb7OJ3H/2JG1HNGz/84klThPVCc=);strokeColor=none;labelBackgroundColor=none;rounded=0;html=1;whiteSpace=wrap;" parent="1" vertex="1">
          <mxGeometry x="790" y="854" width="12" height="8" as="geometry" />
        </mxCell>
        <mxCell id="163" style="vsdxID=193;fillColor=#77c1d5;gradientColor=#4bacc6;gradientDirection=north;shape=stencil(tVFBDsIgEHwNRxKE+IJa/0Hstt2I0Cxo298L2SZKvRgTbzM7s+yEEaaJo51AaBUThSvM2KVRmJPQGv0IhCkjYVphmj4QDBTuvmM+2eIs6BYe5YWF91TZ0GpldlDMz2y1dMkaLbWoaHMfN77X97K0C0ZJIdmEwVd3naUBZL4je2eHSoozwPQx/ilZneuPsRz6b/82g1cnPTrHlb7r+w7ziPs37RM=);strokeColor=#404040;labelBackgroundColor=#ffffff;rounded=0;html=1;whiteSpace=wrap;" parent="1" vertex="1">
          <mxGeometry x="828" y="849" width="10" height="20" as="geometry" />
        </mxCell>
        <mxCell id="164" value="&lt;font style=&quot;font-size:14px;font-family:Calibri;color:#000000;direction:ltr;letter-spacing:0px;line-height:120%;opacity:1&quot;&gt;3&lt;br/&gt;&lt;/font&gt;" style="verticalAlign=middle;align=center;vsdxID=194;fillColor=none;gradientColor=none;shape=stencil(nZBLDoAgDERP0z3SIyjew0SURgSD+Lu9kMZoXLhwN9O+tukAlrNpJg1SzDH4QW/URgNYgZTkjA4UkwJUgGXng+6DX1zLfmoymdXo17xh5zmRJ6Q42BWCfc2oJfdAr+Yv+AP9Cb7OJ3H/2JG1HNGz/84klThPVCc=);strokeColor=none;labelBackgroundColor=none;rounded=0;html=1;whiteSpace=wrap;" parent="1" vertex="1">
          <mxGeometry x="825" y="851" width="16" height="13" as="geometry" />
        </mxCell>
        <mxCell id="165" style="vsdxID=195;fillColor=#77c1d5;gradientColor=#4bacc6;gradientDirection=north;shape=stencil(tZLRDsIgDEW/hkcShPgFc/5H47qtEWEpqPPvhbDEMaMPJr7d9p4LDUWYJowwodAqRPZnvFMXR2EOQmtyIzLFpIRphWl6zziwv7qu1BNkMquLv+UT5pLbKZUzWj3q+lhgS+4LXKHAp+TwFuWF3S/1vI6qrSlhpiDZR4jkXYVa4AFlukX2FobKCnfE6a3901yf3uMvoyXx2ktP1pa1rv3tHlOr/AHTPgE=);strokeColor=#404040;labelBackgroundColor=#ffffff;rounded=0;html=1;whiteSpace=wrap;" parent="1" vertex="1">
          <mxGeometry x="653" y="1544" width="10" height="20" as="geometry" />
        </mxCell>
        <mxCell id="166" value="&lt;font style=&quot;font-size:14px;font-family:Calibri;color:#000000;direction:ltr;letter-spacing:0px;line-height:120%;opacity:1&quot;&gt;3&lt;br/&gt;&lt;/font&gt;" style="verticalAlign=middle;align=center;vsdxID=196;fillColor=none;gradientColor=none;shape=stencil(nZBLDoAgDERP0z3SIyjew0SURgSD+Lu9kMZoXLhwN9O+tukAlrNpJg1SzDH4QW/URgNYgZTkjA4UkwJUgGXng+6DX1zLfmoymdXo17xh5zmRJ6Q42BWCfc2oJfdAr+Yv+AP9Cb7OJ3H/2JG1HNGz/84klThPVCc=);strokeColor=none;labelBackgroundColor=none;rounded=0;html=1;whiteSpace=wrap;" parent="1" vertex="1">
          <mxGeometry x="652" y="1549" width="12" height="8" as="geometry" />
        </mxCell>
        <mxCell id="167" style="vsdxID=197;fillColor=#77c1d5;gradientColor=#4bacc6;gradientDirection=north;shape=stencil(tVFBDsIgEHwNRxKE+IJa/0Hstt2I0Cxo298L2SZKvRgTbzM7s+yEEaaJo51AaBUThSvM2KVRmJPQGv0IhCkjYVphmj4QDBTuvmM+2eIs6BYe5YWF91TZ0GpldlDMz2y1dMkaLbWoaHMfN77X97K0C0ZJIdmEwVd3naUBZL4je2eHSoozwPQx/ilZneuPsRz6b/82g1cnPTrHlb7r+w7ziPs37RM=);strokeColor=#404040;labelBackgroundColor=#ffffff;rounded=0;html=1;whiteSpace=wrap;" parent="1" vertex="1">
          <mxGeometry x="653" y="1586" width="10" height="20" as="geometry" />
        </mxCell>
        <mxCell id="168" value="&lt;font style=&quot;font-size:14px;font-family:Calibri;color:#000000;direction:ltr;letter-spacing:0px;line-height:120%;opacity:1&quot;&gt;3&lt;br/&gt;&lt;/font&gt;" style="verticalAlign=middle;align=center;vsdxID=198;fillColor=none;gradientColor=none;shape=stencil(nZBLDoAgDERP0z3SIyjew0SURgSD+Lu9kMZoXLhwN9O+tukAlrNpJg1SzDH4QW/URgNYgZTkjA4UkwJUgGXng+6DX1zLfmoymdXo17xh5zmRJ6Q42BWCfc2oJfdAr+Yv+AP9Cb7OJ3H/2JG1HNGz/84klThPVCc=);strokeColor=none;labelBackgroundColor=none;rounded=0;html=1;whiteSpace=wrap;" parent="1" vertex="1">
          <mxGeometry x="652" y="1591" width="12" height="8" as="geometry" />
        </mxCell>
        <mxCell id="169" style="vsdxID=199;fillColor=none;gradientColor=none;shape=stencil(vVFBDgIhDHwNRxKE+IJ1/Ufjll0iLpuCLv5eSDWKevLgbaYznTatMF2cYEGhVUwUjri6IU3C7ITWbp6QXCpImF6YzgbCkcJ5HpgvUJ0VncKlJmTuU7VDqyuzLdM9O4EORaLcaIpa7yNoo75GqSwhuygpJEguzM1UDzSiLGOk9TDec1iKK+LyUf5lsf+tVcDzzNZ5z1961d/fUkr8UtPfAA==);strokeColor=#404040;shadow=1;labelBackgroundColor=none;rounded=0;html=1;whiteSpace=wrap;" parent="1" vertex="1">
          <mxGeometry x="903" y="1535" width="76" height="35" as="geometry" />
        </mxCell>
        <mxCell id="170" style="vsdxID=200;fillColor=none;gradientColor=none;shape=stencil(vVFBDgIhDHwNRxKE+IJ1/Ufjll0iLpuCLv5eSDWKevLgbaYznTatMF2cYEGhVUwUjri6IU3C7ITWbp6QXCpImF6YzgbCkcJ5HpgvUJ0VncKlJmTuU7VDqyuzLdM9O4EORaLcaIpa7yNoo75GqSwhuygpJEguzM1UDzSiLGOk9TDec1iKK+LyUf5lsf+tVcDzzNZ5z1961d/fUkr8UtPfAA==);strokeColor=#404040;shadow=1;labelBackgroundColor=none;rounded=0;html=1;whiteSpace=wrap;" parent="1" vertex="1">
          <mxGeometry x="901" y="1578" width="80" height="35" as="geometry" />
        </mxCell>
        <mxCell id="171" style="vsdxID=203;fillColor=#77c1d5;gradientColor=#4bacc6;gradientDirection=north;shape=stencil(tZLRDsIgDEW/hkcShPgFc/5H47qtEWEpqPPvhbDEMaMPJr7d9p4LDUWYJowwodAqRPZnvFMXR2EOQmtyIzLFpIRphWl6zziwv7qu1BNkMquLv+UT5pLbKZUzWj3q+lhgS+4LXKHAp+TwFuWF3S/1vI6qrSlhpiDZR4jkXYVa4AFlukX2FobKCnfE6a3901yf3uMvoyXx2ktP1pa1rv3tHlOr/AHTPgE=);strokeColor=#404040;labelBackgroundColor=#ffffff;rounded=0;html=1;whiteSpace=wrap;" parent="1" vertex="1">
          <mxGeometry x="922" y="1543" width="10" height="20" as="geometry" />
        </mxCell>
        <mxCell id="172" value="&lt;font style=&quot;font-size:14px;font-family:Calibri;color:#000000;direction:ltr;letter-spacing:0px;line-height:120%;opacity:1&quot;&gt;3&lt;br/&gt;&lt;/font&gt;" style="verticalAlign=middle;align=center;vsdxID=204;fillColor=none;gradientColor=none;shape=stencil(nZBLDoAgDERP0z3SIyjew0SURgSD+Lu9kMZoXLhwN9O+tukAlrNpJg1SzDH4QW/URgNYgZTkjA4UkwJUgGXng+6DX1zLfmoymdXo17xh5zmRJ6Q42BWCfc2oJfdAr+Yv+AP9Cb7OJ3H/2JG1HNGz/84klThPVCc=);strokeColor=none;labelBackgroundColor=none;rounded=0;html=1;whiteSpace=wrap;" parent="1" vertex="1">
          <mxGeometry x="920" y="1541" width="14" height="22" as="geometry" />
        </mxCell>
        <mxCell id="173" value="" style="verticalAlign=middle;align=center;vsdxID=205;fillColor=#77c1d5;gradientColor=#4bacc6;gradientDirection=north;shape=stencil(tVFBDsIgEHwNRxKE+IJa/0Hstt2I0Cxo298L2SZKvRgTbzM7s+yEEaaJo51AaBUThSvM2KVRmJPQGv0IhCkjYVphmj4QDBTuvmM+2eIs6BYe5YWF91TZ0GpldlDMz2y1dMkaLbWoaHMfN77X97K0C0ZJIdmEwVd3naUBZL4je2eHSoozwPQx/ilZneuPsRz6b/82g1cnPTrHlb7r+w7ziPs37RM=);strokeColor=#404040;labelBackgroundColor=#ffffff;rounded=0;html=1;whiteSpace=wrap;" parent="1" vertex="1">
          <mxGeometry x="951" y="1543" width="10" height="20" as="geometry" />
        </mxCell>
        <mxCell id="174" value="&lt;font style=&quot;font-size:14px;font-family:Calibri;color:#000000;direction:ltr;letter-spacing:0px;line-height:120%;opacity:1&quot;&gt;3&lt;br/&gt;&lt;/font&gt;" style="verticalAlign=middle;align=center;vsdxID=206;fillColor=none;gradientColor=none;shape=stencil(nZBLDoAgDERP0z3SIyjew0SURgSD+Lu9kMZoXLhwN9O+tukAlrNpJg1SzDH4QW/URgNYgZTkjA4UkwJUgGXng+6DX1zLfmoymdXo17xh5zmRJ6Q42BWCfc2oJfdAr+Yv+AP9Cb7OJ3H/2JG1HNGz/84klThPVCc=);strokeColor=none;labelBackgroundColor=none;rounded=0;html=1;whiteSpace=wrap;" parent="1" vertex="1">
          <mxGeometry x="949" y="1541" width="14" height="22" as="geometry" />
        </mxCell>
        <mxCell id="175" style="vsdxID=207;fillColor=#85ca39;gradientColor=#92d050;gradientDirection=north;shape=stencil(tZLRDsIgDEW/hkcShPgFc/5H47qtEWEpqPPvhbDEMaMPJr7d9p4LDUWYJowwodAqRPZnvFMXR2EOQmtyIzLFpIRphWl6zziwv7qu1BNkMquLv+UT5pLbKZUzWj3q+lhgS+4LXKHAp+TwFuWF3S/1vI6qrSlhpiDZR4jkXYVa4AFlukX2FobKCnfE6a3901yf3uMvoyXx2ktP1pa1rv3tHlOr/AHTPgE=);strokeColor=#404040;labelBackgroundColor=#ffffff;rounded=0;html=1;whiteSpace=wrap;" parent="1" vertex="1">
          <mxGeometry x="922" y="1586" width="10" height="20" as="geometry" />
        </mxCell>
        <mxCell id="176" value="&lt;font style=&quot;font-size:14px;font-family:Calibri;color:#000000;direction:ltr;letter-spacing:0px;line-height:120%;opacity:1&quot;&gt;1&lt;br/&gt;&lt;/font&gt;" style="verticalAlign=middle;align=center;vsdxID=208;fillColor=none;gradientColor=none;shape=stencil(nZBLDoAgDERP0z3SIyjew0SURgSD+Lu9kMZoXLhwN9O+tukAlrNpJg1SzDH4QW/URgNYgZTkjA4UkwJUgGXng+6DX1zLfmoymdXo17xh5zmRJ6Q42BWCfc2oJfdAr+Yv+AP9Cb7OJ3H/2JG1HNGz/84klThPVCc=);strokeColor=none;labelBackgroundColor=none;rounded=0;html=1;whiteSpace=wrap;" parent="1" vertex="1">
          <mxGeometry x="920" y="1584" width="14" height="22" as="geometry" />
        </mxCell>
        <mxCell id="177" value="" style="verticalAlign=middle;align=center;vsdxID=209;fillColor=#85ca39;gradientColor=#92d050;gradientDirection=north;shape=stencil(tVFBDsIgEHwNRxKE+IJa/0Hstt2I0Cxo298L2SZKvRgTbzM7s+yEEaaJo51AaBUThSvM2KVRmJPQGv0IhCkjYVphmj4QDBTuvmM+2eIs6BYe5YWF91TZ0GpldlDMz2y1dMkaLbWoaHMfN77X97K0C0ZJIdmEwVd3naUBZL4je2eHSoozwPQx/ilZneuPsRz6b/82g1cnPTrHlb7r+w7ziPs37RM=);strokeColor=#404040;labelBackgroundColor=#ffffff;rounded=0;html=1;whiteSpace=wrap;" parent="1" vertex="1">
          <mxGeometry x="951" y="1586" width="10" height="20" as="geometry" />
        </mxCell>
        <mxCell id="178" value="&lt;font style=&quot;font-size:14px;font-family:Calibri;color:#000000;direction:ltr;letter-spacing:0px;line-height:120%;opacity:1&quot;&gt;1&lt;br/&gt;&lt;/font&gt;" style="verticalAlign=middle;align=center;vsdxID=210;fillColor=none;gradientColor=none;shape=stencil(nZBLDoAgDERP0z3SIyjew0SURgSD+Lu9kMZoXLhwN9O+tukAlrNpJg1SzDH4QW/URgNYgZTkjA4UkwJUgGXng+6DX1zLfmoymdXo17xh5zmRJ6Q42BWCfc2oJfdAr+Yv+AP9Cb7OJ3H/2JG1HNGz/84klThPVCc=);strokeColor=none;labelBackgroundColor=none;rounded=0;html=1;whiteSpace=wrap;" parent="1" vertex="1">
          <mxGeometry x="948" y="1584" width="14" height="22" as="geometry" />
        </mxCell>
        <mxCell id="179" style="vsdxID=211;fillColor=#dd9426;gradientColor=#e1a040;gradientDirection=north;shape=stencil(tZLRDsIgDEW/hkcShPgFc/5H47qtEWEpqPPvhbDEMaMPJr7d9p4LDUWYJowwodAqRPZnvFMXR2EOQmtyIzLFpIRphWl6zziwv7qu1BNkMquLv+UT5pLbKZUzWj3q+lhgS+4LXKHAp+TwFuWF3S/1vI6qrSlhpiDZR4jkXYVa4AFlukX2FobKCnfE6a3901yf3uMvoyXx2ktP1pa1rv3tHlOr/AHTPgE=);strokeColor=#404040;labelBackgroundColor=#ffffff;rounded=0;html=1;whiteSpace=wrap;" parent="1" vertex="1">
          <mxGeometry x="1003" y="1544" width="10" height="20" as="geometry" />
        </mxCell>
        <mxCell id="180" value="&lt;font style=&quot;font-size:14px;font-family:Calibri;color:#000000;direction:ltr;letter-spacing:0px;line-height:120%;opacity:1&quot;&gt;2&lt;br/&gt;&lt;/font&gt;" style="verticalAlign=middle;align=center;vsdxID=212;fillColor=none;gradientColor=none;shape=stencil(nZBLDoAgDERP0z3SIyjew0SURgSD+Lu9kMZoXLhwN9O+tukAlrNpJg1SzDH4QW/URgNYgZTkjA4UkwJUgGXng+6DX1zLfmoymdXo17xh5zmRJ6Q42BWCfc2oJfdAr+Yv+AP9Cb7OJ3H/2JG1HNGz/84klThPVCc=);strokeColor=none;labelBackgroundColor=none;rounded=0;html=1;whiteSpace=wrap;" parent="1" vertex="1">
          <mxGeometry x="1003" y="1549" width="12" height="8" as="geometry" />
        </mxCell>
        <mxCell id="181" style="vsdxID=213;fillColor=#dd9426;gradientColor=#e1a040;gradientDirection=north;shape=stencil(tVFBDsIgEHwNRxKE+IJa/0Hstt2I0Cxo298L2SZKvRgTbzM7s+yEEaaJo51AaBUThSvM2KVRmJPQGv0IhCkjYVphmj4QDBTuvmM+2eIs6BYe5YWF91TZ0GpldlDMz2y1dMkaLbWoaHMfN77X97K0C0ZJIdmEwVd3naUBZL4je2eHSoozwPQx/ilZneuPsRz6b/82g1cnPTrHlb7r+w7ziPs37RM=);strokeColor=#404040;labelBackgroundColor=#ffffff;rounded=0;html=1;whiteSpace=wrap;" parent="1" vertex="1">
          <mxGeometry x="1003" y="1586" width="10" height="20" as="geometry" />
        </mxCell>
        <mxCell id="182" value="&lt;font style=&quot;font-size:14px;font-family:Calibri;color:#000000;direction:ltr;letter-spacing:0px;line-height:120%;opacity:1&quot;&gt;2&lt;br/&gt;&lt;/font&gt;" style="verticalAlign=middle;align=center;vsdxID=214;fillColor=none;gradientColor=none;shape=stencil(nZBLDoAgDERP0z3SIyjew0SURgSD+Lu9kMZoXLhwN9O+tukAlrNpJg1SzDH4QW/URgNYgZTkjA4UkwJUgGXng+6DX1zLfmoymdXo17xh5zmRJ6Q42BWCfc2oJfdAr+Yv+AP9Cb7OJ3H/2JG1HNGz/84klThPVCc=);strokeColor=none;labelBackgroundColor=none;rounded=0;html=1;whiteSpace=wrap;" parent="1" vertex="1">
          <mxGeometry x="1001" y="1591" width="12" height="8" as="geometry" />
        </mxCell>
        <mxCell id="183" style="vsdxID=216;fillColor=none;gradientColor=none;shape=stencil(vVFBDgIhDHwNRxKE+IJ1/Ufjll0iLpuCLv5eSDWKevLgbaYznTatMF2cYEGhVUwUjri6IU3C7ITWbp6QXCpImF6YzgbCkcJ5HpgvUJ0VncKlJmTuU7VDqyuzLdM9O4EORaLcaIpa7yNoo75GqSwhuygpJEguzM1UDzSiLGOk9TDec1iKK+LyUf5lsf+tVcDzzNZ5z1961d/fUkr8UtPfAA==);strokeColor=#404040;shadow=1;labelBackgroundColor=none;rounded=0;html=1;whiteSpace=wrap;" parent="1" vertex="1">
          <mxGeometry x="723" y="1247" width="76" height="35" as="geometry" />
        </mxCell>
        <mxCell id="184" style="vsdxID=217;fillColor=none;gradientColor=none;shape=stencil(vVFBDgIhDHwNRxKE+IJ1/Ufjll0iLpuCLv5eSDWKevLgbaYznTatMF2cYEGhVUwUjri6IU3C7ITWbp6QXCpImF6YzgbCkcJ5HpgvUJ0VncKlJmTuU7VDqyuzLdM9O4EORaLcaIpa7yNoo75GqSwhuygpJEguzM1UDzSiLGOk9TDec1iKK+LyUf5lsf+tVcDzzNZ5z1961d/fUkr8UtPfAA==);strokeColor=#404040;shadow=1;labelBackgroundColor=none;rounded=0;html=1;whiteSpace=wrap;" parent="1" vertex="1">
          <mxGeometry x="721" y="1290" width="80" height="35" as="geometry" />
        </mxCell>
        <mxCell id="185" style="vsdxID=220;fillColor=#dd9426;gradientColor=#e1a040;gradientDirection=north;shape=stencil(tZLRDsIgDEW/hkcShPgFc/5H47qtEWEpqPPvhbDEMaMPJr7d9p4LDUWYJowwodAqRPZnvFMXR2EOQmtyIzLFpIRphWl6zziwv7qu1BNkMquLv+UT5pLbKZUzWj3q+lhgS+4LXKHAp+TwFuWF3S/1vI6qrSlhpiDZR4jkXYVa4AFlukX2FobKCnfE6a3901yf3uMvoyXx2ktP1pa1rv3tHlOr/AHTPgE=);strokeColor=#404040;labelBackgroundColor=#ffffff;rounded=0;html=1;whiteSpace=wrap;" parent="1" vertex="1">
          <mxGeometry x="742" y="1255" width="10" height="20" as="geometry" />
        </mxCell>
        <mxCell id="186" value="&lt;font style=&quot;font-size:14px;font-family:Calibri;color:#000000;direction:ltr;letter-spacing:0px;line-height:120%;opacity:1&quot;&gt;2&lt;br/&gt;&lt;/font&gt;" style="verticalAlign=middle;align=center;vsdxID=221;fillColor=none;gradientColor=none;shape=stencil(nZBLDoAgDERP0z3SIyjew0SURgSD+Lu9kMZoXLhwN9O+tukAlrNpJg1SzDH4QW/URgNYgZTkjA4UkwJUgGXng+6DX1zLfmoymdXo17xh5zmRJ6Q42BWCfc2oJfdAr+Yv+AP9Cb7OJ3H/2JG1HNGz/84klThPVCc=);strokeColor=none;labelBackgroundColor=none;rounded=0;html=1;whiteSpace=wrap;" parent="1" vertex="1">
          <mxGeometry x="741" y="1253" width="14" height="22" as="geometry" />
        </mxCell>
        <mxCell id="187" value="" style="verticalAlign=middle;align=center;vsdxID=222;fillColor=#dd9426;gradientColor=#e1a040;gradientDirection=north;shape=stencil(tVFBDsIgEHwNRxKE+IJa/0Hstt2I0Cxo298L2SZKvRgTbzM7s+yEEaaJo51AaBUThSvM2KVRmJPQGv0IhCkjYVphmj4QDBTuvmM+2eIs6BYe5YWF91TZ0GpldlDMz2y1dMkaLbWoaHMfN77X97K0C0ZJIdmEwVd3naUBZL4je2eHSoozwPQx/ilZneuPsRz6b/82g1cnPTrHlb7r+w7ziPs37RM=);strokeColor=#404040;labelBackgroundColor=#ffffff;rounded=0;html=1;whiteSpace=wrap;" parent="1" vertex="1">
          <mxGeometry x="772" y="1255" width="10" height="20" as="geometry" />
        </mxCell>
        <mxCell id="188" value="&lt;font style=&quot;font-size:14px;font-family:Calibri;color:#000000;direction:ltr;letter-spacing:0px;line-height:120%;opacity:1&quot;&gt;2&lt;br/&gt;&lt;/font&gt;" style="verticalAlign=middle;align=center;vsdxID=223;fillColor=none;gradientColor=none;shape=stencil(nZBLDoAgDERP0z3SIyjew0SURgSD+Lu9kMZoXLhwN9O+tukAlrNpJg1SzDH4QW/URgNYgZTkjA4UkwJUgGXng+6DX1zLfmoymdXo17xh5zmRJ6Q42BWCfc2oJfdAr+Yv+AP9Cb7OJ3H/2JG1HNGz/84klThPVCc=);strokeColor=none;labelBackgroundColor=none;rounded=0;html=1;whiteSpace=wrap;" parent="1" vertex="1">
          <mxGeometry x="769" y="1253" width="14" height="22" as="geometry" />
        </mxCell>
        <mxCell id="189" style="vsdxID=224;fillColor=#77c1d5;gradientColor=#4bacc6;gradientDirection=north;shape=stencil(tZLRDsIgDEW/hkcShPgFc/5H47qtEWEpqPPvhbDEMaMPJr7d9p4LDUWYJowwodAqRPZnvFMXR2EOQmtyIzLFpIRphWl6zziwv7qu1BNkMquLv+UT5pLbKZUzWj3q+lhgS+4LXKHAp+TwFuWF3S/1vI6qrSlhpiDZR4jkXYVa4AFlukX2FobKCnfE6a3901yf3uMvoyXx2ktP1pa1rv3tHlOr/AHTPgE=);strokeColor=#404040;labelBackgroundColor=#ffffff;rounded=0;html=1;whiteSpace=wrap;" parent="1" vertex="1">
          <mxGeometry x="743" y="1298" width="10" height="20" as="geometry" />
        </mxCell>
        <mxCell id="190" value="&lt;font style=&quot;font-size:14px;font-family:Calibri;color:#000000;direction:ltr;letter-spacing:0px;line-height:120%;opacity:1&quot;&gt;3&lt;br/&gt;&lt;/font&gt;" style="verticalAlign=middle;align=center;vsdxID=225;fillColor=none;gradientColor=none;shape=stencil(nZBLDoAgDERP0z3SIyjew0SURgSD+Lu9kMZoXLhwN9O+tukAlrNpJg1SzDH4QW/URgNYgZTkjA4UkwJUgGXng+6DX1zLfmoymdXo17xh5zmRJ6Q42BWCfc2oJfdAr+Yv+AP9Cb7OJ3H/2JG1HNGz/84klThPVCc=);strokeColor=none;labelBackgroundColor=none;rounded=0;html=1;whiteSpace=wrap;" parent="1" vertex="1">
          <mxGeometry x="741" y="1296" width="14" height="22" as="geometry" />
        </mxCell>
        <mxCell id="191" value="" style="verticalAlign=middle;align=center;vsdxID=226;fillColor=#77c1d5;gradientColor=#4bacc6;gradientDirection=north;shape=stencil(tVFBDsIgEHwNRxKE+IJa/0Hstt2I0Cxo298L2SZKvRgTbzM7s+yEEaaJo51AaBUThSvM2KVRmJPQGv0IhCkjYVphmj4QDBTuvmM+2eIs6BYe5YWF91TZ0GpldlDMz2y1dMkaLbWoaHMfN77X97K0C0ZJIdmEwVd3naUBZL4je2eHSoozwPQx/ilZneuPsRz6b/82g1cnPTrHlb7r+w7ziPs37RM=);strokeColor=#404040;labelBackgroundColor=#ffffff;rounded=0;html=1;whiteSpace=wrap;" parent="1" vertex="1">
          <mxGeometry x="772" y="1298" width="10" height="20" as="geometry" />
        </mxCell>
        <mxCell id="192" value="&lt;font style=&quot;font-size:14px;font-family:Calibri;color:#000000;direction:ltr;letter-spacing:0px;line-height:120%;opacity:1&quot;&gt;3&lt;br/&gt;&lt;/font&gt;" style="verticalAlign=middle;align=center;vsdxID=227;fillColor=none;gradientColor=none;shape=stencil(nZBLDoAgDERP0z3SIyjew0SURgSD+Lu9kMZoXLhwN9O+tukAlrNpJg1SzDH4QW/URgNYgZTkjA4UkwJUgGXng+6DX1zLfmoymdXo17xh5zmRJ6Q42BWCfc2oJfdAr+Yv+AP9Cb7OJ3H/2JG1HNGz/84klThPVCc=);strokeColor=none;labelBackgroundColor=none;rounded=0;html=1;whiteSpace=wrap;" parent="1" vertex="1">
          <mxGeometry x="770" y="1296" width="14" height="22" as="geometry" />
        </mxCell>
        <mxCell id="193" style="vsdxID=228;fillColor=#85ca39;gradientColor=#92d050;gradientDirection=north;shape=stencil(tZLRDsIgDEW/hkcShPgFc/5H47qtEWEpqPPvhbDEMaMPJr7d9p4LDUWYJowwodAqRPZnvFMXR2EOQmtyIzLFpIRphWl6zziwv7qu1BNkMquLv+UT5pLbKZUzWj3q+lhgS+4LXKHAp+TwFuWF3S/1vI6qrSlhpiDZR4jkXYVa4AFlukX2FobKCnfE6a3901yf3uMvoyXx2ktP1pa1rv3tHlOr/AHTPgE=);strokeColor=#404040;labelBackgroundColor=#ffffff;rounded=0;html=1;whiteSpace=wrap;" parent="1" vertex="1">
          <mxGeometry x="824" y="1256" width="10" height="20" as="geometry" />
        </mxCell>
        <mxCell id="194" value="&lt;font style=&quot;font-size:14px;font-family:Calibri;color:#000000;direction:ltr;letter-spacing:0px;line-height:120%;opacity:1&quot;&gt;1&lt;br/&gt;&lt;/font&gt;" style="verticalAlign=middle;align=center;vsdxID=229;fillColor=none;gradientColor=none;shape=stencil(nZBLDoAgDERP0z3SIyjew0SURgSD+Lu9kMZoXLhwN9O+tukAlrNpJg1SzDH4QW/URgNYgZTkjA4UkwJUgGXng+6DX1zLfmoymdXo17xh5zmRJ6Q42BWCfc2oJfdAr+Yv+AP9Cb7OJ3H/2JG1HNGz/84klThPVCc=);strokeColor=none;labelBackgroundColor=none;rounded=0;html=1;whiteSpace=wrap;" parent="1" vertex="1">
          <mxGeometry x="823" y="1261" width="12" height="8" as="geometry" />
        </mxCell>
        <mxCell id="195" style="vsdxID=230;fillColor=#85ca39;gradientColor=#92d050;gradientDirection=north;shape=stencil(tVFBDsIgEHwNRxKE+IJa/0Hstt2I0Cxo298L2SZKvRgTbzM7s+yEEaaJo51AaBUThSvM2KVRmJPQGv0IhCkjYVphmj4QDBTuvmM+2eIs6BYe5YWF91TZ0GpldlDMz2y1dMkaLbWoaHMfN77X97K0C0ZJIdmEwVd3naUBZL4je2eHSoozwPQx/ilZneuPsRz6b/82g1cnPTrHlb7r+w7ziPs37RM=);strokeColor=#404040;labelBackgroundColor=#ffffff;rounded=0;html=1;whiteSpace=wrap;" parent="1" vertex="1">
          <mxGeometry x="824" y="1298" width="10" height="20" as="geometry" />
        </mxCell>
        <mxCell id="196" value="&lt;font style=&quot;font-size:14px;font-family:Calibri;color:#000000;direction:ltr;letter-spacing:0px;line-height:120%;opacity:1&quot;&gt;1&lt;br/&gt;&lt;/font&gt;" style="verticalAlign=middle;align=center;vsdxID=231;fillColor=none;gradientColor=none;shape=stencil(nZBLDoAgDERP0z3SIyjew0SURgSD+Lu9kMZoXLhwN9O+tukAlrNpJg1SzDH4QW/URgNYgZTkjA4UkwJUgGXng+6DX1zLfmoymdXo17xh5zmRJ6Q42BWCfc2oJfdAr+Yv+AP9Cb7OJ3H/2JG1HNGz/84klThPVCc=);strokeColor=none;labelBackgroundColor=none;rounded=0;html=1;whiteSpace=wrap;" parent="1" vertex="1">
          <mxGeometry x="822" y="1303" width="12" height="8" as="geometry" />
        </mxCell>
        <mxCell id="197" style="vsdxID=232;fillColor=#85ca39;gradientColor=#92d050;gradientDirection=north;shape=stencil(vVFBDgIhDHwNRxKE+IJ1/Ufjll0iLpuCLv5eSDWKevLgbaYznTatMF2cYEGhVUwUjri6IU3C7ITWbp6QXCpImF6YzgbCkcJ5HpgvUJ0VncKlJmTuU7VDqyuzLdM9O4EORaLcaIpa7yNoo75GqSwhuygpJEguzM1UDzSiLGOk9TDec1iKK+LyUf5lsf+tVcDzzNZ5z1961d/fUkr8UtPfAA==);strokeColor=#404040;shadow=1;labelBackgroundColor=none;rounded=0;html=1;whiteSpace=wrap;" parent="1" vertex="1">
          <mxGeometry x="625" y="1657" width="20" height="20" as="geometry" />
        </mxCell>
        <mxCell id="198" value="&lt;p style=&quot;align:center;margin-left:0;margin-right:0;margin-top:0px;margin-bottom:0px;text-indent:0;valign:middle;direction:ltr;&quot;&gt;&lt;font style=&quot;font-size:16px;font-family:Calibri;color:#000000;direction:ltr;letter-spacing:0px;line-height:120%;opacity:1&quot;&gt;1&lt;br/&gt;&lt;/font&gt;&lt;/p&gt;" style="text;vsdxID=232;fillColor=none;gradientColor=none;gradientDirection=north;strokeColor=none;shadow=1;labelBackgroundColor=none;rounded=0;html=1;whiteSpace=wrap;verticalAlign=middle;align=center;;html=1;" parent="197" vertex="1">
          <mxGeometry x="1.25" y="2.5" width="17.5" height="15" as="geometry" />
        </mxCell>
        <mxCell id="199" style="vsdxID=233;fillColor=#dd9426;gradientColor=#e1a040;gradientDirection=north;shape=stencil(vVFBDgIhDHwNRxKE+IJ1/Ufjll0iLpuCLv5eSDWKevLgbaYznTatMF2cYEGhVUwUjri6IU3C7ITWbp6QXCpImF6YzgbCkcJ5HpgvUJ0VncKlJmTuU7VDqyuzLdM9O4EORaLcaIpa7yNoo75GqSwhuygpJEguzM1UDzSiLGOk9TDec1iKK+LyUf5lsf+tVcDzzNZ5z1961d/fUkr8UtPfAA==);strokeColor=#404040;shadow=1;labelBackgroundColor=none;rounded=0;html=1;whiteSpace=wrap;" parent="1" vertex="1">
          <mxGeometry x="654" y="1657" width="20" height="20" as="geometry" />
        </mxCell>
        <mxCell id="200" value="&lt;p style=&quot;align:center;margin-left:0;margin-right:0;margin-top:0px;margin-bottom:0px;text-indent:0;valign:middle;direction:ltr;&quot;&gt;&lt;font style=&quot;font-size:16px;font-family:Calibri;color:#000000;direction:ltr;letter-spacing:0px;line-height:120%;opacity:1&quot;&gt;2&lt;br/&gt;&lt;/font&gt;&lt;/p&gt;" style="text;vsdxID=233;fillColor=none;gradientColor=none;gradientDirection=north;strokeColor=none;shadow=1;labelBackgroundColor=none;rounded=0;html=1;whiteSpace=wrap;verticalAlign=middle;align=center;;html=1;" parent="199" vertex="1">
          <mxGeometry x="1.25" y="2.5" width="17.5" height="15" as="geometry" />
        </mxCell>
        <mxCell id="201" style="vsdxID=234;fillColor=#77c1d5;gradientColor=#4bacc6;gradientDirection=north;shape=stencil(vVFBDgIhDHwNRxKE+IJ1/Ufjll0iLpuCLv5eSDWKevLgbaYznTatMF2cYEGhVUwUjri6IU3C7ITWbp6QXCpImF6YzgbCkcJ5HpgvUJ0VncKlJmTuU7VDqyuzLdM9O4EORaLcaIpa7yNoo75GqSwhuygpJEguzM1UDzSiLGOk9TDec1iKK+LyUf5lsf+tVcDzzNZ5z1961d/fUkr8UtPfAA==);strokeColor=#404040;shadow=1;labelBackgroundColor=none;rounded=0;html=1;whiteSpace=wrap;" parent="1" vertex="1">
          <mxGeometry x="683" y="1657" width="20" height="20" as="geometry" />
        </mxCell>
        <mxCell id="202" value="&lt;font style=&quot;font-size:16px;font-family:Calibri;color:#000000;direction:ltr;letter-spacing:0px;line-height:120%;opacity:1&quot;&gt;3&lt;br/&gt;&lt;/font&gt;" style="text;vsdxID=234;fillColor=none;gradientColor=none;gradientDirection=north;strokeColor=none;shadow=1;labelBackgroundColor=none;rounded=0;html=1;whiteSpace=wrap;verticalAlign=middle;align=center;;html=1;" parent="201" vertex="1">
          <mxGeometry x="1.25" y="2.5" width="17.5" height="15" as="geometry" />
        </mxCell>
        <mxCell id="203" style="vsdxID=235;fillColor=#85ca39;gradientColor=#92d050;gradientDirection=north;shape=stencil(vVFBDgIhDHwNRxKE+IJ1/Ufjll0iLpuCLv5eSDWKevLgbaYznTatMF2cYEGhVUwUjri6IU3C7ITWbp6QXCpImF6YzgbCkcJ5HpgvUJ0VncKlJmTuU7VDqyuzLdM9O4EORaLcaIpa7yNoo75GqSwhuygpJEguzM1UDzSiLGOk9TDec1iKK+LyUf5lsf+tVcDzzNZ5z1961d/fUkr8UtPfAA==);strokeColor=#404040;shadow=1;labelBackgroundColor=none;rounded=0;html=1;whiteSpace=wrap;" parent="1" vertex="1">
          <mxGeometry x="988" y="1658" width="20" height="20" as="geometry" />
        </mxCell>
        <mxCell id="204" value="&lt;p style=&quot;align:center;margin-left:0;margin-right:0;margin-top:0px;margin-bottom:0px;text-indent:0;valign:middle;direction:ltr;&quot;&gt;&lt;font style=&quot;font-size:16px;font-family:Calibri;color:#000000;direction:ltr;letter-spacing:0px;line-height:120%;opacity:1&quot;&gt;1&lt;br/&gt;&lt;/font&gt;&lt;/p&gt;" style="text;vsdxID=235;fillColor=none;gradientColor=none;gradientDirection=north;strokeColor=none;shadow=1;labelBackgroundColor=none;rounded=0;html=1;whiteSpace=wrap;verticalAlign=middle;align=center;;html=1;" parent="203" vertex="1">
          <mxGeometry x="1.25" y="2.5" width="17.5" height="15" as="geometry" />
        </mxCell>
        <mxCell id="205" style="vsdxID=236;fillColor=#dd9426;gradientColor=#e1a040;gradientDirection=north;shape=stencil(vVFBDgIhDHwNRxKE+IJ1/Ufjll0iLpuCLv5eSDWKevLgbaYznTatMF2cYEGhVUwUjri6IU3C7ITWbp6QXCpImF6YzgbCkcJ5HpgvUJ0VncKlJmTuU7VDqyuzLdM9O4EORaLcaIpa7yNoo75GqSwhuygpJEguzM1UDzSiLGOk9TDec1iKK+LyUf5lsf+tVcDzzNZ5z1961d/fUkr8UtPfAA==);strokeColor=#404040;shadow=1;labelBackgroundColor=none;rounded=0;html=1;whiteSpace=wrap;" parent="1" vertex="1">
          <mxGeometry x="1018" y="1658" width="20" height="20" as="geometry" />
        </mxCell>
        <mxCell id="206" value="&lt;p style=&quot;align:center;margin-left:0;margin-right:0;margin-top:0px;margin-bottom:0px;text-indent:0;valign:middle;direction:ltr;&quot;&gt;&lt;font style=&quot;font-size:16px;font-family:Calibri;color:#000000;direction:ltr;letter-spacing:0px;line-height:120%;opacity:1&quot;&gt;2&lt;br/&gt;&lt;/font&gt;&lt;/p&gt;" style="text;vsdxID=236;fillColor=none;gradientColor=none;gradientDirection=north;strokeColor=none;shadow=1;labelBackgroundColor=none;rounded=0;html=1;whiteSpace=wrap;verticalAlign=middle;align=center;;html=1;" parent="205" vertex="1">
          <mxGeometry x="1.25" y="2.5" width="17.5" height="15" as="geometry" />
        </mxCell>
        <mxCell id="207" style="vsdxID=237;fillColor=#77c1d5;gradientColor=#4bacc6;gradientDirection=north;shape=stencil(vVFBDgIhDHwNRxKE+IJ1/Ufjll0iLpuCLv5eSDWKevLgbaYznTatMF2cYEGhVUwUjri6IU3C7ITWbp6QXCpImF6YzgbCkcJ5HpgvUJ0VncKlJmTuU7VDqyuzLdM9O4EORaLcaIpa7yNoo75GqSwhuygpJEguzM1UDzSiLGOk9TDec1iKK+LyUf5lsf+tVcDzzNZ5z1961d/fUkr8UtPfAA==);strokeColor=#404040;shadow=1;labelBackgroundColor=none;rounded=0;html=1;whiteSpace=wrap;" parent="1" vertex="1">
          <mxGeometry x="1046" y="1658" width="20" height="20" as="geometry" />
        </mxCell>
        <mxCell id="208" value="&lt;font style=&quot;font-size:16px;font-family:Calibri;color:#000000;direction:ltr;letter-spacing:0px;line-height:120%;opacity:1&quot;&gt;3&lt;br/&gt;&lt;/font&gt;" style="text;vsdxID=237;fillColor=none;gradientColor=none;gradientDirection=north;strokeColor=none;shadow=1;labelBackgroundColor=none;rounded=0;html=1;whiteSpace=wrap;verticalAlign=middle;align=center;;html=1;" parent="207" vertex="1">
          <mxGeometry x="1.25" y="2.5" width="17.5" height="15" as="geometry" />
        </mxCell>
        <mxCell id="214" parent="1" vertex="1">
          <mxGeometry x="818" y="1308" as="geometry" />
        </mxCell>
        <mxCell id="215" style="vsdxID=219;edgeStyle=none;startArrow=open;endArrow=none;startSize=5;endSize=5;strokeColor=#404040;shadow=1;spacingTop=0;spacingBottom=0;spacingLeft=0;spacingRight=0;verticalAlign=middle;html=1;labelBackgroundColor=#FFFFFF;rounded=0;" parent="1" source="214" target="184" edge="1">
          <mxGeometry relative="1" as="geometry">
            <Array as="points">
              <mxPoint x="818" y="1308" />
              <mxPoint x="802.46" y="1308" />
            </Array>
          </mxGeometry>
        </mxCell>
        <mxCell id="216" parent="1" vertex="1">
          <mxGeometry x="815" y="1265" as="geometry" />
        </mxCell>
        <mxCell id="217" style="vsdxID=218;edgeStyle=none;startArrow=open;endArrow=none;startSize=5;endSize=5;strokeColor=#404040;shadow=1;spacingTop=0;spacingBottom=0;spacingLeft=0;spacingRight=0;verticalAlign=middle;html=1;labelBackgroundColor=#FFFFFF;rounded=0;" parent="1" source="216" target="183" edge="1">
          <mxGeometry relative="1" as="geometry">
            <Array as="points">
              <mxPoint x="815" y="1265" />
              <mxPoint x="799.46" y="1265" />
            </Array>
          </mxGeometry>
        </mxCell>
        <mxCell id="218" parent="1" vertex="1">
          <mxGeometry x="997" y="1596" as="geometry" />
        </mxCell>
        <mxCell id="219" style="vsdxID=202;edgeStyle=none;startArrow=open;endArrow=none;startSize=5;endSize=5;strokeColor=#404040;shadow=1;spacingTop=0;spacingBottom=0;spacingLeft=0;spacingRight=0;verticalAlign=middle;html=1;labelBackgroundColor=#FFFFFF;rounded=0;" parent="1" source="218" target="170" edge="1">
          <mxGeometry relative="1" as="geometry">
            <Array as="points">
              <mxPoint x="997" y="1596" />
              <mxPoint x="981.46" y="1596" />
            </Array>
          </mxGeometry>
        </mxCell>
        <mxCell id="220" parent="1" vertex="1">
          <mxGeometry x="994" y="1553" as="geometry" />
        </mxCell>
        <mxCell id="221" style="vsdxID=201;edgeStyle=none;startArrow=open;endArrow=none;startSize=5;endSize=5;strokeColor=#404040;shadow=1;spacingTop=0;spacingBottom=0;spacingLeft=0;spacingRight=0;verticalAlign=middle;html=1;labelBackgroundColor=#FFFFFF;rounded=0;" parent="1" source="220" target="169" edge="1">
          <mxGeometry relative="1" as="geometry">
            <Array as="points">
              <mxPoint x="994" y="1553" />
              <mxPoint x="978.46" y="1553" />
            </Array>
          </mxGeometry>
        </mxCell>
        <mxCell id="222" parent="1" vertex="1">
          <mxGeometry x="622" y="1067" as="geometry" />
        </mxCell>
        <mxCell id="223" style="vsdxID=149;edgeStyle=none;startArrow=open;endArrow=none;startSize=5;endSize=5;strokeColor=#404040;shadow=1;spacingTop=0;spacingBottom=0;spacingLeft=0;spacingRight=0;verticalAlign=middle;html=1;labelBackgroundColor=#FFFFFF;rounded=0;" parent="1" source="222" target="112" edge="1">
          <mxGeometry relative="1" as="geometry">
            <Array as="points">
              <mxPoint x="622" y="1067" />
              <mxPoint x="609.26" y="1056.59" />
            </Array>
          </mxGeometry>
        </mxCell>
        <mxCell id="224" parent="1" vertex="1">
          <mxGeometry x="597" y="1067" as="geometry" />
        </mxCell>
        <mxCell id="225" style="vsdxID=148;edgeStyle=none;startArrow=open;endArrow=none;startSize=5;endSize=5;strokeColor=#404040;shadow=1;spacingTop=0;spacingBottom=0;spacingLeft=0;spacingRight=0;verticalAlign=middle;html=1;labelBackgroundColor=#FFFFFF;rounded=0;" parent="1" source="224" target="112" edge="1">
          <mxGeometry relative="1" as="geometry">
            <Array as="points">
              <mxPoint x="597" y="1067" />
              <mxPoint x="609.43" y="1056.59" />
            </Array>
          </mxGeometry>
        </mxCell>
        <mxCell id="226" parent="1" vertex="1">
          <mxGeometry x="558" y="1067" as="geometry" />
        </mxCell>
        <mxCell id="227" style="vsdxID=140;edgeStyle=none;startArrow=open;endArrow=none;startSize=5;endSize=5;strokeColor=#404040;shadow=1;spacingTop=0;spacingBottom=0;spacingLeft=0;spacingRight=0;verticalAlign=middle;html=1;labelBackgroundColor=#FFFFFF;rounded=0;" parent="1" source="226" target="118" edge="1">
          <mxGeometry relative="1" as="geometry">
            <Array as="points">
              <mxPoint x="558" y="1067" />
              <mxPoint x="545.26" y="1056.91" />
            </Array>
          </mxGeometry>
        </mxCell>
        <mxCell id="228" parent="1" vertex="1">
          <mxGeometry x="532" y="1067" as="geometry" />
        </mxCell>
        <mxCell id="229" style="vsdxID=139;edgeStyle=none;startArrow=open;endArrow=none;startSize=5;endSize=5;strokeColor=#404040;shadow=1;spacingTop=0;spacingBottom=0;spacingLeft=0;spacingRight=0;verticalAlign=middle;html=1;labelBackgroundColor=#FFFFFF;rounded=0;" parent="1" source="228" target="118" edge="1">
          <mxGeometry relative="1" as="geometry">
            <Array as="points">
              <mxPoint x="532" y="1067" />
              <mxPoint x="544.43" y="1056.91" />
            </Array>
          </mxGeometry>
        </mxCell>
        <mxCell id="230" parent="1" vertex="1">
          <mxGeometry x="1086" y="1073" as="geometry" />
        </mxCell>
        <mxCell id="231" style="vsdxID=118;edgeStyle=none;startArrow=open;endArrow=none;startSize=5;endSize=5;strokeColor=#404040;shadow=1;spacingTop=0;spacingBottom=0;spacingLeft=0;spacingRight=0;verticalAlign=middle;html=1;labelBackgroundColor=#FFFFFF;rounded=0;" parent="1" source="230" target="89" edge="1">
          <mxGeometry relative="1" as="geometry">
            <Array as="points">
              <mxPoint x="1086" y="1073" />
              <mxPoint x="1073.26" y="1062.91" />
            </Array>
          </mxGeometry>
        </mxCell>
        <mxCell id="232" parent="1" vertex="1">
          <mxGeometry x="644" y="1553" as="geometry" />
        </mxCell>
        <mxCell id="233" style="vsdxID=58;edgeStyle=none;startArrow=open;endArrow=none;startSize=5;endSize=5;strokeColor=#404040;shadow=1;spacingTop=0;spacingBottom=0;spacingLeft=0;spacingRight=0;verticalAlign=middle;html=1;labelBackgroundColor=#FFFFFF;rounded=0;" parent="1" source="232" target="51" edge="1">
          <mxGeometry relative="1" as="geometry">
            <Array as="points">
              <mxPoint x="644" y="1553" />
              <mxPoint x="628.46" y="1553" />
            </Array>
          </mxGeometry>
        </mxCell>
        <mxCell id="234" parent="1" vertex="1">
          <mxGeometry x="647" y="1596" as="geometry" />
        </mxCell>
        <mxCell id="235" style="vsdxID=59;edgeStyle=none;startArrow=open;endArrow=none;startSize=5;endSize=5;strokeColor=#404040;shadow=1;spacingTop=0;spacingBottom=0;spacingLeft=0;spacingRight=0;verticalAlign=middle;html=1;labelBackgroundColor=#FFFFFF;rounded=0;" parent="1" source="234" target="52" edge="1">
          <mxGeometry relative="1" as="geometry">
            <Array as="points">
              <mxPoint x="647" y="1596" />
              <mxPoint x="631.46" y="1596" />
            </Array>
          </mxGeometry>
        </mxCell>
        <mxCell id="236" parent="1" vertex="1">
          <mxGeometry x="766" y="734" as="geometry" />
        </mxCell>
        <mxCell id="237" style="vsdxID=72;edgeStyle=none;startArrow=open;endArrow=none;startSize=5;endSize=5;strokeColor=#404040;shadow=1;spacingTop=0;spacingBottom=0;spacingLeft=0;spacingRight=0;verticalAlign=middle;html=1;labelBackgroundColor=#FFFFFF;rounded=0;" parent="1" source="236" target="67" edge="1">
          <mxGeometry relative="1" as="geometry">
            <Array as="points">
              <mxPoint x="766" y="734" />
              <mxPoint x="778.43" y="723.91" />
            </Array>
          </mxGeometry>
        </mxCell>
        <mxCell id="238" parent="1" vertex="1">
          <mxGeometry x="792" y="734" as="geometry" />
        </mxCell>
        <mxCell id="239" style="vsdxID=73;edgeStyle=none;startArrow=open;endArrow=none;startSize=5;endSize=5;strokeColor=#404040;shadow=1;spacingTop=0;spacingBottom=0;spacingLeft=0;spacingRight=0;verticalAlign=middle;html=1;labelBackgroundColor=#FFFFFF;rounded=0;" parent="1" source="238" target="67" edge="1">
          <mxGeometry relative="1" as="geometry">
            <Array as="points">
              <mxPoint x="792" y="734" />
              <mxPoint x="779.26" y="723.91" />
            </Array>
          </mxGeometry>
        </mxCell>
        <mxCell id="240" parent="1" vertex="1">
          <mxGeometry x="831" y="735" as="geometry" />
        </mxCell>
        <mxCell id="241" style="vsdxID=81;edgeStyle=none;startArrow=open;endArrow=none;startSize=5;endSize=5;strokeColor=#404040;shadow=1;spacingTop=0;spacingBottom=0;spacingLeft=0;spacingRight=0;verticalAlign=middle;html=1;labelBackgroundColor=#FFFFFF;rounded=0;" parent="1" source="240" target="60" edge="1">
          <mxGeometry relative="1" as="geometry">
            <Array as="points">
              <mxPoint x="831" y="735" />
              <mxPoint x="843.43" y="724.91" />
            </Array>
          </mxGeometry>
        </mxCell>
        <mxCell id="242" parent="1" vertex="1">
          <mxGeometry x="856" y="735" as="geometry" />
        </mxCell>
        <mxCell id="243" style="vsdxID=82;edgeStyle=none;startArrow=open;endArrow=none;startSize=5;endSize=5;strokeColor=#404040;shadow=1;spacingTop=0;spacingBottom=0;spacingLeft=0;spacingRight=0;verticalAlign=middle;html=1;labelBackgroundColor=#FFFFFF;rounded=0;" parent="1" source="242" target="60" edge="1">
          <mxGeometry relative="1" as="geometry">
            <Array as="points">
              <mxPoint x="856" y="735" />
              <mxPoint x="843.26" y="724.91" />
            </Array>
          </mxGeometry>
        </mxCell>
        <mxCell id="244" parent="1" vertex="1">
          <mxGeometry x="996" y="1072" as="geometry" />
        </mxCell>
        <mxCell id="245" style="vsdxID=108;edgeStyle=none;startArrow=open;endArrow=none;startSize=5;endSize=5;strokeColor=#404040;shadow=1;spacingTop=0;spacingBottom=0;spacingLeft=0;spacingRight=0;verticalAlign=middle;html=1;labelBackgroundColor=#FFFFFF;rounded=0;" parent="1" source="244" target="95" edge="1">
          <mxGeometry relative="1" as="geometry">
            <Array as="points">
              <mxPoint x="996" y="1072" />
              <mxPoint x="1008.43" y="1061.91" />
            </Array>
          </mxGeometry>
        </mxCell>
        <mxCell id="246" parent="1" vertex="1">
          <mxGeometry x="1022" y="1072" as="geometry" />
        </mxCell>
        <mxCell id="247" style="vsdxID=109;edgeStyle=none;startArrow=open;endArrow=none;startSize=5;endSize=5;strokeColor=#404040;shadow=1;spacingTop=0;spacingBottom=0;spacingLeft=0;spacingRight=0;verticalAlign=middle;html=1;labelBackgroundColor=#FFFFFF;rounded=0;" parent="1" source="246" target="95" edge="1">
          <mxGeometry relative="1" as="geometry">
            <Array as="points">
              <mxPoint x="1022" y="1072" />
              <mxPoint x="1009.26" y="1061.91" />
            </Array>
          </mxGeometry>
        </mxCell>
        <mxCell id="248" parent="1" vertex="1">
          <mxGeometry x="1061" y="1073" as="geometry" />
        </mxCell>
        <mxCell id="249" style="vsdxID=117;edgeStyle=none;startArrow=open;endArrow=none;startSize=5;endSize=5;strokeColor=#404040;shadow=1;spacingTop=0;spacingBottom=0;spacingLeft=0;spacingRight=0;verticalAlign=middle;html=1;labelBackgroundColor=#FFFFFF;rounded=0;" parent="1" source="248" target="89" edge="1">
          <mxGeometry relative="1" as="geometry">
            <Array as="points">
              <mxPoint x="1061" y="1073" />
              <mxPoint x="1073.43" y="1062.91" />
            </Array>
          </mxGeometry>
        </mxCell>
        <mxCell id="0BhrAgoRWGllwhJD37W0-276" value="$$\mathbf{w_1}=f_1$$" style="text;html=1;align=center;verticalAlign=middle;resizable=0;points=[];autosize=1;strokeColor=none;fontSize=20;" parent="1" vertex="1">
          <mxGeometry x="464.5" y="1652" width="221" height="34" as="geometry" />
        </mxCell>
        <mxCell id="0BhrAgoRWGllwhJD37W0-277" value="(&amp;nbsp; &amp;nbsp; ,&amp;nbsp; &amp;nbsp; ,&amp;nbsp; &amp;nbsp; )" style="text;html=1;align=center;verticalAlign=middle;resizable=0;points=[];autosize=1;strokeColor=none;fontSize=20;" parent="1" vertex="1">
          <mxGeometry x="604" y="1650" width="119" height="34" as="geometry" />
        </mxCell>
        <mxCell id="0BhrAgoRWGllwhJD37W0-278" value="(&amp;nbsp; &amp;nbsp; ,&amp;nbsp; &amp;nbsp; ,&amp;nbsp; &amp;nbsp; )" style="text;html=1;align=center;verticalAlign=middle;resizable=0;points=[];autosize=1;strokeColor=none;fontSize=20;" parent="1" vertex="1">
          <mxGeometry x="967" y="1651" width="119" height="34" as="geometry" />
        </mxCell>
        <mxCell id="0BhrAgoRWGllwhJD37W0-279" value="$$\mathbf{w_3}=f_3$$" style="text;html=1;align=center;verticalAlign=middle;resizable=0;points=[];autosize=1;strokeColor=none;fontSize=20;" parent="1" vertex="1">
          <mxGeometry x="826" y="1652" width="221" height="34" as="geometry" />
        </mxCell>
        <mxCell id="0BhrAgoRWGllwhJD37W0-280" value="" style="points=[];aspect=fixed;html=1;align=center;shadow=0;dashed=0;image;image=img/lib/allied_telesis/computer_and_terminals/Server_Desktop.svg;fontSize=15;" parent="1" vertex="1">
          <mxGeometry x="753" y="893.67" width="60.22" height="76.33" as="geometry" />
        </mxCell>
        <mxCell id="0BhrAgoRWGllwhJD37W0-281" value="" style="points=[];aspect=fixed;html=1;align=center;shadow=0;dashed=0;image;image=img/lib/allied_telesis/computer_and_terminals/Server_Desktop.svg;fontSize=15;" parent="1" vertex="1">
          <mxGeometry x="758.2" y="1389.5" width="53.26" height="67.5" as="geometry" />
        </mxCell>
        <mxCell id="0BhrAgoRWGllwhJD37W0-282" value="" style="pointerEvents=1;shadow=0;dashed=0;html=1;strokeColor=none;fillColor=#505050;labelPosition=center;verticalLabelPosition=bottom;verticalAlign=top;outlineConnect=0;align=center;shape=mxgraph.office.users.mobile_user;fontSize=15;" parent="1" vertex="1">
          <mxGeometry x="605" y="756" width="40" height="53" as="geometry" />
        </mxCell>
        <mxCell id="0BhrAgoRWGllwhJD37W0-283" value="" style="pointerEvents=1;shadow=0;dashed=0;html=1;strokeColor=none;fillColor=#505050;labelPosition=center;verticalLabelPosition=bottom;verticalAlign=top;outlineConnect=0;align=center;shape=mxgraph.office.users.mobile_user;fontSize=15;" parent="1" vertex="1">
          <mxGeometry x="691" y="1087.5" width="40" height="53" as="geometry" />
        </mxCell>
        <mxCell id="0BhrAgoRWGllwhJD37W0-284" value="" style="pointerEvents=1;shadow=0;dashed=0;html=1;strokeColor=none;fillColor=#505050;labelPosition=center;verticalLabelPosition=bottom;verticalAlign=top;outlineConnect=0;align=center;shape=mxgraph.office.users.mobile_user;fontSize=15;" parent="1" vertex="1">
          <mxGeometry x="830" y="1087" width="40" height="53" as="geometry" />
        </mxCell>
        <mxCell id="0BhrAgoRWGllwhJD37W0-286" value="" style="pointerEvents=1;shadow=0;dashed=0;html=1;strokeColor=none;fillColor=#505050;labelPosition=center;verticalLabelPosition=bottom;verticalAlign=top;outlineConnect=0;align=center;shape=mxgraph.office.users.mobile_user;fontSize=15;" parent="1" vertex="1">
          <mxGeometry x="836" y="1549" width="40" height="53" as="geometry" />
        </mxCell>
        <mxCell id="0BhrAgoRWGllwhJD37W0-288" value="" style="shadow=0;dashed=0;html=1;strokeColor=none;fillColor=#505050;labelPosition=center;verticalLabelPosition=bottom;verticalAlign=top;outlineConnect=0;align=center;shape=mxgraph.office.databases.database;fontSize=15;" parent="1" vertex="1">
          <mxGeometry x="702" y="602" width="29" height="36" as="geometry" />
        </mxCell>
        <mxCell id="0BhrAgoRWGllwhJD37W0-290" value="$$\mathbf{w_2}=f_2$$" style="text;html=1;align=center;verticalAlign=middle;resizable=0;points=[];autosize=1;strokeColor=none;fontSize=20;" parent="1" vertex="1">
          <mxGeometry x="813" y="1270" width="221" height="34" as="geometry" />
        </mxCell>
        <mxCell id="0BhrAgoRWGllwhJD37W0-291" value="(&amp;nbsp; &amp;nbsp; ,&amp;nbsp; &amp;nbsp; ,&amp;nbsp; &amp;nbsp; )" style="text;html=1;align=center;verticalAlign=middle;resizable=0;points=[];autosize=1;strokeColor=none;fontSize=20;" parent="1" vertex="1">
          <mxGeometry x="952.5" y="1269.5" width="119" height="34" as="geometry" />
        </mxCell>
        <mxCell id="0BhrAgoRWGllwhJD37W0-292" value="" style="shadow=0;dashed=0;html=1;strokeColor=none;fillColor=#505050;labelPosition=center;verticalLabelPosition=bottom;verticalAlign=top;outlineConnect=0;align=center;shape=mxgraph.office.databases.database;fontSize=15;" parent="1" vertex="1">
          <mxGeometry x="468.5" y="940" width="29" height="36" as="geometry" />
        </mxCell>
        <mxCell id="0BhrAgoRWGllwhJD37W0-293" value="" style="shadow=0;dashed=0;html=1;strokeColor=none;fillColor=#505050;labelPosition=center;verticalLabelPosition=bottom;verticalAlign=top;outlineConnect=0;align=center;shape=mxgraph.office.databases.database;fontSize=15;" parent="1" vertex="1">
          <mxGeometry x="930" y="939" width="29" height="36" as="geometry" />
        </mxCell>
        <mxCell id="0BhrAgoRWGllwhJD37W0-294" value="" style="pointerEvents=1;shadow=0;dashed=0;html=1;strokeColor=none;fillColor=#505050;labelPosition=center;verticalLabelPosition=bottom;verticalAlign=top;outlineConnect=0;align=center;shape=mxgraph.office.users.mobile_user;fontSize=15;" parent="1" vertex="1">
          <mxGeometry x="657" y="1259" width="40" height="53" as="geometry" />
        </mxCell>
        <mxCell id="0BhrAgoRWGllwhJD37W0-295" value="=&amp;nbsp; &amp;nbsp; +" style="text;html=1;align=center;verticalAlign=middle;resizable=0;points=[];autosize=1;strokeColor=none;fontSize=20;" parent="1" vertex="1">
          <mxGeometry x="1009" y="1112.5" width="68" height="34" as="geometry" />
        </mxCell>
        <mxCell id="0BhrAgoRWGllwhJD37W0-296" value="=&amp;nbsp; &amp;nbsp; +" style="text;html=1;align=center;verticalAlign=middle;resizable=0;points=[];autosize=1;strokeColor=none;fontSize=20;" parent="1" vertex="1">
          <mxGeometry x="544" y="1108" width="68" height="34" as="geometry" />
        </mxCell>
        <mxCell id="0BhrAgoRWGllwhJD37W0-297" value="=&amp;nbsp; &amp;nbsp; +" style="text;html=1;align=center;verticalAlign=middle;resizable=0;points=[];autosize=1;strokeColor=none;fontSize=20;" parent="1" vertex="1">
          <mxGeometry x="778" y="776" width="68" height="34" as="geometry" />
        </mxCell>
        <mxCell id="0BhrAgoRWGllwhJD37W0-298" value="" style="pointerEvents=1;shadow=0;dashed=0;html=1;strokeColor=none;fillColor=#505050;labelPosition=center;verticalLabelPosition=bottom;verticalAlign=top;outlineConnect=0;align=center;shape=mxgraph.office.users.mobile_user;fontSize=15;" parent="1" vertex="1">
          <mxGeometry x="696" y="1550.5" width="40" height="53" as="geometry" />
        </mxCell>
        <mxCell id="2" value="连接线" parent="0" />
        <mxCell id="250" style="vsdxID=11;edgeStyle=none;startArrow=none;endArrow=classic;startSize=5;endSize=5;strokeColor=#404040;spacingTop=0;spacingBottom=0;spacingLeft=0;spacingRight=0;verticalAlign=middle;html=1;labelBackgroundColor=#ffffff;rounded=0;" parent="2" edge="1">
          <mxGeometry relative="1" as="geometry">
            <Array as="points" />
            <mxPoint x="681" y="1041" as="sourcePoint" />
            <mxPoint x="746" y="956" as="targetPoint" />
          </mxGeometry>
        </mxCell>
        <mxCell id="251" style="vsdxID=12;edgeStyle=none;startArrow=none;endArrow=classic;startSize=5;endSize=5;strokeColor=#404040;spacingTop=0;spacingBottom=0;spacingLeft=0;spacingRight=0;verticalAlign=middle;html=1;labelBackgroundColor=#ffffff;rounded=0;" parent="2" edge="1">
          <mxGeometry relative="1" as="geometry">
            <Array as="points" />
            <mxPoint x="780" y="835" as="sourcePoint" />
            <mxPoint x="780" y="886" as="targetPoint" />
          </mxGeometry>
        </mxCell>
        <mxCell id="252" style="vsdxID=13;edgeStyle=none;startArrow=none;endArrow=classic;startSize=5;endSize=5;strokeColor=#404040;spacingTop=0;spacingBottom=0;spacingLeft=0;spacingRight=0;verticalAlign=middle;html=1;labelBackgroundColor=#ffffff;rounded=0;" parent="2" edge="1">
          <mxGeometry relative="1" as="geometry">
            <Array as="points" />
            <mxPoint x="881" y="1041" as="sourcePoint" />
            <mxPoint x="813" y="959" as="targetPoint" />
          </mxGeometry>
        </mxCell>
        <mxCell id="253" style="vsdxID=19;edgeStyle=none;startArrow=none;endArrow=classic;startSize=5;endSize=5;strokeColor=#404040;spacingTop=0;spacingBottom=0;spacingLeft=0;spacingRight=0;verticalAlign=middle;html=1;labelBackgroundColor=#ffffff;rounded=0;" parent="2" edge="1">
          <mxGeometry relative="1" as="geometry">
            <Array as="points" />
            <mxPoint x="759" y="1449" as="sourcePoint" />
            <mxPoint x="677" y="1526" as="targetPoint" />
          </mxGeometry>
        </mxCell>
        <mxCell id="254" style="vsdxID=20;edgeStyle=none;startArrow=none;endArrow=classic;startSize=5;endSize=5;strokeColor=#404040;spacingTop=0;spacingBottom=0;spacingLeft=0;spacingRight=0;verticalAlign=middle;html=1;labelBackgroundColor=#ffffff;rounded=0;" parent="2" edge="1">
          <mxGeometry relative="1" as="geometry">
            <Array as="points" />
            <mxPoint x="781" y="1390" as="sourcePoint" />
            <mxPoint x="781" y="1337" as="targetPoint" />
          </mxGeometry>
        </mxCell>
        <mxCell id="255" style="vsdxID=21;edgeStyle=none;startArrow=none;endArrow=classic;startSize=5;endSize=5;strokeColor=#404040;spacingTop=0;spacingBottom=0;spacingLeft=0;spacingRight=0;verticalAlign=middle;html=1;labelBackgroundColor=#ffffff;rounded=0;" parent="2" edge="1">
          <mxGeometry relative="1" as="geometry">
            <Array as="points" />
            <mxPoint x="803" y="1451" as="sourcePoint" />
            <mxPoint x="892" y="1526" as="targetPoint" />
          </mxGeometry>
        </mxCell>
        <mxCell id="256" style="vsdxID=48;edgeStyle=none;startArrow=none;endArrow=classic;startSize=5;endSize=5;strokeColor=#404040;spacingTop=0;spacingBottom=0;spacingLeft=0;spacingRight=0;verticalAlign=middle;html=1;labelBackgroundColor=#ffffff;rounded=0;" parent="2" edge="1">
          <mxGeometry relative="1" as="geometry">
            <Array as="points" />
            <mxPoint x="967" y="1628" as="sourcePoint" />
            <mxPoint x="967" y="1656" as="targetPoint" />
          </mxGeometry>
        </mxCell>
        <mxCell id="257" style="vsdxID=49;edgeStyle=none;startArrow=none;endArrow=classic;startSize=5;endSize=5;strokeColor=#404040;spacingTop=0;spacingBottom=0;spacingLeft=0;spacingRight=0;verticalAlign=middle;html=1;labelBackgroundColor=#ffffff;rounded=0;" parent="2" edge="1">
          <mxGeometry relative="1" as="geometry">
            <Array as="points" />
            <mxPoint x="605" y="1626" as="sourcePoint" />
            <mxPoint x="605" y="1655" as="targetPoint" />
          </mxGeometry>
        </mxCell>
        <mxCell id="258" value="" style="vsdxID=50;edgeStyle=none;startArrow=none;endArrow=classic;startSize=5;endSize=5;strokeColor=#404040;spacingTop=0;spacingBottom=0;spacingLeft=0;spacingRight=0;verticalAlign=middle;html=1;labelBackgroundColor=#ffffff;rounded=0;align=center;" parent="2" edge="1">
          <mxGeometry relative="1" as="geometry">
            <mxPoint as="offset" />
            <Array as="points" />
            <mxPoint x="851" y="1287" as="sourcePoint" />
            <mxPoint x="880" y="1287" as="targetPoint" />
          </mxGeometry>
        </mxCell>
        <mxCell id="3" value="流程图" parent="0" />
      </root>
    </mxGraphModel>
  </diagram>
</mxfile>
